<?xml version="1.0" encoding="utf-8" standalone="no"?>
<!DOCTYPE svg PUBLIC "-//W3C//DTD SVG 1.1//EN"
  "http://www.w3.org/Graphics/SVG/1.1/DTD/svg11.dtd">
<!-- Created with matplotlib (https://matplotlib.org/) -->
<svg height="216pt" version="1.1" viewBox="0 0 432 216" width="432pt" xmlns="http://www.w3.org/2000/svg" xmlns:xlink="http://www.w3.org/1999/xlink">
 <defs>
  <style type="text/css">
*{stroke-linecap:butt;stroke-linejoin:round;}
  </style>
 </defs>
 <g id="figure_1">
  <g id="patch_1">
   <path d="M 0 216 
L 432 216 
L 432 0 
L 0 0 
z
" style="fill:#ffffff;"/>
  </g>
  <g id="axes_1">
   <g id="patch_2">
    <path d="M 43.758396 198.122854 
L 429.165354 198.122854 
L 429.165354 20.332146 
L 43.758396 20.332146 
z
" style="fill:#ffffff;"/>
   </g>
   <g id="matplotlib.axis_1">
    <g id="xtick_1">
     <g id="line2d_1">
      <path clip-path="url(#p4856444b41)" d="M 54.66614 198.122854 
L 54.66614 20.332146 
" style="fill:none;stroke:#000000;stroke-linecap:square;stroke-opacity:0.1;stroke-width:0.5;"/>
     </g>
     <g id="line2d_2">
      <defs>
       <path d="M 0 0 
L 0 -3.5 
" id="m80133f247f" style="stroke:#000000;stroke-width:0.8;"/>
      </defs>
      <g>
       <use style="stroke:#000000;stroke-width:0.8;" x="54.66614" xlink:href="#m80133f247f" y="198.122854"/>
      </g>
     </g>
     <g id="text_1">
      <!-- 2000 -->
      <defs>
       <path d="M 42.59375 5.703125 
Q 39 5.796875 34.796875 5.890625 
Q 30.59375 6 24.09375 6 
Q 17.5 6 12.140625 5.953125 
Q 6.796875 5.90625 3.296875 5.703125 
Q 3.59375 8.09375 4.09375 10.296875 
Q 4.59375 12.5 5.890625 14.953125 
Q 7.203125 17.40625 9.453125 20.296875 
Q 11.703125 23.203125 15.5 27.09375 
L 19.203125 30.90625 
Q 23.09375 34.796875 25.390625 37.6875 
Q 27.703125 40.59375 28.890625 42.9375 
Q 30.09375 45.296875 30.390625 47.390625 
Q 30.703125 49.5 30.703125 51.90625 
Q 30.703125 56.59375 27.796875 59.390625 
Q 24.90625 62.203125 20 62.203125 
Q 14.90625 62.203125 11.65625 58.890625 
Q 8.40625 55.59375 7.203125 49.40625 
L 4.09375 50.59375 
Q 5.5 59.796875 10.84375 64.640625 
Q 16.203125 69.5 24.203125 69.5 
Q 27.796875 69.5 31 68.5 
Q 34.203125 67.5 36.59375 65.546875 
Q 39 63.59375 40.453125 60.75 
Q 41.90625 57.90625 41.90625 54.203125 
Q 41.90625 50.296875 40.5 47 
Q 39.09375 43.703125 36.6875 40.75 
Q 34.296875 37.796875 31.140625 35.09375 
Q 28 32.40625 24.59375 29.796875 
L 21.59375 27.40625 
Q 19 25.296875 16.09375 22.296875 
Q 13.203125 19.296875 10.703125 15.296875 
L 32.40625 15.296875 
Q 34.90625 15.296875 36.203125 15.796875 
Q 37.5 16.296875 38.25 17.4375 
Q 39 18.59375 39.546875 20.34375 
Q 40.09375 22.09375 41 24.5 
L 44.09375 24.5 
z
" id="STSongti-SC-Black-50"/>
       <path d="M 23.703125 69.5 
Q 28 69.5 31.953125 66.953125 
Q 35.90625 64.40625 38.84375 60 
Q 41.796875 55.59375 43.546875 49.640625 
Q 45.296875 43.703125 45.296875 36.90625 
Q 45.296875 30.203125 43.59375 24.296875 
Q 41.90625 18.40625 38.953125 13.953125 
Q 36 9.5 32.09375 6.953125 
Q 28.203125 4.40625 23.796875 4.40625 
Q 19.5 4.40625 15.546875 6.90625 
Q 11.59375 9.40625 8.59375 13.75 
Q 5.59375 18.09375 3.84375 24.046875 
Q 2.09375 30 2.09375 36.796875 
Q 2.09375 43.703125 3.84375 49.703125 
Q 5.59375 55.703125 8.546875 60.09375 
Q 11.5 64.5 15.390625 67 
Q 19.296875 69.5 23.703125 69.5 
z
M 23.703125 8.09375 
Q 29.203125 8.09375 31.203125 15.09375 
Q 33.203125 22.09375 33.203125 36.90625 
Q 33.203125 51.703125 31.140625 58.75 
Q 29.09375 65.796875 23.703125 65.796875 
Q 18.296875 65.796875 16.25 58.796875 
Q 14.203125 51.796875 14.203125 36.90625 
Q 14.203125 8.09375 23.703125 8.09375 
z
" id="STSongti-SC-Black-48"/>
      </defs>
      <g transform="translate(41.53239 211.702854)scale(0.14 -0.14)">
       <use xlink:href="#STSongti-SC-Black-50"/>
       <use x="46.899994" xlink:href="#STSongti-SC-Black-48"/>
       <use x="93.799988" xlink:href="#STSongti-SC-Black-48"/>
       <use x="140.699982" xlink:href="#STSongti-SC-Black-48"/>
      </g>
     </g>
    </g>
    <g id="xtick_2">
     <g id="line2d_3">
      <path clip-path="url(#p4856444b41)" d="M 144.441811 198.122854 
L 144.441811 20.332146 
" style="fill:none;stroke:#000000;stroke-linecap:square;stroke-opacity:0.1;stroke-width:0.5;"/>
     </g>
     <g id="line2d_4">
      <g>
       <use style="stroke:#000000;stroke-width:0.8;" x="144.441811" xlink:href="#m80133f247f" y="198.122854"/>
      </g>
     </g>
     <g id="text_2">
      <!-- 2005 -->
      <defs>
       <path d="M 38.90625 58.796875 
L 24 58.796875 
Q 20.09375 58.796875 17.09375 58.75 
Q 14.09375 58.703125 13.703125 58.5 
L 12.796875 45 
Q 15 46.09375 17.890625 46.59375 
Q 20.796875 47.09375 23.09375 47.09375 
Q 28.203125 47.09375 32.046875 45.4375 
Q 35.90625 43.796875 38.5 41.046875 
Q 41.09375 38.296875 42.390625 34.6875 
Q 43.703125 31.09375 43.703125 27.203125 
Q 43.703125 22.09375 41.59375 17.890625 
Q 39.5 13.703125 36.09375 10.703125 
Q 32.703125 7.703125 28.390625 6.046875 
Q 24.09375 4.40625 19.59375 4.40625 
Q 17.296875 4.40625 14.59375 4.84375 
Q 11.90625 5.296875 9.546875 6.140625 
Q 7.203125 7 5.640625 8.25 
Q 4.09375 9.5 4.09375 11.203125 
Q 4.09375 12.40625 4.890625 13.34375 
Q 5.703125 14.296875 6.796875 14.84375 
Q 7.90625 15.40625 9.09375 15.40625 
Q 10.296875 15.40625 11.09375 14.703125 
Q 13.5 12.703125 15.046875 11.296875 
Q 16.59375 9.90625 17.796875 9 
Q 19 8.09375 20.09375 7.6875 
Q 21.203125 7.296875 22.703125 7.296875 
Q 25.5 7.296875 27.59375 8.59375 
Q 29.703125 9.90625 31.140625 12.15625 
Q 32.59375 14.40625 33.34375 17.40625 
Q 34.09375 20.40625 34.09375 23.796875 
Q 34.09375 27 33.09375 29.640625 
Q 32.09375 32.296875 30.296875 34.25 
Q 28.5 36.203125 26.046875 37.296875 
Q 23.59375 38.40625 20.59375 38.40625 
Q 17.203125 38.40625 14.953125 37.65625 
Q 12.703125 36.90625 11.296875 35.5 
L 9.59375 35.5 
L 11.5 68.5 
L 24.09375 68.5 
Q 28 68.5 30.5 68.5 
Q 33 68.5 34.453125 68.75 
Q 35.90625 69 36.5 69.546875 
Q 37.09375 70.09375 37.296875 71.203125 
L 39.796875 71.203125 
z
" id="STSongti-SC-Black-53"/>
      </defs>
      <g transform="translate(131.308061 211.702854)scale(0.14 -0.14)">
       <use xlink:href="#STSongti-SC-Black-50"/>
       <use x="46.899994" xlink:href="#STSongti-SC-Black-48"/>
       <use x="93.799988" xlink:href="#STSongti-SC-Black-48"/>
       <use x="140.699982" xlink:href="#STSongti-SC-Black-53"/>
      </g>
     </g>
    </g>
    <g id="xtick_3">
     <g id="line2d_5">
      <path clip-path="url(#p4856444b41)" d="M 234.217483 198.122854 
L 234.217483 20.332146 
" style="fill:none;stroke:#000000;stroke-linecap:square;stroke-opacity:0.1;stroke-width:0.5;"/>
     </g>
     <g id="line2d_6">
      <g>
       <use style="stroke:#000000;stroke-width:0.8;" x="234.217483" xlink:href="#m80133f247f" y="198.122854"/>
      </g>
     </g>
     <g id="text_3">
      <!-- 2010 -->
      <defs>
       <path d="M 38.5 5.703125 
Q 35.90625 5.796875 31.953125 5.890625 
Q 28 6 23.796875 6 
Q 19.59375 6 15.640625 5.890625 
Q 11.703125 5.796875 9.09375 5.703125 
L 9.09375 8.59375 
L 15.296875 9.5 
Q 18.796875 10.296875 18.796875 13.40625 
L 18.796875 60 
L 6.90625 52.296875 
L 5.203125 55.40625 
Q 6.90625 56.5 9.5 58.09375 
Q 12.09375 59.703125 15 61.59375 
Q 17.90625 63.5 20.796875 65.5 
Q 23.703125 67.5 26.09375 69.5 
L 29.40625 69.5 
L 29.40625 13.40625 
Q 29.40625 9.90625 32.90625 9.40625 
L 38.5 8.59375 
z
" id="STSongti-SC-Black-49"/>
      </defs>
      <g transform="translate(221.083733 211.702854)scale(0.14 -0.14)">
       <use xlink:href="#STSongti-SC-Black-50"/>
       <use x="46.899994" xlink:href="#STSongti-SC-Black-48"/>
       <use x="93.799988" xlink:href="#STSongti-SC-Black-49"/>
       <use x="140.699982" xlink:href="#STSongti-SC-Black-48"/>
      </g>
     </g>
    </g>
    <g id="xtick_4">
     <g id="line2d_7">
      <path clip-path="url(#p4856444b41)" d="M 323.993155 198.122854 
L 323.993155 20.332146 
" style="fill:none;stroke:#000000;stroke-linecap:square;stroke-opacity:0.1;stroke-width:0.5;"/>
     </g>
     <g id="line2d_8">
      <g>
       <use style="stroke:#000000;stroke-width:0.8;" x="323.993155" xlink:href="#m80133f247f" y="198.122854"/>
      </g>
     </g>
     <g id="text_4">
      <!-- 2015 -->
      <g transform="translate(310.859405 211.702854)scale(0.14 -0.14)">
       <use xlink:href="#STSongti-SC-Black-50"/>
       <use x="46.899994" xlink:href="#STSongti-SC-Black-48"/>
       <use x="93.799988" xlink:href="#STSongti-SC-Black-49"/>
       <use x="140.699982" xlink:href="#STSongti-SC-Black-53"/>
      </g>
     </g>
    </g>
    <g id="xtick_5">
     <g id="line2d_9">
      <path clip-path="url(#p4856444b41)" d="M 413.768827 198.122854 
L 413.768827 20.332146 
" style="fill:none;stroke:#000000;stroke-linecap:square;stroke-opacity:0.1;stroke-width:0.5;"/>
     </g>
     <g id="line2d_10">
      <g>
       <use style="stroke:#000000;stroke-width:0.8;" x="413.768827" xlink:href="#m80133f247f" y="198.122854"/>
      </g>
     </g>
     <g id="text_5">
      <!-- 2020 -->
      <g transform="translate(400.635077 211.702854)scale(0.14 -0.14)">
       <use xlink:href="#STSongti-SC-Black-50"/>
       <use x="46.899994" xlink:href="#STSongti-SC-Black-48"/>
       <use x="93.799988" xlink:href="#STSongti-SC-Black-50"/>
       <use x="140.699982" xlink:href="#STSongti-SC-Black-48"/>
      </g>
     </g>
    </g>
   </g>
   <g id="matplotlib.axis_2">
    <g id="ytick_1">
     <g id="line2d_11">
      <path clip-path="url(#p4856444b41)" d="M 43.758396 198.122854 
L 429.165354 198.122854 
" style="fill:none;stroke:#000000;stroke-linecap:square;stroke-opacity:0.1;stroke-width:0.5;"/>
     </g>
     <g id="line2d_12">
      <defs>
       <path d="M 0 0 
L 3.5 0 
" id="m39963db4ab" style="stroke:#000000;stroke-width:0.8;"/>
      </defs>
      <g>
       <use style="stroke:#000000;stroke-width:0.8;" x="43.758396" xlink:href="#m39963db4ab" y="198.122854"/>
      </g>
     </g>
     <g id="text_6">
      <!-- 0 -->
      <g transform="translate(33.691521 203.162854)scale(0.14 -0.14)">
       <use xlink:href="#STSongti-SC-Black-48"/>
      </g>
     </g>
    </g>
    <g id="ytick_2">
     <g id="line2d_13">
      <path clip-path="url(#p4856444b41)" d="M 43.758396 147.470231 
L 429.165354 147.470231 
" style="fill:none;stroke:#000000;stroke-linecap:square;stroke-opacity:0.1;stroke-width:0.5;"/>
     </g>
     <g id="line2d_14">
      <g>
       <use style="stroke:#000000;stroke-width:0.8;" x="43.758396" xlink:href="#m39963db4ab" y="147.470231"/>
      </g>
     </g>
     <g id="text_7">
      <!-- 100 -->
      <g transform="translate(20.557771 152.510231)scale(0.14 -0.14)">
       <use xlink:href="#STSongti-SC-Black-49"/>
       <use x="46.899994" xlink:href="#STSongti-SC-Black-48"/>
       <use x="93.799988" xlink:href="#STSongti-SC-Black-48"/>
      </g>
     </g>
    </g>
    <g id="ytick_3">
     <g id="line2d_15">
      <path clip-path="url(#p4856444b41)" d="M 43.758396 96.817607 
L 429.165354 96.817607 
" style="fill:none;stroke:#000000;stroke-linecap:square;stroke-opacity:0.1;stroke-width:0.5;"/>
     </g>
     <g id="line2d_16">
      <g>
       <use style="stroke:#000000;stroke-width:0.8;" x="43.758396" xlink:href="#m39963db4ab" y="96.817607"/>
      </g>
     </g>
     <g id="text_8">
      <!-- 200 -->
      <g transform="translate(20.557771 101.857607)scale(0.14 -0.14)">
       <use xlink:href="#STSongti-SC-Black-50"/>
       <use x="46.899994" xlink:href="#STSongti-SC-Black-48"/>
       <use x="93.799988" xlink:href="#STSongti-SC-Black-48"/>
      </g>
     </g>
    </g>
    <g id="ytick_4">
     <g id="line2d_17">
      <path clip-path="url(#p4856444b41)" d="M 43.758396 46.164984 
L 429.165354 46.164984 
" style="fill:none;stroke:#000000;stroke-linecap:square;stroke-opacity:0.1;stroke-width:0.5;"/>
     </g>
     <g id="line2d_18">
      <g>
       <use style="stroke:#000000;stroke-width:0.8;" x="43.758396" xlink:href="#m39963db4ab" y="46.164984"/>
      </g>
     </g>
     <g id="text_9">
      <!-- 300 -->
      <defs>
       <path d="M 9 53.59375 
L 7.40625 55.09375 
Q 8.59375 58.296875 10.09375 60.9375 
Q 11.59375 63.59375 13.6875 65.5 
Q 15.796875 67.40625 18.640625 68.453125 
Q 21.5 69.5 25.296875 69.5 
Q 27.796875 69.5 30.296875 68.890625 
Q 32.796875 68.296875 34.75 67 
Q 36.703125 65.703125 37.890625 63.796875 
Q 39.09375 61.90625 39.09375 59.203125 
Q 39.09375 55.296875 35.640625 51.390625 
Q 32.203125 47.5 26.296875 44.09375 
Q 30.296875 44.40625 33.640625 43.296875 
Q 37 42.203125 39.34375 40 
Q 41.703125 37.796875 43 34.59375 
Q 44.296875 31.40625 44.296875 27.5 
Q 44.296875 22.59375 42.296875 18.34375 
Q 40.296875 14.09375 36.796875 11 
Q 33.296875 7.90625 28.640625 6.15625 
Q 24 4.40625 18.796875 4.40625 
Q 11.90625 4.40625 8.09375 6.296875 
Q 4.296875 8.203125 4.296875 11.203125 
Q 4.296875 12.296875 5.046875 13.34375 
Q 5.796875 14.40625 7.140625 14.84375 
Q 8.5 15.296875 10.203125 14.84375 
Q 11.90625 14.40625 13.90625 12.5 
Q 15.40625 11 16.453125 10 
Q 17.5 9 18.34375 8.453125 
Q 19.203125 7.90625 19.953125 7.65625 
Q 20.703125 7.40625 21.703125 7.40625 
Q 24.703125 7.40625 26.953125 8.90625 
Q 29.203125 10.40625 30.703125 12.90625 
Q 32.203125 15.40625 32.890625 18.5 
Q 33.59375 21.59375 33.59375 24.796875 
Q 33.59375 31.203125 30.546875 34.34375 
Q 27.5 37.5 23.40625 37.5 
Q 20.796875 37.5 18.84375 36.640625 
Q 16.90625 35.796875 14.90625 34.09375 
L 13.203125 36.40625 
Q 14.203125 37.296875 15.296875 38.1875 
Q 16.40625 39.09375 17.59375 40 
Q 23.09375 44.09375 26.1875 47.34375 
Q 29.296875 50.59375 29.296875 53.703125 
Q 29.296875 57.59375 27.046875 59.75 
Q 24.796875 61.90625 20.40625 61.90625 
Q 17.203125 61.90625 14.09375 60.046875 
Q 11 58.203125 9 53.59375 
z
" id="STSongti-SC-Black-51"/>
      </defs>
      <g transform="translate(20.557771 51.204984)scale(0.14 -0.14)">
       <use xlink:href="#STSongti-SC-Black-51"/>
       <use x="46.899994" xlink:href="#STSongti-SC-Black-48"/>
       <use x="93.799988" xlink:href="#STSongti-SC-Black-48"/>
      </g>
     </g>
    </g>
    <g id="text_10">
     <!-- Counts (个) -->
     <defs>
      <path d="M 61.09375 22.796875 
Q 60.796875 21.296875 60.5 19.25 
Q 60.203125 17.203125 59.796875 15 
Q 59.40625 12.796875 58.953125 10.6875 
Q 58.5 8.59375 58 6.90625 
Q 54.796875 5.59375 50 5 
Q 45.203125 4.40625 38.203125 4.40625 
Q 31.203125 4.40625 24.84375 6.5 
Q 18.5 8.59375 13.640625 12.59375 
Q 8.796875 16.59375 5.890625 22.4375 
Q 3 28.296875 3 35.90625 
Q 3 43.5 5.59375 49.703125 
Q 8.203125 55.90625 12.75 60.296875 
Q 17.296875 64.703125 23.4375 67.09375 
Q 29.59375 69.5 36.703125 69.5 
Q 42.5 69.5 46.703125 68.84375 
Q 50.90625 68.203125 53.59375 67.40625 
Q 56.796875 66.5 58.90625 65.40625 
Q 59 64.203125 59.09375 62.046875 
Q 59.203125 59.90625 59.25 57.5 
Q 59.296875 55.09375 59.25 52.890625 
Q 59.203125 50.703125 59.203125 49.40625 
L 56.296875 49.40625 
Q 56 52.296875 54.953125 55.140625 
Q 53.90625 58 51.84375 60.296875 
Q 49.796875 62.59375 46.640625 64 
Q 43.5 65.40625 39 65.40625 
Q 34 65.40625 29.953125 63.796875 
Q 25.90625 62.203125 23.046875 58.890625 
Q 20.203125 55.59375 18.59375 50.4375 
Q 17 45.296875 17 38.203125 
Q 17 30.203125 18.84375 24.59375 
Q 20.703125 19 23.84375 15.453125 
Q 27 11.90625 31.296875 10.25 
Q 35.59375 8.59375 40.59375 8.59375 
Q 44 8.59375 46.703125 9.59375 
Q 49.40625 10.59375 51.546875 12.390625 
Q 53.703125 14.203125 55.453125 16.84375 
Q 57.203125 19.5 58.796875 22.796875 
z
" id="STSongti-SC-Black-67"/>
      <path d="M 23.5 4.40625 
Q 18.203125 4.40625 14.296875 5.953125 
Q 10.40625 7.5 7.75 10.296875 
Q 5.09375 13.09375 3.796875 16.84375 
Q 2.5 20.59375 2.5 25.09375 
Q 2.5 29.703125 3.796875 33.546875 
Q 5.09375 37.40625 7.75 40.15625 
Q 10.40625 42.90625 14.5 44.453125 
Q 18.59375 46 24.296875 46 
Q 30 46 34.046875 44.390625 
Q 38.09375 42.796875 40.75 39.9375 
Q 43.40625 37.09375 44.65625 33.25 
Q 45.90625 29.40625 45.90625 24.90625 
Q 45.90625 20.296875 44.34375 16.546875 
Q 42.796875 12.796875 39.9375 10.09375 
Q 37.09375 7.40625 32.890625 5.90625 
Q 28.703125 4.40625 23.5 4.40625 
z
M 15.09375 24.40625 
Q 15.09375 16.90625 17.34375 12.546875 
Q 19.59375 8.203125 24 8.203125 
Q 28.296875 8.203125 30.6875 12.796875 
Q 33.09375 17.40625 33.09375 25 
Q 33.09375 32.59375 30.84375 37.34375 
Q 28.59375 42.09375 24 42.09375 
Q 19.5 42.09375 17.296875 37.640625 
Q 15.09375 33.203125 15.09375 24.40625 
z
" id="STSongti-SC-Black-111"/>
      <path d="M 1.5 44.09375 
L 19.5 44.09375 
L 19.5 20.203125 
Q 19.5 15.40625 21.140625 13.40625 
Q 22.796875 11.40625 25.703125 11.40625 
Q 28.09375 11.40625 29.84375 12.15625 
Q 31.59375 12.90625 33.59375 14.59375 
L 33.59375 37.703125 
Q 33.59375 38.5 33.5 39.09375 
Q 33.40625 39.703125 32.75 40.140625 
Q 32.09375 40.59375 30.59375 40.890625 
Q 29.09375 41.203125 26.40625 41.5 
L 26.40625 44.09375 
L 45.09375 44.09375 
L 45.09375 15.703125 
Q 45.09375 14.203125 45.1875 13.203125 
Q 45.296875 12.203125 45.84375 11.640625 
Q 46.40625 11.09375 47.65625 10.890625 
Q 48.90625 10.703125 51.203125 10.59375 
Q 51.203125 10 51.25 9.34375 
Q 51.296875 8.703125 51.296875 8.09375 
L 33.59375 4.5 
L 33.59375 12.09375 
Q 31.90625 10.296875 30.40625 8.84375 
Q 28.90625 7.40625 27.296875 6.40625 
Q 25.703125 5.40625 23.75 4.90625 
Q 21.796875 4.40625 19.203125 4.40625 
Q 13 4.40625 10.5 8.09375 
Q 8 11.796875 8 17.90625 
L 8 37.796875 
Q 8 38.703125 7.796875 39.25 
Q 7.59375 39.796875 6.890625 40.25 
Q 6.203125 40.703125 4.953125 41 
Q 3.703125 41.296875 1.5 41.703125 
z
" id="STSongti-SC-Black-117"/>
      <path d="M 51.5 5.703125 
Q 46.296875 6 39.9375 6 
Q 33.59375 6 28.40625 5.703125 
L 28.40625 8.203125 
L 31.90625 9 
Q 34.09375 9.296875 34.09375 12.90625 
L 34.09375 29.703125 
Q 34.09375 31.90625 33.9375 33.546875 
Q 33.796875 35.203125 33.25 36.34375 
Q 32.703125 37.5 31.546875 38.046875 
Q 30.40625 38.59375 28.40625 38.59375 
Q 26.09375 38.59375 23.546875 37.140625 
Q 21 35.703125 19.296875 33.703125 
L 19.296875 11.796875 
Q 19.296875 10.203125 21.703125 9.59375 
L 24.59375 8.203125 
L 24.59375 5.703125 
Q 23.703125 5.796875 22.84375 5.84375 
Q 22 5.90625 21 5.953125 
Q 20 6 18.796875 6 
Q 17.59375 6 15.796875 6 
L 12.703125 6 
Q 9.5 6 6.25 5.953125 
Q 3 5.90625 1.5 5.703125 
L 1.5 8.203125 
L 5.796875 9.203125 
Q 6.796875 9.40625 7.296875 10.09375 
Q 7.796875 10.796875 7.796875 12.203125 
L 7.796875 31.90625 
Q 7.796875 35 6.546875 36.09375 
Q 5.296875 37.203125 2.09375 37.703125 
L 2.09375 39.59375 
Q 3.703125 40 5.84375 40.59375 
Q 8 41.203125 10.09375 42.140625 
Q 12.203125 43.09375 14 44.4375 
Q 15.796875 45.796875 16.703125 47.703125 
L 19.296875 47.703125 
L 19.296875 38 
Q 22.296875 41.703125 25.796875 43.796875 
Q 29.296875 45.90625 32.796875 45.90625 
Q 38.59375 45.90625 42.09375 42.5 
Q 45.59375 39.09375 45.59375 32.203125 
L 45.59375 13.203125 
Q 45.59375 11.203125 46.09375 10.296875 
Q 46.59375 9.40625 48.09375 9 
L 51.5 8.203125 
z
" id="STSongti-SC-Black-110"/>
      <path d="M 17.40625 54.203125 
L 19.59375 54.203125 
Q 19.59375 51.5 19.640625 48.84375 
Q 19.703125 46.203125 19.703125 43.5 
L 32.203125 43.796875 
L 32.203125 39.09375 
L 19.703125 38.703125 
L 19.703125 20.703125 
Q 19.703125 16.296875 20.796875 14.1875 
Q 21.90625 12.09375 25.40625 12.09375 
Q 26.90625 12.09375 28.703125 12.4375 
Q 30.5 12.796875 32.59375 14.59375 
L 33.5 13.203125 
Q 32.796875 11.796875 31.59375 10.25 
Q 30.40625 8.703125 28.65625 7.390625 
Q 26.90625 6.09375 24.703125 5.25 
Q 22.5 4.40625 19.703125 4.40625 
Q 14.09375 4.40625 11.25 7.25 
Q 8.40625 10.09375 8.40625 17 
L 8.40625 38.5 
Q 7 38.5 5.703125 38.453125 
Q 4.40625 38.40625 3 38.40625 
Q 1.59375 38.40625 1.546875 39.703125 
Q 1.5 41 2.90625 41.59375 
Q 5.09375 42.5 6.9375 43.5 
Q 8.796875 44.5 10 45.5 
Q 10.59375 46 11.640625 46.84375 
Q 12.703125 47.703125 13.796875 48.796875 
Q 14.90625 49.90625 15.84375 51.296875 
Q 16.796875 52.703125 17.40625 54.203125 
z
" id="STSongti-SC-Black-116"/>
      <path d="M 28 32.703125 
Q 27.703125 34.09375 27.140625 35.75 
Q 26.59375 37.40625 25.546875 38.796875 
Q 24.5 40.203125 22.796875 41.140625 
Q 21.09375 42.09375 18.5 42.09375 
Q 17.296875 42.09375 16.140625 41.890625 
Q 15 41.703125 14 41.203125 
Q 13 40.703125 12.390625 39.796875 
Q 11.796875 38.90625 11.796875 37.5 
Q 11.796875 36 12.59375 34.953125 
Q 13.40625 33.90625 14.84375 33.15625 
Q 16.296875 32.40625 18.34375 31.796875 
Q 20.40625 31.203125 22.90625 30.5 
Q 26.203125 29.59375 28.296875 28.390625 
Q 30.40625 27.203125 31.59375 25.703125 
Q 32.796875 24.203125 33.25 22.453125 
Q 33.703125 20.703125 33.703125 18.703125 
Q 33.703125 14.703125 32.203125 11.953125 
Q 30.703125 9.203125 28.203125 7.546875 
Q 25.703125 5.90625 22.453125 5.15625 
Q 19.203125 4.40625 15.796875 4.40625 
Q 12.203125 4.40625 8.953125 5.046875 
Q 5.703125 5.703125 3.40625 7 
L 2.40625 19.296875 
L 4.90625 19.296875 
Q 6.296875 13.90625 9.140625 11.09375 
Q 12 8.296875 16.90625 8.296875 
Q 19.796875 8.296875 22.140625 9.6875 
Q 24.5 11.09375 24.5 14.296875 
Q 24.5 17.203125 22.453125 18.546875 
Q 20.40625 19.90625 15.40625 21.09375 
Q 8.09375 22.796875 5.1875 25.75 
Q 2.296875 28.703125 2.296875 33.90625 
Q 2.296875 36.90625 3.75 39.15625 
Q 5.203125 41.40625 7.546875 42.90625 
Q 9.90625 44.40625 12.84375 45.15625 
Q 15.796875 45.90625 18.90625 45.90625 
Q 22 45.90625 25 45.296875 
Q 28 44.703125 30 43.5 
L 30.59375 32.703125 
z
" id="STSongti-SC-Black-115"/>
      <path id="STSongti-SC-Black-32"/>
      <path d="M 28.796875 74.703125 
L 30.09375 72.09375 
Q 25.09375 67.59375 22.046875 62.140625 
Q 19 56.703125 17.296875 51.09375 
Q 15.59375 45.5 15 40.09375 
Q 14.40625 34.703125 14.40625 30.40625 
Q 14.40625 26 15.15625 20.453125 
Q 15.90625 14.90625 17.65625 9.09375 
Q 19.40625 3.296875 22.34375 -2.09375 
Q 25.296875 -7.5 29.796875 -11.40625 
L 28.59375 -13.703125 
Q 23.5 -10 19 -5.453125 
Q 14.5 -0.90625 11.046875 4.59375 
Q 7.59375 10.09375 5.59375 16.59375 
Q 3.59375 23.09375 3.59375 30.796875 
Q 3.59375 38.5 5.59375 45.046875 
Q 7.59375 51.59375 11.046875 57.046875 
Q 14.5 62.5 19.09375 66.890625 
Q 23.703125 71.296875 28.796875 74.703125 
z
" id="STSongti-SC-Black-40"/>
      <path d="M 53.90625 70.5 
Q 45.59375 57.796875 34.390625 48.34375 
Q 23.203125 38.90625 13.953125 34.25 
Q 4.703125 29.59375 3.296875 29.59375 
Q 3.09375 29.59375 3.09375 29.703125 
Q 3.09375 30.09375 4.296875 30.90625 
Q 20.09375 41.703125 29.4375 54.453125 
Q 38.796875 67.203125 43.203125 82.90625 
Q 49.203125 81.5 53.796875 80.203125 
Q 58.40625 78.90625 59.75 78.25 
Q 61.09375 77.59375 61.09375 76.84375 
Q 61.09375 76.09375 59.59375 75.59375 
Q 58.09375 75.09375 55.703125 72.5 
Q 60.703125 63.296875 72.140625 56.5 
Q 83.59375 49.703125 99.59375 46.5 
Q 100.703125 46.296875 100.703125 45.796875 
Q 100.703125 45.296875 99.5 45 
Q 96.296875 44.203125 93.296875 41.046875 
Q 90.296875 37.90625 88.5 33.90625 
Q 88.203125 33.203125 87.59375 33.203125 
Q 86.203125 33.203125 76.453125 39.546875 
Q 66.703125 45.90625 61.5 53.34375 
Q 56.296875 60.796875 53.90625 70.5 
z
M 43.796875 52.203125 
Q 59.5 50.703125 59.5 48.703125 
Q 59.5 47.796875 57.09375 46.40625 
L 57.09375 2.296875 
Q 57.09375 -1 57.203125 -4.703125 
L 57.40625 -8.09375 
Q 57.40625 -8.796875 56.75 -9.5 
Q 56.09375 -10.203125 53.046875 -10.890625 
Q 50 -11.59375 46.84375 -11.59375 
Q 43.703125 -11.59375 43.703125 -9.703125 
L 43.90625 -5.796875 
Q 44 -1.796875 44 3.203125 
L 44 43.296875 
Q 44 48.296875 43.796875 52.203125 
z
" id="STSongti-SC-Black-20010"/>
      <path d="M 2.90625 74.703125 
Q 8 71.296875 12.59375 66.890625 
Q 17.203125 62.5 20.640625 57.046875 
Q 24.09375 51.59375 26.09375 45.046875 
Q 28.09375 38.5 28.09375 30.796875 
Q 28.09375 23.09375 26.09375 16.59375 
Q 24.09375 10.09375 20.640625 4.59375 
Q 17.203125 -0.90625 12.703125 -5.453125 
Q 8.203125 -10 3.09375 -13.703125 
L 1.90625 -11.40625 
Q 6.40625 -7.5 9.34375 -2.09375 
Q 12.296875 3.296875 14.046875 9.09375 
Q 15.796875 14.90625 16.546875 20.453125 
Q 17.296875 26 17.296875 30.40625 
Q 17.296875 34.703125 16.6875 40.09375 
Q 16.09375 45.5 14.390625 51.09375 
Q 12.703125 56.703125 9.59375 62.140625 
Q 6.5 67.59375 1.59375 72.09375 
z
" id="STSongti-SC-Black-41"/>
     </defs>
     <g transform="translate(14.610896 142.219375)rotate(-90)scale(0.14 -0.14)">
      <use xlink:href="#STSongti-SC-Black-67"/>
      <use x="63.599991" xlink:href="#STSongti-SC-Black-111"/>
      <use x="111.999985" xlink:href="#STSongti-SC-Black-117"/>
      <use x="164.799973" xlink:href="#STSongti-SC-Black-110"/>
      <use x="217.799957" xlink:href="#STSongti-SC-Black-116"/>
      <use x="251.999954" xlink:href="#STSongti-SC-Black-115"/>
      <use x="287.899948" xlink:href="#STSongti-SC-Black-32"/>
      <use x="312.899933" xlink:href="#STSongti-SC-Black-40"/>
      <use x="342.09993" xlink:href="#STSongti-SC-Black-20010"/>
      <use x="442.099915" xlink:href="#STSongti-SC-Black-41"/>
     </g>
    </g>
   </g>
   <g id="line2d_19">
    <path clip-path="url(#p4856444b41)" d="M 54.66614 198.122854 
L 54.66614 197.109802 
" style="fill:none;stroke:#009afa;stroke-linecap:round;"/>
   </g>
   <g id="line2d_20">
    <path clip-path="url(#p4856444b41)" d="M 56.162401 198.122854 
L 56.162401 198.122854 
" style="fill:none;stroke:#009afa;stroke-linecap:round;"/>
   </g>
   <g id="line2d_21">
    <path clip-path="url(#p4856444b41)" d="M 57.658662 198.122854 
L 57.658662 198.122854 
" style="fill:none;stroke:#009afa;stroke-linecap:round;"/>
   </g>
   <g id="line2d_22">
    <path clip-path="url(#p4856444b41)" d="M 59.154923 198.122854 
L 59.154923 198.122854 
" style="fill:none;stroke:#009afa;stroke-linecap:round;"/>
   </g>
   <g id="line2d_23">
    <path clip-path="url(#p4856444b41)" d="M 60.651185 198.122854 
L 60.651185 198.122854 
" style="fill:none;stroke:#009afa;stroke-linecap:round;"/>
   </g>
   <g id="line2d_24">
    <path clip-path="url(#p4856444b41)" d="M 62.147446 198.122854 
L 62.147446 198.122854 
" style="fill:none;stroke:#009afa;stroke-linecap:round;"/>
   </g>
   <g id="line2d_25">
    <path clip-path="url(#p4856444b41)" d="M 63.643707 198.122854 
L 63.643707 198.122854 
" style="fill:none;stroke:#009afa;stroke-linecap:round;"/>
   </g>
   <g id="line2d_26">
    <path clip-path="url(#p4856444b41)" d="M 65.139968 198.122854 
L 65.139968 198.122854 
" style="fill:none;stroke:#009afa;stroke-linecap:round;"/>
   </g>
   <g id="line2d_27">
    <path clip-path="url(#p4856444b41)" d="M 66.636229 198.122854 
L 66.636229 198.122854 
" style="fill:none;stroke:#009afa;stroke-linecap:round;"/>
   </g>
   <g id="line2d_28">
    <path clip-path="url(#p4856444b41)" d="M 68.132491 198.122854 
L 68.132491 198.122854 
" style="fill:none;stroke:#009afa;stroke-linecap:round;"/>
   </g>
   <g id="line2d_29">
    <path clip-path="url(#p4856444b41)" d="M 69.628752 198.122854 
L 69.628752 198.122854 
" style="fill:none;stroke:#009afa;stroke-linecap:round;"/>
   </g>
   <g id="line2d_30">
    <path clip-path="url(#p4856444b41)" d="M 71.125013 198.122854 
L 71.125013 198.122854 
" style="fill:none;stroke:#009afa;stroke-linecap:round;"/>
   </g>
   <g id="line2d_31">
    <path clip-path="url(#p4856444b41)" d="M 72.621274 198.122854 
L 72.621274 198.122854 
" style="fill:none;stroke:#009afa;stroke-linecap:round;"/>
   </g>
   <g id="line2d_32">
    <path clip-path="url(#p4856444b41)" d="M 74.117535 198.122854 
L 74.117535 198.122854 
" style="fill:none;stroke:#009afa;stroke-linecap:round;"/>
   </g>
   <g id="line2d_33">
    <path clip-path="url(#p4856444b41)" d="M 75.613797 198.122854 
L 75.613797 198.122854 
" style="fill:none;stroke:#009afa;stroke-linecap:round;"/>
   </g>
   <g id="line2d_34">
    <path clip-path="url(#p4856444b41)" d="M 77.110058 198.122854 
L 77.110058 198.122854 
" style="fill:none;stroke:#009afa;stroke-linecap:round;"/>
   </g>
   <g id="line2d_35">
    <path clip-path="url(#p4856444b41)" d="M 78.606319 198.122854 
L 78.606319 198.122854 
" style="fill:none;stroke:#009afa;stroke-linecap:round;"/>
   </g>
   <g id="line2d_36">
    <path clip-path="url(#p4856444b41)" d="M 80.10258 198.122854 
L 80.10258 198.122854 
" style="fill:none;stroke:#009afa;stroke-linecap:round;"/>
   </g>
   <g id="line2d_37">
    <path clip-path="url(#p4856444b41)" d="M 81.598841 198.122854 
L 81.598841 198.122854 
" style="fill:none;stroke:#009afa;stroke-linecap:round;"/>
   </g>
   <g id="line2d_38">
    <path clip-path="url(#p4856444b41)" d="M 83.095102 198.122854 
L 83.095102 198.122854 
" style="fill:none;stroke:#009afa;stroke-linecap:round;"/>
   </g>
   <g id="line2d_39">
    <path clip-path="url(#p4856444b41)" d="M 84.591364 198.122854 
L 84.591364 198.122854 
" style="fill:none;stroke:#009afa;stroke-linecap:round;"/>
   </g>
   <g id="line2d_40">
    <path clip-path="url(#p4856444b41)" d="M 86.087625 198.122854 
L 86.087625 198.122854 
" style="fill:none;stroke:#009afa;stroke-linecap:round;"/>
   </g>
   <g id="line2d_41">
    <path clip-path="url(#p4856444b41)" d="M 87.583886 198.122854 
L 87.583886 198.122854 
" style="fill:none;stroke:#009afa;stroke-linecap:round;"/>
   </g>
   <g id="line2d_42">
    <path clip-path="url(#p4856444b41)" d="M 89.080147 198.122854 
L 89.080147 198.122854 
" style="fill:none;stroke:#009afa;stroke-linecap:round;"/>
   </g>
   <g id="line2d_43">
    <path clip-path="url(#p4856444b41)" d="M 90.576408 198.122854 
L 90.576408 198.122854 
" style="fill:none;stroke:#009afa;stroke-linecap:round;"/>
   </g>
   <g id="line2d_44">
    <path clip-path="url(#p4856444b41)" d="M 92.07267 198.122854 
L 92.07267 198.122854 
" style="fill:none;stroke:#009afa;stroke-linecap:round;"/>
   </g>
   <g id="line2d_45">
    <path clip-path="url(#p4856444b41)" d="M 93.568931 198.122854 
L 93.568931 198.122854 
" style="fill:none;stroke:#009afa;stroke-linecap:round;"/>
   </g>
   <g id="line2d_46">
    <path clip-path="url(#p4856444b41)" d="M 95.065192 198.122854 
L 95.065192 198.122854 
" style="fill:none;stroke:#009afa;stroke-linecap:round;"/>
   </g>
   <g id="line2d_47">
    <path clip-path="url(#p4856444b41)" d="M 96.561453 198.122854 
L 96.561453 198.122854 
" style="fill:none;stroke:#009afa;stroke-linecap:round;"/>
   </g>
   <g id="line2d_48">
    <path clip-path="url(#p4856444b41)" d="M 98.057714 198.122854 
L 98.057714 198.122854 
" style="fill:none;stroke:#009afa;stroke-linecap:round;"/>
   </g>
   <g id="line2d_49">
    <path clip-path="url(#p4856444b41)" d="M 99.553976 198.122854 
L 99.553976 197.616328 
" style="fill:none;stroke:#009afa;stroke-linecap:round;"/>
   </g>
   <g id="line2d_50">
    <path clip-path="url(#p4856444b41)" d="M 101.050237 198.122854 
L 101.050237 197.616328 
" style="fill:none;stroke:#009afa;stroke-linecap:round;"/>
   </g>
   <g id="line2d_51">
    <path clip-path="url(#p4856444b41)" d="M 102.546498 198.122854 
L 102.546498 198.122854 
" style="fill:none;stroke:#009afa;stroke-linecap:round;"/>
   </g>
   <g id="line2d_52">
    <path clip-path="url(#p4856444b41)" d="M 104.042759 198.122854 
L 104.042759 198.122854 
" style="fill:none;stroke:#009afa;stroke-linecap:round;"/>
   </g>
   <g id="line2d_53">
    <path clip-path="url(#p4856444b41)" d="M 105.53902 198.122854 
L 105.53902 198.122854 
" style="fill:none;stroke:#009afa;stroke-linecap:round;"/>
   </g>
   <g id="line2d_54">
    <path clip-path="url(#p4856444b41)" d="M 107.035282 198.122854 
L 107.035282 198.122854 
" style="fill:none;stroke:#009afa;stroke-linecap:round;"/>
   </g>
   <g id="line2d_55">
    <path clip-path="url(#p4856444b41)" d="M 108.531543 198.122854 
L 108.531543 198.122854 
" style="fill:none;stroke:#009afa;stroke-linecap:round;"/>
   </g>
   <g id="line2d_56">
    <path clip-path="url(#p4856444b41)" d="M 110.027804 198.122854 
L 110.027804 198.122854 
" style="fill:none;stroke:#009afa;stroke-linecap:round;"/>
   </g>
   <g id="line2d_57">
    <path clip-path="url(#p4856444b41)" d="M 111.524065 198.122854 
L 111.524065 198.122854 
" style="fill:none;stroke:#009afa;stroke-linecap:round;"/>
   </g>
   <g id="line2d_58">
    <path clip-path="url(#p4856444b41)" d="M 113.020326 198.122854 
L 113.020326 198.122854 
" style="fill:none;stroke:#009afa;stroke-linecap:round;"/>
   </g>
   <g id="line2d_59">
    <path clip-path="url(#p4856444b41)" d="M 114.516588 198.122854 
L 114.516588 198.122854 
" style="fill:none;stroke:#009afa;stroke-linecap:round;"/>
   </g>
   <g id="line2d_60">
    <path clip-path="url(#p4856444b41)" d="M 116.012849 198.122854 
L 116.012849 198.122854 
" style="fill:none;stroke:#009afa;stroke-linecap:round;"/>
   </g>
   <g id="line2d_61">
    <path clip-path="url(#p4856444b41)" d="M 117.50911 198.122854 
L 117.50911 198.122854 
" style="fill:none;stroke:#009afa;stroke-linecap:round;"/>
   </g>
   <g id="line2d_62">
    <path clip-path="url(#p4856444b41)" d="M 119.005371 198.122854 
L 119.005371 198.122854 
" style="fill:none;stroke:#009afa;stroke-linecap:round;"/>
   </g>
   <g id="line2d_63">
    <path clip-path="url(#p4856444b41)" d="M 120.501632 198.122854 
L 120.501632 197.616328 
" style="fill:none;stroke:#009afa;stroke-linecap:round;"/>
   </g>
   <g id="line2d_64">
    <path clip-path="url(#p4856444b41)" d="M 121.997894 198.122854 
L 121.997894 198.122854 
" style="fill:none;stroke:#009afa;stroke-linecap:round;"/>
   </g>
   <g id="line2d_65">
    <path clip-path="url(#p4856444b41)" d="M 123.494155 198.122854 
L 123.494155 198.122854 
" style="fill:none;stroke:#009afa;stroke-linecap:round;"/>
   </g>
   <g id="line2d_66">
    <path clip-path="url(#p4856444b41)" d="M 124.990416 198.122854 
L 124.990416 198.122854 
" style="fill:none;stroke:#009afa;stroke-linecap:round;"/>
   </g>
   <g id="line2d_67">
    <path clip-path="url(#p4856444b41)" d="M 126.486677 198.122854 
L 126.486677 197.109802 
" style="fill:none;stroke:#009afa;stroke-linecap:round;"/>
   </g>
   <g id="line2d_68">
    <path clip-path="url(#p4856444b41)" d="M 127.982938 198.122854 
L 127.982938 197.616328 
" style="fill:none;stroke:#009afa;stroke-linecap:round;"/>
   </g>
   <g id="line2d_69">
    <path clip-path="url(#p4856444b41)" d="M 129.4792 198.122854 
L 129.4792 198.122854 
" style="fill:none;stroke:#009afa;stroke-linecap:round;"/>
   </g>
   <g id="line2d_70">
    <path clip-path="url(#p4856444b41)" d="M 130.975461 198.122854 
L 130.975461 198.122854 
" style="fill:none;stroke:#009afa;stroke-linecap:round;"/>
   </g>
   <g id="line2d_71">
    <path clip-path="url(#p4856444b41)" d="M 132.471722 198.122854 
L 132.471722 194.070644 
" style="fill:none;stroke:#009afa;stroke-linecap:round;"/>
   </g>
   <g id="line2d_72">
    <path clip-path="url(#p4856444b41)" d="M 133.967983 198.122854 
L 133.967983 196.096749 
" style="fill:none;stroke:#009afa;stroke-linecap:round;"/>
   </g>
   <g id="line2d_73">
    <path clip-path="url(#p4856444b41)" d="M 135.464244 198.122854 
L 135.464244 192.04454 
" style="fill:none;stroke:#009afa;stroke-linecap:round;"/>
   </g>
   <g id="line2d_74">
    <path clip-path="url(#p4856444b41)" d="M 136.960506 198.122854 
L 136.960506 197.616328 
" style="fill:none;stroke:#009afa;stroke-linecap:round;"/>
   </g>
   <g id="line2d_75">
    <path clip-path="url(#p4856444b41)" d="M 138.456767 198.122854 
L 138.456767 198.122854 
" style="fill:none;stroke:#009afa;stroke-linecap:round;"/>
   </g>
   <g id="line2d_76">
    <path clip-path="url(#p4856444b41)" d="M 139.953028 198.122854 
L 139.953028 198.122854 
" style="fill:none;stroke:#009afa;stroke-linecap:round;"/>
   </g>
   <g id="line2d_77">
    <path clip-path="url(#p4856444b41)" d="M 141.449289 198.122854 
L 141.449289 198.122854 
" style="fill:none;stroke:#009afa;stroke-linecap:round;"/>
   </g>
   <g id="line2d_78">
    <path clip-path="url(#p4856444b41)" d="M 142.94555 198.122854 
L 142.94555 198.122854 
" style="fill:none;stroke:#009afa;stroke-linecap:round;"/>
   </g>
   <g id="line2d_79">
    <path clip-path="url(#p4856444b41)" d="M 144.441811 198.122854 
L 144.441811 198.122854 
" style="fill:none;stroke:#009afa;stroke-linecap:round;"/>
   </g>
   <g id="line2d_80">
    <path clip-path="url(#p4856444b41)" d="M 145.938073 198.122854 
L 145.938073 198.122854 
" style="fill:none;stroke:#009afa;stroke-linecap:round;"/>
   </g>
   <g id="line2d_81">
    <path clip-path="url(#p4856444b41)" d="M 147.434334 198.122854 
L 147.434334 198.122854 
" style="fill:none;stroke:#009afa;stroke-linecap:round;"/>
   </g>
   <g id="line2d_82">
    <path clip-path="url(#p4856444b41)" d="M 148.930595 198.122854 
L 148.930595 196.603276 
" style="fill:none;stroke:#009afa;stroke-linecap:round;"/>
   </g>
   <g id="line2d_83">
    <path clip-path="url(#p4856444b41)" d="M 150.426856 198.122854 
L 150.426856 196.603276 
" style="fill:none;stroke:#009afa;stroke-linecap:round;"/>
   </g>
   <g id="line2d_84">
    <path clip-path="url(#p4856444b41)" d="M 151.923117 198.122854 
L 151.923117 194.577171 
" style="fill:none;stroke:#009afa;stroke-linecap:round;"/>
   </g>
   <g id="line2d_85">
    <path clip-path="url(#p4856444b41)" d="M 153.419379 198.122854 
L 153.419379 190.018435 
" style="fill:none;stroke:#009afa;stroke-linecap:round;"/>
   </g>
   <g id="line2d_86">
    <path clip-path="url(#p4856444b41)" d="M 154.91564 198.122854 
L 154.91564 194.070644 
" style="fill:none;stroke:#009afa;stroke-linecap:round;"/>
   </g>
   <g id="line2d_87">
    <path clip-path="url(#p4856444b41)" d="M 156.411901 198.122854 
L 156.411901 197.616328 
" style="fill:none;stroke:#009afa;stroke-linecap:round;"/>
   </g>
   <g id="line2d_88">
    <path clip-path="url(#p4856444b41)" d="M 157.908162 198.122854 
L 157.908162 196.096749 
" style="fill:none;stroke:#009afa;stroke-linecap:round;"/>
   </g>
   <g id="line2d_89">
    <path clip-path="url(#p4856444b41)" d="M 159.404423 198.122854 
L 159.404423 197.109802 
" style="fill:none;stroke:#009afa;stroke-linecap:round;"/>
   </g>
   <g id="line2d_90">
    <path clip-path="url(#p4856444b41)" d="M 160.900685 198.122854 
L 160.900685 198.122854 
" style="fill:none;stroke:#009afa;stroke-linecap:round;"/>
   </g>
   <g id="line2d_91">
    <path clip-path="url(#p4856444b41)" d="M 162.396946 198.122854 
L 162.396946 198.122854 
" style="fill:none;stroke:#009afa;stroke-linecap:round;"/>
   </g>
   <g id="line2d_92">
    <path clip-path="url(#p4856444b41)" d="M 163.893207 198.122854 
L 163.893207 198.122854 
" style="fill:none;stroke:#009afa;stroke-linecap:round;"/>
   </g>
   <g id="line2d_93">
    <path clip-path="url(#p4856444b41)" d="M 165.389468 198.122854 
L 165.389468 198.122854 
" style="fill:none;stroke:#009afa;stroke-linecap:round;"/>
   </g>
   <g id="line2d_94">
    <path clip-path="url(#p4856444b41)" d="M 166.885729 198.122854 
L 166.885729 196.096749 
" style="fill:none;stroke:#009afa;stroke-linecap:round;"/>
   </g>
   <g id="line2d_95">
    <path clip-path="url(#p4856444b41)" d="M 168.381991 198.122854 
L 168.381991 196.603276 
" style="fill:none;stroke:#009afa;stroke-linecap:round;"/>
   </g>
   <g id="line2d_96">
    <path clip-path="url(#p4856444b41)" d="M 169.878252 198.122854 
L 169.878252 196.096749 
" style="fill:none;stroke:#009afa;stroke-linecap:round;"/>
   </g>
   <g id="line2d_97">
    <path clip-path="url(#p4856444b41)" d="M 171.374513 198.122854 
L 171.374513 194.070644 
" style="fill:none;stroke:#009afa;stroke-linecap:round;"/>
   </g>
   <g id="line2d_98">
    <path clip-path="url(#p4856444b41)" d="M 172.870774 198.122854 
L 172.870774 194.577171 
" style="fill:none;stroke:#009afa;stroke-linecap:round;"/>
   </g>
   <g id="line2d_99">
    <path clip-path="url(#p4856444b41)" d="M 174.367035 198.122854 
L 174.367035 198.122854 
" style="fill:none;stroke:#009afa;stroke-linecap:round;"/>
   </g>
   <g id="line2d_100">
    <path clip-path="url(#p4856444b41)" d="M 175.863297 198.122854 
L 175.863297 197.109802 
" style="fill:none;stroke:#009afa;stroke-linecap:round;"/>
   </g>
   <g id="line2d_101">
    <path clip-path="url(#p4856444b41)" d="M 177.359558 198.122854 
L 177.359558 197.616328 
" style="fill:none;stroke:#009afa;stroke-linecap:round;"/>
   </g>
   <g id="line2d_102">
    <path clip-path="url(#p4856444b41)" d="M 178.855819 198.122854 
L 178.855819 198.122854 
" style="fill:none;stroke:#009afa;stroke-linecap:round;"/>
   </g>
   <g id="line2d_103">
    <path clip-path="url(#p4856444b41)" d="M 180.35208 198.122854 
L 180.35208 198.122854 
" style="fill:none;stroke:#009afa;stroke-linecap:round;"/>
   </g>
   <g id="line2d_104">
    <path clip-path="url(#p4856444b41)" d="M 181.848341 198.122854 
L 181.848341 198.122854 
" style="fill:none;stroke:#009afa;stroke-linecap:round;"/>
   </g>
   <g id="line2d_105">
    <path clip-path="url(#p4856444b41)" d="M 183.344603 198.122854 
L 183.344603 198.122854 
" style="fill:none;stroke:#009afa;stroke-linecap:round;"/>
   </g>
   <g id="line2d_106">
    <path clip-path="url(#p4856444b41)" d="M 184.840864 198.122854 
L 184.840864 198.122854 
" style="fill:none;stroke:#009afa;stroke-linecap:round;"/>
   </g>
   <g id="line2d_107">
    <path clip-path="url(#p4856444b41)" d="M 186.337125 198.122854 
L 186.337125 196.603276 
" style="fill:none;stroke:#009afa;stroke-linecap:round;"/>
   </g>
   <g id="line2d_108">
    <path clip-path="url(#p4856444b41)" d="M 187.833386 198.122854 
L 187.833386 198.122854 
" style="fill:none;stroke:#009afa;stroke-linecap:round;"/>
   </g>
   <g id="line2d_109">
    <path clip-path="url(#p4856444b41)" d="M 189.329647 198.122854 
L 189.329647 186.472751 
" style="fill:none;stroke:#009afa;stroke-linecap:round;"/>
   </g>
   <g id="line2d_110">
    <path clip-path="url(#p4856444b41)" d="M 190.825909 198.122854 
L 190.825909 195.590223 
" style="fill:none;stroke:#009afa;stroke-linecap:round;"/>
   </g>
   <g id="line2d_111">
    <path clip-path="url(#p4856444b41)" d="M 192.32217 198.122854 
L 192.32217 198.122854 
" style="fill:none;stroke:#009afa;stroke-linecap:round;"/>
   </g>
   <g id="line2d_112">
    <path clip-path="url(#p4856444b41)" d="M 193.818431 198.122854 
L 193.818431 190.524961 
" style="fill:none;stroke:#009afa;stroke-linecap:round;"/>
   </g>
   <g id="line2d_113">
    <path clip-path="url(#p4856444b41)" d="M 195.314692 198.122854 
L 195.314692 198.122854 
" style="fill:none;stroke:#009afa;stroke-linecap:round;"/>
   </g>
   <g id="line2d_114">
    <path clip-path="url(#p4856444b41)" d="M 196.810953 198.122854 
L 196.810953 198.122854 
" style="fill:none;stroke:#009afa;stroke-linecap:round;"/>
   </g>
   <g id="line2d_115">
    <path clip-path="url(#p4856444b41)" d="M 198.307215 198.122854 
L 198.307215 198.122854 
" style="fill:none;stroke:#009afa;stroke-linecap:round;"/>
   </g>
   <g id="line2d_116">
    <path clip-path="url(#p4856444b41)" d="M 199.803476 198.122854 
L 199.803476 198.122854 
" style="fill:none;stroke:#009afa;stroke-linecap:round;"/>
   </g>
   <g id="line2d_117">
    <path clip-path="url(#p4856444b41)" d="M 201.299737 198.122854 
L 201.299737 198.122854 
" style="fill:none;stroke:#009afa;stroke-linecap:round;"/>
   </g>
   <g id="line2d_118">
    <path clip-path="url(#p4856444b41)" d="M 202.795998 198.122854 
L 202.795998 197.109802 
" style="fill:none;stroke:#009afa;stroke-linecap:round;"/>
   </g>
   <g id="line2d_119">
    <path clip-path="url(#p4856444b41)" d="M 204.292259 198.122854 
L 204.292259 198.122854 
" style="fill:none;stroke:#009afa;stroke-linecap:round;"/>
   </g>
   <g id="line2d_120">
    <path clip-path="url(#p4856444b41)" d="M 205.78852 198.122854 
L 205.78852 198.122854 
" style="fill:none;stroke:#009afa;stroke-linecap:round;"/>
   </g>
   <g id="line2d_121">
    <path clip-path="url(#p4856444b41)" d="M 207.284782 198.122854 
L 207.284782 198.122854 
" style="fill:none;stroke:#009afa;stroke-linecap:round;"/>
   </g>
   <g id="line2d_122">
    <path clip-path="url(#p4856444b41)" d="M 208.781043 198.122854 
L 208.781043 196.096749 
" style="fill:none;stroke:#009afa;stroke-linecap:round;"/>
   </g>
   <g id="line2d_123">
    <path clip-path="url(#p4856444b41)" d="M 210.277304 198.122854 
L 210.277304 198.122854 
" style="fill:none;stroke:#009afa;stroke-linecap:round;"/>
   </g>
   <g id="line2d_124">
    <path clip-path="url(#p4856444b41)" d="M 211.773565 198.122854 
L 211.773565 198.122854 
" style="fill:none;stroke:#009afa;stroke-linecap:round;"/>
   </g>
   <g id="line2d_125">
    <path clip-path="url(#p4856444b41)" d="M 213.269826 198.122854 
L 213.269826 197.616328 
" style="fill:none;stroke:#009afa;stroke-linecap:round;"/>
   </g>
   <g id="line2d_126">
    <path clip-path="url(#p4856444b41)" d="M 214.766088 198.122854 
L 214.766088 198.122854 
" style="fill:none;stroke:#009afa;stroke-linecap:round;"/>
   </g>
   <g id="line2d_127">
    <path clip-path="url(#p4856444b41)" d="M 216.262349 198.122854 
L 216.262349 198.122854 
" style="fill:none;stroke:#009afa;stroke-linecap:round;"/>
   </g>
   <g id="line2d_128">
    <path clip-path="url(#p4856444b41)" d="M 217.75861 198.122854 
L 217.75861 198.122854 
" style="fill:none;stroke:#009afa;stroke-linecap:round;"/>
   </g>
   <g id="line2d_129">
    <path clip-path="url(#p4856444b41)" d="M 219.254871 198.122854 
L 219.254871 198.122854 
" style="fill:none;stroke:#009afa;stroke-linecap:round;"/>
   </g>
   <g id="line2d_130">
    <path clip-path="url(#p4856444b41)" d="M 220.751132 198.122854 
L 220.751132 197.616328 
" style="fill:none;stroke:#009afa;stroke-linecap:round;"/>
   </g>
   <g id="line2d_131">
    <path clip-path="url(#p4856444b41)" d="M 222.247394 198.122854 
L 222.247394 195.590223 
" style="fill:none;stroke:#009afa;stroke-linecap:round;"/>
   </g>
   <g id="line2d_132">
    <path clip-path="url(#p4856444b41)" d="M 223.743655 198.122854 
L 223.743655 196.096749 
" style="fill:none;stroke:#009afa;stroke-linecap:round;"/>
   </g>
   <g id="line2d_133">
    <path clip-path="url(#p4856444b41)" d="M 225.239916 198.122854 
L 225.239916 195.083697 
" style="fill:none;stroke:#009afa;stroke-linecap:round;"/>
   </g>
   <g id="line2d_134">
    <path clip-path="url(#p4856444b41)" d="M 226.736177 198.122854 
L 226.736177 198.122854 
" style="fill:none;stroke:#009afa;stroke-linecap:round;"/>
   </g>
   <g id="line2d_135">
    <path clip-path="url(#p4856444b41)" d="M 228.232438 198.122854 
L 228.232438 197.616328 
" style="fill:none;stroke:#009afa;stroke-linecap:round;"/>
   </g>
   <g id="line2d_136">
    <path clip-path="url(#p4856444b41)" d="M 229.7287 198.122854 
L 229.7287 198.122854 
" style="fill:none;stroke:#009afa;stroke-linecap:round;"/>
   </g>
   <g id="line2d_137">
    <path clip-path="url(#p4856444b41)" d="M 231.224961 198.122854 
L 231.224961 197.616328 
" style="fill:none;stroke:#009afa;stroke-linecap:round;"/>
   </g>
   <g id="line2d_138">
    <path clip-path="url(#p4856444b41)" d="M 232.721222 198.122854 
L 232.721222 198.122854 
" style="fill:none;stroke:#009afa;stroke-linecap:round;"/>
   </g>
   <g id="line2d_139">
    <path clip-path="url(#p4856444b41)" d="M 234.217483 198.122854 
L 234.217483 198.122854 
" style="fill:none;stroke:#009afa;stroke-linecap:round;"/>
   </g>
   <g id="line2d_140">
    <path clip-path="url(#p4856444b41)" d="M 235.713744 198.122854 
L 235.713744 198.122854 
" style="fill:none;stroke:#009afa;stroke-linecap:round;"/>
   </g>
   <g id="line2d_141">
    <path clip-path="url(#p4856444b41)" d="M 237.210006 198.122854 
L 237.210006 198.122854 
" style="fill:none;stroke:#009afa;stroke-linecap:round;"/>
   </g>
   <g id="line2d_142">
    <path clip-path="url(#p4856444b41)" d="M 238.706267 198.122854 
L 238.706267 198.122854 
" style="fill:none;stroke:#009afa;stroke-linecap:round;"/>
   </g>
   <g id="line2d_143">
    <path clip-path="url(#p4856444b41)" d="M 240.202528 198.122854 
L 240.202528 198.122854 
" style="fill:none;stroke:#009afa;stroke-linecap:round;"/>
   </g>
   <g id="line2d_144">
    <path clip-path="url(#p4856444b41)" d="M 241.698789 198.122854 
L 241.698789 197.616328 
" style="fill:none;stroke:#009afa;stroke-linecap:round;"/>
   </g>
   <g id="line2d_145">
    <path clip-path="url(#p4856444b41)" d="M 243.19505 198.122854 
L 243.19505 183.94012 
" style="fill:none;stroke:#009afa;stroke-linecap:round;"/>
   </g>
   <g id="line2d_146">
    <path clip-path="url(#p4856444b41)" d="M 244.691312 198.122854 
L 244.691312 189.511908 
" style="fill:none;stroke:#009afa;stroke-linecap:round;"/>
   </g>
   <g id="line2d_147">
    <path clip-path="url(#p4856444b41)" d="M 246.187573 198.122854 
L 246.187573 192.04454 
" style="fill:none;stroke:#009afa;stroke-linecap:round;"/>
   </g>
   <g id="line2d_148">
    <path clip-path="url(#p4856444b41)" d="M 247.683834 198.122854 
L 247.683834 193.057592 
" style="fill:none;stroke:#009afa;stroke-linecap:round;"/>
   </g>
   <g id="line2d_149">
    <path clip-path="url(#p4856444b41)" d="M 249.180095 198.122854 
L 249.180095 197.616328 
" style="fill:none;stroke:#009afa;stroke-linecap:round;"/>
   </g>
   <g id="line2d_150">
    <path clip-path="url(#p4856444b41)" d="M 250.676356 198.122854 
L 250.676356 198.122854 
" style="fill:none;stroke:#009afa;stroke-linecap:round;"/>
   </g>
   <g id="line2d_151">
    <path clip-path="url(#p4856444b41)" d="M 252.172618 198.122854 
L 252.172618 198.122854 
" style="fill:none;stroke:#009afa;stroke-linecap:round;"/>
   </g>
   <g id="line2d_152">
    <path clip-path="url(#p4856444b41)" d="M 253.668879 198.122854 
L 253.668879 198.122854 
" style="fill:none;stroke:#009afa;stroke-linecap:round;"/>
   </g>
   <g id="line2d_153">
    <path clip-path="url(#p4856444b41)" d="M 255.16514 198.122854 
L 255.16514 197.616328 
" style="fill:none;stroke:#009afa;stroke-linecap:round;"/>
   </g>
   <g id="line2d_154">
    <path clip-path="url(#p4856444b41)" d="M 256.661401 198.122854 
L 256.661401 196.096749 
" style="fill:none;stroke:#009afa;stroke-linecap:round;"/>
   </g>
   <g id="line2d_155">
    <path clip-path="url(#p4856444b41)" d="M 258.157662 198.122854 
L 258.157662 195.590223 
" style="fill:none;stroke:#009afa;stroke-linecap:round;"/>
   </g>
   <g id="line2d_156">
    <path clip-path="url(#p4856444b41)" d="M 259.653924 198.122854 
L 259.653924 182.927067 
" style="fill:none;stroke:#009afa;stroke-linecap:round;"/>
   </g>
   <g id="line2d_157">
    <path clip-path="url(#p4856444b41)" d="M 261.150185 198.122854 
L 261.150185 180.394436 
" style="fill:none;stroke:#009afa;stroke-linecap:round;"/>
   </g>
   <g id="line2d_158">
    <path clip-path="url(#p4856444b41)" d="M 262.646446 198.122854 
L 262.646446 196.096749 
" style="fill:none;stroke:#009afa;stroke-linecap:round;"/>
   </g>
   <g id="line2d_159">
    <path clip-path="url(#p4856444b41)" d="M 264.142707 198.122854 
L 264.142707 196.603276 
" style="fill:none;stroke:#009afa;stroke-linecap:round;"/>
   </g>
   <g id="line2d_160">
    <path clip-path="url(#p4856444b41)" d="M 265.638968 198.122854 
L 265.638968 197.616328 
" style="fill:none;stroke:#009afa;stroke-linecap:round;"/>
   </g>
   <g id="line2d_161">
    <path clip-path="url(#p4856444b41)" d="M 267.13523 198.122854 
L 267.13523 197.616328 
" style="fill:none;stroke:#009afa;stroke-linecap:round;"/>
   </g>
   <g id="line2d_162">
    <path clip-path="url(#p4856444b41)" d="M 268.631491 198.122854 
L 268.631491 197.616328 
" style="fill:none;stroke:#009afa;stroke-linecap:round;"/>
   </g>
   <g id="line2d_163">
    <path clip-path="url(#p4856444b41)" d="M 270.127752 198.122854 
L 270.127752 197.616328 
" style="fill:none;stroke:#009afa;stroke-linecap:round;"/>
   </g>
   <g id="line2d_164">
    <path clip-path="url(#p4856444b41)" d="M 271.624013 198.122854 
L 271.624013 198.122854 
" style="fill:none;stroke:#009afa;stroke-linecap:round;"/>
   </g>
   <g id="line2d_165">
    <path clip-path="url(#p4856444b41)" d="M 273.120274 198.122854 
L 273.120274 197.616328 
" style="fill:none;stroke:#009afa;stroke-linecap:round;"/>
   </g>
   <g id="line2d_166">
    <path clip-path="url(#p4856444b41)" d="M 274.616535 198.122854 
L 274.616535 179.381384 
" style="fill:none;stroke:#009afa;stroke-linecap:round;"/>
   </g>
   <g id="line2d_167">
    <path clip-path="url(#p4856444b41)" d="M 276.112797 198.122854 
L 276.112797 196.096749 
" style="fill:none;stroke:#009afa;stroke-linecap:round;"/>
   </g>
   <g id="line2d_168">
    <path clip-path="url(#p4856444b41)" d="M 277.609058 198.122854 
L 277.609058 187.99233 
" style="fill:none;stroke:#009afa;stroke-linecap:round;"/>
   </g>
   <g id="line2d_169">
    <path clip-path="url(#p4856444b41)" d="M 279.105319 198.122854 
L 279.105319 188.498856 
" style="fill:none;stroke:#009afa;stroke-linecap:round;"/>
   </g>
   <g id="line2d_170">
    <path clip-path="url(#p4856444b41)" d="M 280.60158 198.122854 
L 280.60158 192.551066 
" style="fill:none;stroke:#009afa;stroke-linecap:round;"/>
   </g>
   <g id="line2d_171">
    <path clip-path="url(#p4856444b41)" d="M 282.097841 198.122854 
L 282.097841 198.122854 
" style="fill:none;stroke:#009afa;stroke-linecap:round;"/>
   </g>
   <g id="line2d_172">
    <path clip-path="url(#p4856444b41)" d="M 283.594103 198.122854 
L 283.594103 197.109802 
" style="fill:none;stroke:#009afa;stroke-linecap:round;"/>
   </g>
   <g id="line2d_173">
    <path clip-path="url(#p4856444b41)" d="M 285.090364 198.122854 
L 285.090364 197.616328 
" style="fill:none;stroke:#009afa;stroke-linecap:round;"/>
   </g>
   <g id="line2d_174">
    <path clip-path="url(#p4856444b41)" d="M 286.586625 198.122854 
L 286.586625 198.122854 
" style="fill:none;stroke:#009afa;stroke-linecap:round;"/>
   </g>
   <g id="line2d_175">
    <path clip-path="url(#p4856444b41)" d="M 288.082886 198.122854 
L 288.082886 198.122854 
" style="fill:none;stroke:#009afa;stroke-linecap:round;"/>
   </g>
   <g id="line2d_176">
    <path clip-path="url(#p4856444b41)" d="M 289.579147 198.122854 
L 289.579147 194.577171 
" style="fill:none;stroke:#009afa;stroke-linecap:round;"/>
   </g>
   <g id="line2d_177">
    <path clip-path="url(#p4856444b41)" d="M 291.075409 198.122854 
L 291.075409 197.616328 
" style="fill:none;stroke:#009afa;stroke-linecap:round;"/>
   </g>
   <g id="line2d_178">
    <path clip-path="url(#p4856444b41)" d="M 292.57167 198.122854 
L 292.57167 197.109802 
" style="fill:none;stroke:#009afa;stroke-linecap:round;"/>
   </g>
   <g id="line2d_179">
    <path clip-path="url(#p4856444b41)" d="M 294.067931 198.122854 
L 294.067931 189.511908 
" style="fill:none;stroke:#009afa;stroke-linecap:round;"/>
   </g>
   <g id="line2d_180">
    <path clip-path="url(#p4856444b41)" d="M 295.564192 198.122854 
L 295.564192 195.083697 
" style="fill:none;stroke:#009afa;stroke-linecap:round;"/>
   </g>
   <g id="line2d_181">
    <path clip-path="url(#p4856444b41)" d="M 297.060453 198.122854 
L 297.060453 193.057592 
" style="fill:none;stroke:#009afa;stroke-linecap:round;"/>
   </g>
   <g id="line2d_182">
    <path clip-path="url(#p4856444b41)" d="M 298.556715 198.122854 
L 298.556715 189.005382 
" style="fill:none;stroke:#009afa;stroke-linecap:round;"/>
   </g>
   <g id="line2d_183">
    <path clip-path="url(#p4856444b41)" d="M 300.052976 198.122854 
L 300.052976 195.590223 
" style="fill:none;stroke:#009afa;stroke-linecap:round;"/>
   </g>
   <g id="line2d_184">
    <path clip-path="url(#p4856444b41)" d="M 301.549237 198.122854 
L 301.549237 186.979277 
" style="fill:none;stroke:#009afa;stroke-linecap:round;"/>
   </g>
   <g id="line2d_185">
    <path clip-path="url(#p4856444b41)" d="M 303.045498 198.122854 
L 303.045498 197.109802 
" style="fill:none;stroke:#009afa;stroke-linecap:round;"/>
   </g>
   <g id="line2d_186">
    <path clip-path="url(#p4856444b41)" d="M 304.541759 198.122854 
L 304.541759 197.109802 
" style="fill:none;stroke:#009afa;stroke-linecap:round;"/>
   </g>
   <g id="line2d_187">
    <path clip-path="url(#p4856444b41)" d="M 306.038021 198.122854 
L 306.038021 198.122854 
" style="fill:none;stroke:#009afa;stroke-linecap:round;"/>
   </g>
   <g id="line2d_188">
    <path clip-path="url(#p4856444b41)" d="M 307.534282 198.122854 
L 307.534282 197.109802 
" style="fill:none;stroke:#009afa;stroke-linecap:round;"/>
   </g>
   <g id="line2d_189">
    <path clip-path="url(#p4856444b41)" d="M 309.030543 198.122854 
L 309.030543 197.616328 
" style="fill:none;stroke:#009afa;stroke-linecap:round;"/>
   </g>
   <g id="line2d_190">
    <path clip-path="url(#p4856444b41)" d="M 310.526804 198.122854 
L 310.526804 194.577171 
" style="fill:none;stroke:#009afa;stroke-linecap:round;"/>
   </g>
   <g id="line2d_191">
    <path clip-path="url(#p4856444b41)" d="M 312.023065 198.122854 
L 312.023065 192.551066 
" style="fill:none;stroke:#009afa;stroke-linecap:round;"/>
   </g>
   <g id="line2d_192">
    <path clip-path="url(#p4856444b41)" d="M 313.519327 198.122854 
L 313.519327 186.979277 
" style="fill:none;stroke:#009afa;stroke-linecap:round;"/>
   </g>
   <g id="line2d_193">
    <path clip-path="url(#p4856444b41)" d="M 315.015588 198.122854 
L 315.015588 184.446646 
" style="fill:none;stroke:#009afa;stroke-linecap:round;"/>
   </g>
   <g id="line2d_194">
    <path clip-path="url(#p4856444b41)" d="M 316.511849 198.122854 
L 316.511849 183.94012 
" style="fill:none;stroke:#009afa;stroke-linecap:round;"/>
   </g>
   <g id="line2d_195">
    <path clip-path="url(#p4856444b41)" d="M 318.00811 198.122854 
L 318.00811 184.953172 
" style="fill:none;stroke:#009afa;stroke-linecap:round;"/>
   </g>
   <g id="line2d_196">
    <path clip-path="url(#p4856444b41)" d="M 319.504371 198.122854 
L 319.504371 191.538013 
" style="fill:none;stroke:#009afa;stroke-linecap:round;"/>
   </g>
   <g id="line2d_197">
    <path clip-path="url(#p4856444b41)" d="M 321.000633 198.122854 
L 321.000633 198.122854 
" style="fill:none;stroke:#009afa;stroke-linecap:round;"/>
   </g>
   <g id="line2d_198">
    <path clip-path="url(#p4856444b41)" d="M 322.496894 198.122854 
L 322.496894 195.590223 
" style="fill:none;stroke:#009afa;stroke-linecap:round;"/>
   </g>
   <g id="line2d_199">
    <path clip-path="url(#p4856444b41)" d="M 323.993155 198.122854 
L 323.993155 197.616328 
" style="fill:none;stroke:#009afa;stroke-linecap:round;"/>
   </g>
   <g id="line2d_200">
    <path clip-path="url(#p4856444b41)" d="M 325.489416 198.122854 
L 325.489416 198.122854 
" style="fill:none;stroke:#009afa;stroke-linecap:round;"/>
   </g>
   <g id="line2d_201">
    <path clip-path="url(#p4856444b41)" d="M 326.985677 198.122854 
L 326.985677 196.603276 
" style="fill:none;stroke:#009afa;stroke-linecap:round;"/>
   </g>
   <g id="line2d_202">
    <path clip-path="url(#p4856444b41)" d="M 328.481939 198.122854 
L 328.481939 196.603276 
" style="fill:none;stroke:#009afa;stroke-linecap:round;"/>
   </g>
   <g id="line2d_203">
    <path clip-path="url(#p4856444b41)" d="M 329.9782 198.122854 
L 329.9782 192.551066 
" style="fill:none;stroke:#009afa;stroke-linecap:round;"/>
   </g>
   <g id="line2d_204">
    <path clip-path="url(#p4856444b41)" d="M 331.474461 198.122854 
L 331.474461 191.031487 
" style="fill:none;stroke:#009afa;stroke-linecap:round;"/>
   </g>
   <g id="line2d_205">
    <path clip-path="url(#p4856444b41)" d="M 332.970722 198.122854 
L 332.970722 182.927067 
" style="fill:none;stroke:#009afa;stroke-linecap:round;"/>
   </g>
   <g id="line2d_206">
    <path clip-path="url(#p4856444b41)" d="M 334.466983 198.122854 
L 334.466983 190.524961 
" style="fill:none;stroke:#009afa;stroke-linecap:round;"/>
   </g>
   <g id="line2d_207">
    <path clip-path="url(#p4856444b41)" d="M 335.963244 198.122854 
L 335.963244 192.551066 
" style="fill:none;stroke:#009afa;stroke-linecap:round;"/>
   </g>
   <g id="line2d_208">
    <path clip-path="url(#p4856444b41)" d="M 337.459506 198.122854 
L 337.459506 190.524961 
" style="fill:none;stroke:#009afa;stroke-linecap:round;"/>
   </g>
   <g id="line2d_209">
    <path clip-path="url(#p4856444b41)" d="M 338.955767 198.122854 
L 338.955767 190.018435 
" style="fill:none;stroke:#009afa;stroke-linecap:round;"/>
   </g>
   <g id="line2d_210">
    <path clip-path="url(#p4856444b41)" d="M 340.452028 198.122854 
L 340.452028 197.616328 
" style="fill:none;stroke:#009afa;stroke-linecap:round;"/>
   </g>
   <g id="line2d_211">
    <path clip-path="url(#p4856444b41)" d="M 341.948289 198.122854 
L 341.948289 197.109802 
" style="fill:none;stroke:#009afa;stroke-linecap:round;"/>
   </g>
   <g id="line2d_212">
    <path clip-path="url(#p4856444b41)" d="M 343.44455 198.122854 
L 343.44455 196.096749 
" style="fill:none;stroke:#009afa;stroke-linecap:round;"/>
   </g>
   <g id="line2d_213">
    <path clip-path="url(#p4856444b41)" d="M 344.940812 198.122854 
L 344.940812 194.577171 
" style="fill:none;stroke:#009afa;stroke-linecap:round;"/>
   </g>
   <g id="line2d_214">
    <path clip-path="url(#p4856444b41)" d="M 346.437073 198.122854 
L 346.437073 191.031487 
" style="fill:none;stroke:#009afa;stroke-linecap:round;"/>
   </g>
   <g id="line2d_215">
    <path clip-path="url(#p4856444b41)" d="M 347.933334 198.122854 
L 347.933334 194.577171 
" style="fill:none;stroke:#009afa;stroke-linecap:round;"/>
   </g>
   <g id="line2d_216">
    <path clip-path="url(#p4856444b41)" d="M 349.429595 198.122854 
L 349.429595 184.446646 
" style="fill:none;stroke:#009afa;stroke-linecap:round;"/>
   </g>
   <g id="line2d_217">
    <path clip-path="url(#p4856444b41)" d="M 350.925856 198.122854 
L 350.925856 180.900962 
" style="fill:none;stroke:#009afa;stroke-linecap:round;"/>
   </g>
   <g id="line2d_218">
    <path clip-path="url(#p4856444b41)" d="M 352.422118 198.122854 
L 352.422118 136.326654 
" style="fill:none;stroke:#009afa;stroke-linecap:round;"/>
   </g>
   <g id="line2d_219">
    <path clip-path="url(#p4856444b41)" d="M 353.918379 198.122854 
L 353.918379 188.498856 
" style="fill:none;stroke:#009afa;stroke-linecap:round;"/>
   </g>
   <g id="line2d_220">
    <path clip-path="url(#p4856444b41)" d="M 355.41464 198.122854 
L 355.41464 176.848752 
" style="fill:none;stroke:#009afa;stroke-linecap:round;"/>
   </g>
   <g id="line2d_221">
    <path clip-path="url(#p4856444b41)" d="M 356.910901 198.122854 
L 356.910901 185.966225 
" style="fill:none;stroke:#009afa;stroke-linecap:round;"/>
   </g>
   <g id="line2d_222">
    <path clip-path="url(#p4856444b41)" d="M 358.407162 198.122854 
L 358.407162 190.524961 
" style="fill:none;stroke:#009afa;stroke-linecap:round;"/>
   </g>
   <g id="line2d_223">
    <path clip-path="url(#p4856444b41)" d="M 359.903424 198.122854 
L 359.903424 190.524961 
" style="fill:none;stroke:#009afa;stroke-linecap:round;"/>
   </g>
   <g id="line2d_224">
    <path clip-path="url(#p4856444b41)" d="M 361.399685 198.122854 
L 361.399685 193.564118 
" style="fill:none;stroke:#009afa;stroke-linecap:round;"/>
   </g>
   <g id="line2d_225">
    <path clip-path="url(#p4856444b41)" d="M 362.895946 198.122854 
L 362.895946 191.031487 
" style="fill:none;stroke:#009afa;stroke-linecap:round;"/>
   </g>
   <g id="line2d_226">
    <path clip-path="url(#p4856444b41)" d="M 364.392207 198.122854 
L 364.392207 182.420541 
" style="fill:none;stroke:#009afa;stroke-linecap:round;"/>
   </g>
   <g id="line2d_227">
    <path clip-path="url(#p4856444b41)" d="M 365.888468 198.122854 
L 365.888468 164.185597 
" style="fill:none;stroke:#009afa;stroke-linecap:round;"/>
   </g>
   <g id="line2d_228">
    <path clip-path="url(#p4856444b41)" d="M 367.38473 198.122854 
L 367.38473 135.313601 
" style="fill:none;stroke:#009afa;stroke-linecap:round;"/>
   </g>
   <g id="line2d_229">
    <path clip-path="url(#p4856444b41)" d="M 368.880991 198.122854 
L 368.880991 116.065604 
" style="fill:none;stroke:#009afa;stroke-linecap:round;"/>
   </g>
   <g id="line2d_230">
    <path clip-path="url(#p4856444b41)" d="M 370.377252 198.122854 
L 370.377252 151.522441 
" style="fill:none;stroke:#009afa;stroke-linecap:round;"/>
   </g>
   <g id="line2d_231">
    <path clip-path="url(#p4856444b41)" d="M 371.873513 198.122854 
L 371.873513 153.548546 
" style="fill:none;stroke:#009afa;stroke-linecap:round;"/>
   </g>
   <g id="line2d_232">
    <path clip-path="url(#p4856444b41)" d="M 373.369774 198.122854 
L 373.369774 164.692123 
" style="fill:none;stroke:#009afa;stroke-linecap:round;"/>
   </g>
   <g id="line2d_233">
    <path clip-path="url(#p4856444b41)" d="M 374.866036 198.122854 
L 374.866036 181.914015 
" style="fill:none;stroke:#009afa;stroke-linecap:round;"/>
   </g>
   <g id="line2d_234">
    <path clip-path="url(#p4856444b41)" d="M 376.362297 198.122854 
L 376.362297 161.146439 
" style="fill:none;stroke:#009afa;stroke-linecap:round;"/>
   </g>
   <g id="line2d_235">
    <path clip-path="url(#p4856444b41)" d="M 377.858558 198.122854 
L 377.858558 180.394436 
" style="fill:none;stroke:#009afa;stroke-linecap:round;"/>
   </g>
   <g id="line2d_236">
    <path clip-path="url(#p4856444b41)" d="M 379.354819 198.122854 
L 379.354819 172.290016 
" style="fill:none;stroke:#009afa;stroke-linecap:round;"/>
   </g>
   <g id="line2d_237">
    <path clip-path="url(#p4856444b41)" d="M 380.85108 198.122854 
L 380.85108 164.185597 
" style="fill:none;stroke:#009afa;stroke-linecap:round;"/>
   </g>
   <g id="line2d_238">
    <path clip-path="url(#p4856444b41)" d="M 382.347342 198.122854 
L 382.347342 155.068124 
" style="fill:none;stroke:#009afa;stroke-linecap:round;"/>
   </g>
   <g id="line2d_239">
    <path clip-path="url(#p4856444b41)" d="M 383.843603 198.122854 
L 383.843603 125.689603 
" style="fill:none;stroke:#009afa;stroke-linecap:round;"/>
   </g>
   <g id="line2d_240">
    <path clip-path="url(#p4856444b41)" d="M 385.339864 198.122854 
L 385.339864 134.300549 
" style="fill:none;stroke:#009afa;stroke-linecap:round;"/>
   </g>
   <g id="line2d_241">
    <path clip-path="url(#p4856444b41)" d="M 386.836125 198.122854 
L 386.836125 57.815087 
" style="fill:none;stroke:#009afa;stroke-linecap:round;"/>
   </g>
   <g id="line2d_242">
    <path clip-path="url(#p4856444b41)" d="M 388.332386 198.122854 
L 388.332386 120.62434 
" style="fill:none;stroke:#009afa;stroke-linecap:round;"/>
   </g>
   <g id="line2d_243">
    <path clip-path="url(#p4856444b41)" d="M 389.828648 198.122854 
L 389.828648 97.83066 
" style="fill:none;stroke:#009afa;stroke-linecap:round;"/>
   </g>
   <g id="line2d_244">
    <path clip-path="url(#p4856444b41)" d="M 391.324909 198.122854 
L 391.324909 94.791502 
" style="fill:none;stroke:#009afa;stroke-linecap:round;"/>
   </g>
   <g id="line2d_245">
    <path clip-path="url(#p4856444b41)" d="M 392.82117 198.122854 
L 392.82117 162.666018 
" style="fill:none;stroke:#009afa;stroke-linecap:round;"/>
   </g>
   <g id="line2d_246">
    <path clip-path="url(#p4856444b41)" d="M 394.317431 198.122854 
L 394.317431 153.548546 
" style="fill:none;stroke:#009afa;stroke-linecap:round;"/>
   </g>
   <g id="line2d_247">
    <path clip-path="url(#p4856444b41)" d="M 395.813692 198.122854 
L 395.813692 171.276964 
" style="fill:none;stroke:#009afa;stroke-linecap:round;"/>
   </g>
   <g id="line2d_248">
    <path clip-path="url(#p4856444b41)" d="M 397.309953 198.122854 
L 397.309953 174.822647 
" style="fill:none;stroke:#009afa;stroke-linecap:round;"/>
   </g>
   <g id="line2d_249">
    <path clip-path="url(#p4856444b41)" d="M 398.806215 198.122854 
L 398.806215 126.196129 
" style="fill:none;stroke:#009afa;stroke-linecap:round;"/>
   </g>
   <g id="line2d_250">
    <path clip-path="url(#p4856444b41)" d="M 400.302476 198.122854 
L 400.302476 90.739292 
" style="fill:none;stroke:#009afa;stroke-linecap:round;"/>
   </g>
   <g id="line2d_251">
    <path clip-path="url(#p4856444b41)" d="M 401.798737 198.122854 
L 401.798737 74.023927 
" style="fill:none;stroke:#009afa;stroke-linecap:round;"/>
   </g>
   <g id="line2d_252">
    <path clip-path="url(#p4856444b41)" d="M 403.294998 198.122854 
L 403.294998 67.439086 
" style="fill:none;stroke:#009afa;stroke-linecap:round;"/>
   </g>
   <g id="line2d_253">
    <path clip-path="url(#p4856444b41)" d="M 404.791259 198.122854 
L 404.791259 28.943092 
" style="fill:none;stroke:#009afa;stroke-linecap:round;"/>
   </g>
   <g id="line2d_254">
    <path clip-path="url(#p4856444b41)" d="M 406.287521 198.122854 
L 406.287521 20.332146 
" style="fill:none;stroke:#009afa;stroke-linecap:round;"/>
   </g>
   <g id="line2d_255">
    <path clip-path="url(#p4856444b41)" d="M 407.783782 198.122854 
L 407.783782 63.386876 
" style="fill:none;stroke:#009afa;stroke-linecap:round;"/>
   </g>
   <g id="line2d_256">
    <path clip-path="url(#p4856444b41)" d="M 409.280043 198.122854 
L 409.280043 44.645405 
" style="fill:none;stroke:#009afa;stroke-linecap:round;"/>
   </g>
   <g id="line2d_257">
    <path clip-path="url(#p4856444b41)" d="M 410.776304 198.122854 
L 410.776304 88.713187 
" style="fill:none;stroke:#009afa;stroke-linecap:round;"/>
   </g>
   <g id="line2d_258">
    <path clip-path="url(#p4856444b41)" d="M 412.272565 198.122854 
L 412.272565 138.859285 
" style="fill:none;stroke:#009afa;stroke-linecap:round;"/>
   </g>
   <g id="line2d_259">
    <path clip-path="url(#p4856444b41)" d="M 413.768827 198.122854 
L 413.768827 121.637393 
" style="fill:none;stroke:#009afa;stroke-linecap:round;"/>
   </g>
   <g id="line2d_260">
    <path clip-path="url(#p4856444b41)" d="M 415.265088 198.122854 
L 415.265088 191.031487 
" style="fill:none;stroke:#009afa;stroke-linecap:round;"/>
   </g>
   <g id="line2d_261">
    <path clip-path="url(#p4856444b41)" d="M 416.761349 198.122854 
L 416.761349 173.809595 
" style="fill:none;stroke:#009afa;stroke-linecap:round;"/>
   </g>
   <g id="line2d_262">
    <path clip-path="url(#p4856444b41)" d="M 418.25761 198.122854 
L 418.25761 196.603276 
" style="fill:none;stroke:#009afa;stroke-linecap:round;"/>
   </g>
   <g id="patch_3">
    <path d="M 43.758396 198.122854 
L 43.758396 20.332146 
" style="fill:none;stroke:#000000;stroke-linecap:square;stroke-linejoin:miter;"/>
   </g>
   <g id="patch_4">
    <path d="M 43.758396 198.122854 
L 429.165354 198.122854 
" style="fill:none;stroke:#000000;stroke-linecap:square;stroke-linejoin:miter;"/>
   </g>
   <g id="text_11">
    <!-- Monthly observed records 月记录量 -->
    <defs>
     <path d="M 92.703125 5.703125 
Q 89.09375 5.796875 84.640625 5.890625 
Q 80.203125 6 76.703125 6 
L 73 6 
Q 70.296875 6 66.25 5.953125 
Q 62.203125 5.90625 58.09375 5.703125 
L 58.09375 8.703125 
L 64.09375 9.90625 
Q 66.40625 10.40625 67 11.40625 
Q 67.59375 12.40625 67.59375 15.296875 
L 67.59375 56.5 
L 43.09375 5.203125 
L 17.203125 55.796875 
L 17.203125 14.703125 
Q 17.203125 10 20.203125 9.703125 
L 29.40625 8.703125 
L 29.40625 5.703125 
Q 23.40625 6 16.90625 6 
Q 10.40625 6 2.5 5.703125 
L 2.5 8.703125 
L 8 9.703125 
Q 9.90625 10 10.953125 10.390625 
Q 12 10.796875 12.546875 11.34375 
Q 13.09375 11.90625 13.1875 12.703125 
Q 13.296875 13.5 13.296875 14.703125 
L 13.296875 64.5 
L 4.203125 65.59375 
L 4.203125 68.796875 
Q 5.796875 68.5 13.203125 68.5 
Q 16.90625 68.5 20.296875 68.546875 
Q 23.703125 68.59375 25 68.796875 
L 47.796875 25.59375 
L 68.40625 68.796875 
Q 70.796875 68.59375 74.09375 68.546875 
Q 77.40625 68.5 80.796875 68.5 
Q 84.203125 68.5 87.34375 68.546875 
Q 90.5 68.59375 92.59375 68.796875 
L 92.59375 65.59375 
L 86.40625 64.296875 
Q 83.5 63.703125 82.390625 62.5 
Q 81.296875 61.296875 81.296875 58.40625 
L 81.296875 16 
Q 81.296875 12.90625 81.84375 11.84375 
Q 82.40625 10.796875 84.203125 10.40625 
L 92.703125 8.703125 
z
" id="STSongti-SC-Black-77"/>
     <path d="M 7.703125 60.296875 
Q 7.703125 63.203125 5.84375 64.453125 
Q 4 65.703125 1.5 66.203125 
L 1.5 68.40625 
Q 2.5 68.40625 4.453125 68.703125 
Q 6.40625 69 8.65625 69.453125 
Q 10.90625 69.90625 13.09375 70.546875 
Q 15.296875 71.203125 16.796875 72 
L 19.203125 72 
L 19.203125 37.40625 
Q 21.796875 41.09375 24.640625 43.140625 
Q 27.5 45.203125 31.296875 45.703125 
Q 32.09375 45.796875 32.84375 45.84375 
Q 33.59375 45.90625 34.5 45.90625 
Q 40.09375 45.90625 43.1875 42.453125 
Q 46.296875 39 46.296875 32.296875 
L 46.296875 12.703125 
Q 46.296875 11.703125 46.6875 10.75 
Q 47.09375 9.796875 48.796875 9.203125 
L 51.59375 8.203125 
L 51.59375 5.59375 
Q 48.40625 5.796875 45.453125 5.890625 
Q 42.5 6 40.703125 6 
Q 39 6 35.703125 5.890625 
Q 32.40625 5.796875 29.296875 5.59375 
L 29.296875 8.203125 
L 32.40625 9.296875 
Q 33.796875 9.796875 34.296875 10.75 
Q 34.796875 11.703125 34.796875 13.40625 
L 34.796875 31.09375 
Q 34.796875 34.40625 33.546875 36.296875 
Q 32.296875 38.203125 28.59375 38.203125 
Q 26.796875 38.203125 25.25 37.453125 
Q 23.703125 36.703125 22.5 35.640625 
Q 21.296875 34.59375 20.4375 33.34375 
Q 19.59375 32.09375 19.203125 31.203125 
L 19.203125 13.40625 
Q 19.203125 12.296875 19.59375 11.34375 
Q 20 10.40625 21.09375 9.90625 
L 25.40625 8.203125 
L 25.40625 5.59375 
Q 23.796875 5.796875 20.390625 5.890625 
Q 17 6 13.5 6 
Q 10 6 7.046875 5.890625 
Q 4.09375 5.796875 2.5 5.59375 
L 2.5 8.203125 
L 5.59375 9.296875 
Q 6.796875 9.796875 7.25 10.890625 
Q 7.703125 12 7.703125 13.203125 
z
" id="STSongti-SC-Black-104"/>
     <path d="M 25.5 5.703125 
Q 23.09375 5.796875 19.9375 5.890625 
Q 16.796875 6 13.5 6 
Q 10.203125 6 7.046875 5.890625 
Q 3.90625 5.796875 1.5 5.703125 
L 1.5 8.296875 
L 6.09375 9.5 
Q 7.40625 9.796875 7.90625 10.296875 
Q 8.40625 10.796875 8.40625 12.296875 
L 8.40625 61.09375 
Q 8.40625 63.203125 7.203125 64.203125 
Q 6 65.203125 1.90625 66.40625 
L 1.90625 68.703125 
Q 2.90625 68.90625 4.796875 69.203125 
Q 6.703125 69.5 9 69.890625 
Q 11.296875 70.296875 13.59375 70.84375 
Q 15.90625 71.40625 17.59375 72 
L 19.90625 72 
L 19.90625 12.5 
Q 19.90625 10.5 20.296875 10.046875 
Q 20.703125 9.59375 22.203125 9.203125 
L 25.5 8.296875 
z
" id="STSongti-SC-Black-108"/>
     <path d="M 21.5 -5.5 
Q 19.703125 -9.90625 16.25 -11.953125 
Q 12.796875 -14 8.90625 -14 
Q 7.796875 -14 6.6875 -13.75 
Q 5.59375 -13.5 4.796875 -12.90625 
Q 4.09375 -12.40625 3.640625 -11.65625 
Q 3.203125 -10.90625 3.203125 -9.90625 
Q 3.203125 -7.09375 4.703125 -6.25 
Q 6.203125 -5.40625 8.296875 -5.40625 
Q 10.40625 -5.40625 12.59375 -5.953125 
Q 14.796875 -6.5 15.90625 -6.5 
Q 16.40625 -6.5 17.09375 -6 
Q 17.796875 -5.5 18.5 -4.640625 
Q 19.203125 -3.796875 19.640625 -2.59375 
Q 20.09375 -1.40625 20.09375 0 
Q 20.09375 1.40625 19.59375 3.203125 
Q 19.09375 4.90625 18.4375 6.59375 
Q 17.796875 8.296875 17.203125 9.703125 
L 4.09375 38.5 
Q 3.09375 40.796875 1.5 41.40625 
L -0.5 42.09375 
L -0.5 44.59375 
Q 12.203125 43.5 20.59375 44.59375 
L 20.59375 42.09375 
Q 17.90625 42.09375 17.703125 41.59375 
Q 17.5 41.09375 17.90625 40.09375 
L 27 17 
L 34.90625 36.5 
Q 35.40625 37.90625 35.34375 39.40625 
Q 35.296875 40.90625 33.59375 41.296875 
L 28 42.59375 
L 28 44.59375 
Q 36.796875 43.59375 46.40625 44.59375 
L 46.40625 42.59375 
L 43.203125 41.796875 
Q 42.40625 41.59375 41.84375 41.25 
Q 41.296875 40.90625 40.796875 40.25 
Q 40.296875 39.59375 39.6875 38.4375 
Q 39.09375 37.296875 38.40625 35.5 
z
" id="STSongti-SC-Black-121"/>
     <path d="M 1.5 66.296875 
L 1.796875 68.90625 
L 19.59375 72 
L 19.59375 42.40625 
Q 22.5 43.90625 25.140625 44.90625 
Q 27.796875 45.90625 30.90625 45.90625 
Q 39.796875 45.90625 44.5 40.34375 
Q 49.203125 34.796875 49.203125 25.796875 
Q 49.203125 15.296875 43.546875 9.84375 
Q 37.90625 4.40625 28.59375 4.40625 
Q 26.203125 4.40625 24.390625 4.953125 
Q 22.59375 5.5 21.1875 6.09375 
Q 19.796875 6.703125 18.59375 7.25 
Q 17.40625 7.796875 16.296875 7.796875 
Q 14.59375 7.796875 13.59375 6.84375 
Q 12.59375 5.90625 11.5 3.90625 
L 8 3.90625 
L 8 58.09375 
Q 8 59.703125 7.890625 60.84375 
Q 7.796875 62 7.1875 62.890625 
Q 6.59375 63.796875 5.296875 64.59375 
Q 4 65.40625 1.5 66.296875 
z
M 19.59375 18 
Q 19.59375 13.5 21.390625 11.59375 
Q 23.203125 9.703125 27.40625 9.703125 
Q 29.59375 9.703125 31.390625 10.890625 
Q 33.203125 12.09375 34.390625 14.09375 
Q 35.59375 16.09375 36.25 18.640625 
Q 36.90625 21.203125 36.90625 23.90625 
Q 36.90625 27.203125 36.25 30.203125 
Q 35.59375 33.203125 34.25 35.546875 
Q 32.90625 37.90625 30.703125 39.25 
Q 28.5 40.59375 25.5 40.59375 
Q 23.09375 40.59375 21.34375 39.296875 
Q 19.59375 38 19.59375 36.59375 
z
" id="STSongti-SC-Black-98"/>
     <path d="M 39.296875 29.5 
L 14.5 29.5 
Q 14.296875 28.5 14.25 28.296875 
Q 14.203125 28.09375 14.203125 27.09375 
Q 14.203125 23.90625 15.09375 21.25 
Q 16 18.59375 17.640625 16.640625 
Q 19.296875 14.703125 21.640625 13.59375 
Q 24 12.5 26.796875 12.5 
Q 30.296875 12.5 33.25 13.453125 
Q 36.203125 14.40625 39.5 17.59375 
L 39.90625 16.09375 
Q 38.703125 13.796875 37.140625 11.6875 
Q 35.59375 9.59375 33.390625 8 
Q 31.203125 6.40625 28.25 5.40625 
Q 25.296875 4.40625 21.296875 4.40625 
Q 17.09375 4.40625 13.59375 5.84375 
Q 10.09375 7.296875 7.640625 10 
Q 5.203125 12.703125 3.84375 16.5 
Q 2.5 20.296875 2.5 25 
Q 2.5 29.703125 3.953125 33.546875 
Q 5.40625 37.40625 8.046875 40.15625 
Q 10.703125 42.90625 14.5 44.40625 
Q 18.296875 45.90625 23 45.90625 
Q 27.296875 45.90625 30.296875 44.59375 
Q 33.296875 43.296875 35.25 41.046875 
Q 37.203125 38.796875 38.140625 35.796875 
Q 39.09375 32.796875 39.296875 29.5 
z
M 15 33.203125 
L 24.40625 33.203125 
Q 27.09375 33.203125 27.09375 35.796875 
Q 27.09375 38.703125 26.1875 40.75 
Q 25.296875 42.796875 22.59375 42.796875 
Q 17 42.796875 15 33.203125 
z
" id="STSongti-SC-Black-101"/>
     <path d="M 1.703125 5.59375 
L 1.703125 7.203125 
L 4.703125 8.09375 
Q 6.703125 8.703125 7.25 9.640625 
Q 7.796875 10.59375 7.796875 13.203125 
L 7.796875 32.40625 
Q 7.796875 34.40625 7 35.40625 
Q 6.203125 36.40625 3.203125 36.796875 
L 1.5 37 
L 1.5 38.90625 
Q 3.40625 39.40625 5.65625 40.25 
Q 7.90625 41.09375 10.046875 42.25 
Q 12.203125 43.40625 14.046875 44.90625 
Q 15.90625 46.40625 17.09375 48.203125 
L 18.90625 48.203125 
Q 18.90625 45.296875 19 42.796875 
Q 19.09375 40.296875 19.296875 37 
Q 20.09375 38.703125 20.84375 40 
Q 21.59375 41.296875 23.203125 43.203125 
Q 24.703125 45 26.296875 45.453125 
Q 27.90625 45.90625 29.203125 45.90625 
Q 31.703125 45.90625 33.59375 44.40625 
Q 35.5 42.90625 35.5 39.40625 
Q 35.5 36.203125 34.09375 34.25 
Q 32.703125 32.296875 29.90625 32.296875 
Q 28.5 32.296875 27.546875 33.09375 
Q 26.59375 33.90625 25.9375 34.796875 
Q 25.296875 35.703125 24.6875 36.5 
Q 24.09375 37.296875 23.5 37.296875 
Q 22.09375 37.296875 21.046875 35.390625 
Q 20 33.5 19.59375 30.703125 
Q 19.40625 29.5 19.296875 28.546875 
Q 19.203125 27.59375 19.296875 26.90625 
L 19.296875 13 
Q 19.296875 10.703125 20.1875 9.890625 
Q 21.09375 9.09375 23.796875 8.296875 
L 27.09375 7.296875 
L 27.09375 5.703125 
Q 24.90625 5.90625 22.09375 5.953125 
Q 19.296875 6 16.796875 6 
L 14.5 6 
Q 11.203125 6 7.890625 5.890625 
Q 4.59375 5.796875 1.703125 5.59375 
z
" id="STSongti-SC-Black-114"/>
     <path d="M 39 36.90625 
L 25.296875 3.703125 
L 22.796875 3.703125 
L 7.703125 37 
Q 6.5 39.40625 5.796875 40.09375 
Q 5.09375 40.796875 3.59375 41.09375 
L -0.5 42 
L -0.5 44.40625 
Q 1.703125 44.09375 10.59375 44.09375 
Q 12.796875 44.09375 15.046875 44.140625 
Q 17.296875 44.203125 19.25 44.25 
Q 21.203125 44.296875 22.640625 44.34375 
Q 24.09375 44.40625 24.796875 44.5 
L 24.796875 42.09375 
L 22.5 41.703125 
Q 20.703125 41.40625 20.25 40 
Q 19.796875 38.59375 21.5 34.703125 
L 28.203125 19 
L 34.203125 34.5 
Q 34.703125 35.703125 34.953125 36.640625 
Q 35.203125 37.59375 35.203125 38.296875 
Q 35.203125 41.09375 31.09375 41.59375 
L 27.703125 42 
L 27.703125 44.40625 
Q 29 44.09375 37.296875 44.09375 
Q 45.59375 44.09375 47.90625 44.40625 
L 47.90625 42 
L 43.09375 41.296875 
Q 41.5 41.09375 40.796875 40.34375 
Q 40.09375 39.59375 39 36.90625 
z
" id="STSongti-SC-Black-118"/>
     <path d="M 32.09375 60.5 
Q 32.09375 62.40625 31.890625 63.546875 
Q 31.703125 64.703125 30.890625 65.453125 
Q 30.09375 66.203125 28.546875 66.796875 
Q 27 67.40625 24.296875 68.09375 
L 24.296875 69.703125 
Q 25.90625 69.796875 28.25 70 
Q 30.59375 70.203125 33 70.5 
Q 35.40625 70.796875 37.59375 71.140625 
Q 39.796875 71.5 41.09375 72 
L 43.59375 72 
L 43.59375 13.796875 
Q 43.59375 12 43.75 11 
Q 43.90625 10 44.59375 9.546875 
Q 45.296875 9.09375 46.640625 9 
Q 48 8.90625 50.40625 8.796875 
L 50.40625 6.203125 
Q 48.5 5.796875 45.953125 5.4375 
Q 43.40625 5.09375 40.75 4.796875 
Q 38.09375 4.5 35.796875 4.25 
Q 33.5 4 32.09375 3.90625 
L 32.09375 10.5 
Q 29 8 26.046875 6.203125 
Q 23.09375 4.40625 19 4.40625 
Q 15.59375 4.40625 12.59375 5.296875 
Q 9.59375 6.203125 7.203125 9.09375 
Q 4.796875 12 3.640625 15.59375 
Q 2.5 19.203125 2.5 23.40625 
Q 2.5 29.09375 4.390625 33.34375 
Q 6.296875 37.59375 9.296875 40.390625 
Q 12.296875 43.203125 16 44.546875 
Q 19.703125 45.90625 23.296875 45.90625 
Q 26.5 45.90625 28.59375 45.15625 
Q 30.703125 44.40625 32.09375 43.203125 
z
M 32.09375 13.703125 
L 32.09375 30.5 
Q 32.09375 32.59375 31.796875 34.546875 
Q 31.5 36.5 30.703125 38.046875 
Q 29.90625 39.59375 28.34375 40.5 
Q 26.796875 41.40625 24.296875 41.40625 
Q 22.09375 41.40625 20.390625 40.15625 
Q 18.703125 38.90625 17.5 36.703125 
Q 16.296875 34.5 15.640625 31.59375 
Q 15 28.703125 15 25.296875 
Q 15 19.09375 17.296875 15.09375 
Q 19.59375 11.09375 24.296875 11.09375 
Q 27.40625 11.09375 29 11.796875 
Q 30.59375 12.5 32.09375 13.703125 
z
" id="STSongti-SC-Black-100"/>
     <path d="M 38.5 15.40625 
Q 37.40625 13.59375 35.953125 11.640625 
Q 34.5 9.703125 32.453125 8.09375 
Q 30.40625 6.5 27.703125 5.453125 
Q 25 4.40625 21.59375 4.40625 
Q 12.796875 4.40625 7.640625 9.75 
Q 2.5 15.09375 2.5 24.40625 
Q 2.5 29.203125 4.203125 33.140625 
Q 5.90625 37.09375 8.90625 39.9375 
Q 11.90625 42.796875 15.953125 44.34375 
Q 20 45.90625 24.796875 45.90625 
Q 30.203125 45.90625 33.703125 44.203125 
Q 37.203125 42.5 37.203125 39.296875 
Q 37.203125 37.296875 36.140625 36.1875 
Q 35.09375 35.09375 33.5 35.09375 
Q 32 35.09375 30.59375 36.140625 
Q 29.203125 37.203125 27.703125 38.390625 
Q 26.203125 39.59375 24.640625 40.640625 
Q 23.09375 41.703125 21.5 41.703125 
Q 19.296875 41.703125 17.796875 40.34375 
Q 16.296875 39 15.34375 36.890625 
Q 14.40625 34.796875 14 32.25 
Q 13.59375 29.703125 13.59375 27.296875 
Q 13.59375 23.796875 14.5 21.25 
Q 15.40625 18.703125 17 17 
Q 18.59375 15.296875 20.6875 14.34375 
Q 22.796875 13.40625 25.09375 13.09375 
Q 28.703125 12.5 31.953125 13.75 
Q 35.203125 15 37.796875 17.296875 
z
" id="STSongti-SC-Black-99"/>
     <path d="M 40.59375 30.703125 
Q 39.203125 17.703125 34 9.390625 
Q 28.796875 1.09375 18.9375 -5.09375 
Q 9.09375 -11.296875 7.203125 -11.296875 
Q 6.59375 -11.296875 6.59375 -10.796875 
Q 6.59375 -10.296875 7.796875 -9.5 
Q 14.59375 -4.59375 19.390625 2.15625 
Q 24.203125 8.90625 26.25 18.09375 
Q 28.296875 27.296875 28.296875 53.59375 
Q 28.296875 67.90625 27.703125 78.90625 
Q 41.5 75 42.59375 74.5 
L 68.296875 74.5 
Q 68.90625 75.703125 70.046875 77.5 
Q 71.203125 79.296875 71.703125 79.6875 
Q 72.203125 80.09375 72.90625 80.09375 
Q 74.40625 80.09375 77.703125 77.90625 
L 84 73.796875 
Q 87.203125 71.796875 87.203125 70.390625 
Q 87.203125 69 83.203125 67.796875 
L 83.203125 5.5 
Q 83.203125 0.703125 81.953125 -2.296875 
Q 80.703125 -5.296875 76.84375 -7.140625 
Q 73 -9 67.703125 -9 
Q 66.09375 -9 65.34375 -8.390625 
Q 64.59375 -7.796875 64.34375 -5.59375 
Q 64.09375 -3.40625 63.25 -2 
Q 62.40625 -0.59375 59.953125 0.546875 
Q 57.5 1.703125 52.5 3 
Q 50.796875 3.40625 50.796875 3.75 
Q 50.796875 4.09375 52.203125 4.09375 
L 57.59375 4 
Q 62.90625 4 65.453125 4.5 
Q 68 5 68.75 5.796875 
Q 69.5 6.59375 69.5 8 
L 69.5 30.703125 
z
M 42.09375 54.203125 
L 69.5 54.203125 
L 69.5 71.203125 
L 43.5 71.203125 
Q 42.90625 70.703125 42.703125 70.046875 
Q 42.5 69.40625 42.390625 64 
Q 42.296875 58.59375 42.09375 54.203125 
z
M 69.5 50.90625 
L 42 50.90625 
Q 41.796875 44.90625 40.90625 34 
L 69.5 34 
z
" id="STSongti-SC-Black-26376"/>
     <path d="M 73.90625 44.296875 
L 73.90625 70 
L 45.40625 70 
Q 43.5 70 41.796875 69.296875 
L 39.203125 73.796875 
Q 42 73.296875 44.203125 73.296875 
L 71.796875 73.296875 
Q 74.203125 78.09375 74.796875 78.890625 
Q 75.40625 79.703125 76.453125 79.703125 
Q 77.5 79.703125 83.953125 76.09375 
Q 90.40625 72.5 90.40625 70.640625 
Q 90.40625 68.796875 86.5 68.09375 
L 86.5 48.5 
Q 86.5 45 86.59375 42.703125 
L 86.796875 38.796875 
Q 86.796875 37.203125 84.140625 36.25 
Q 81.5 35.296875 78.390625 35.296875 
Q 75.296875 35.296875 74.59375 35.75 
Q 73.90625 36.203125 73.90625 37.59375 
L 73.90625 41 
L 55.703125 41 
Q 55.203125 40.59375 54 40.09375 
L 54 8.90625 
Q 54 5 55.703125 4.203125 
Q 57.40625 3.40625 67 3.40625 
Q 71.59375 3.40625 75.59375 3.75 
Q 79.59375 4.09375 80.75 4.59375 
Q 81.90625 5.09375 83.046875 6.34375 
Q 84.203125 7.59375 85.203125 9.546875 
Q 86.203125 11.5 87.140625 14.34375 
Q 88.09375 17.203125 88.640625 19.84375 
Q 89.203125 22.5 89.640625 22.5 
Q 90.09375 22.5 90.09375 20.703125 
L 90.09375 18.5 
Q 90.09375 13.59375 90.890625 10.6875 
Q 91.703125 7.796875 94.796875 5.59375 
Q 97.40625 3.796875 97.40625 2.203125 
Q 97.40625 -0.296875 94.90625 -3.046875 
Q 92.40625 -5.796875 86.796875 -6.9375 
Q 81.203125 -8.09375 68.296875 -8.09375 
Q 55.40625 -8.09375 50.5 -7.140625 
Q 45.59375 -6.203125 43.9375 -4 
Q 42.296875 -1.796875 42.296875 3.5 
L 42.296875 17.40625 
Q 30 5.796875 21 -6.296875 
Q 20.09375 -7.5 19.59375 -7.5 
Q 18.90625 -7.5 17.703125 -5.296875 
Q 16.5 -3.09375 14.09375 0.65625 
Q 11.703125 4.40625 11.703125 5.59375 
Q 11.703125 6.296875 12.203125 6.703125 
Q 14.40625 8.5 14.90625 9.34375 
Q 15.40625 10.203125 15.40625 11.40625 
L 15.40625 43.796875 
L 8.296875 43.796875 
Q 6.296875 43.796875 4.703125 42.703125 
L 2.09375 47.40625 
Q 4.5 47.09375 7.09375 47.09375 
L 14.5 47.09375 
Q 15.90625 49.90625 16.953125 51.40625 
Q 18 52.90625 18.90625 52.90625 
Q 20.203125 52.90625 25.453125 49.75 
Q 30.703125 46.59375 30.703125 45.390625 
Q 30.703125 44.203125 26.796875 42.703125 
L 26.796875 11.703125 
L 42.296875 18.90625 
L 42.296875 38.203125 
Q 42.296875 45 42 49.40625 
Q 49.203125 47.203125 56.09375 44.296875 
z
M 12.703125 79.203125 
Q 16.40625 79.203125 21.796875 77.84375 
Q 27.203125 76.5 29.703125 73.953125 
Q 32.203125 71.40625 32.203125 67.75 
Q 32.203125 64.09375 30.046875 61.6875 
Q 27.90625 59.296875 24.90625 59.296875 
Q 21.90625 59.296875 20.296875 61.296875 
Q 18.703125 63.296875 18.703125 67.5 
Q 18.703125 71.703125 17.703125 73.890625 
Q 16.703125 76.09375 14.34375 77.390625 
Q 12 78.703125 12 78.953125 
Q 12 79.203125 12.703125 79.203125 
z
" id="STSongti-SC-Black-35760"/>
     <path d="M 63.40625 61.796875 
L 63.40625 72.90625 
L 21 72.90625 
Q 18.90625 72.90625 17.09375 71.703125 
L 14.5 76.5 
Q 16.90625 76.203125 19.5 76.203125 
L 61.5 76.203125 
Q 64 81 64.703125 81.84375 
Q 65.40625 82.703125 66.203125 82.703125 
Q 67 82.703125 71.203125 80.34375 
Q 75.40625 78 77.5 76.390625 
Q 79.59375 74.796875 79.59375 73.90625 
Q 79.59375 72.5 75.40625 71.296875 
L 75.40625 46.90625 
L 78.203125 46.90625 
Q 79.40625 49.59375 80.796875 51.890625 
Q 82.203125 54.203125 82.703125 54.703125 
Q 83.203125 55.203125 83.90625 55.203125 
Q 85.09375 55.203125 90.9375 50.703125 
Q 96.796875 46.203125 96.796875 44.890625 
Q 96.796875 43.59375 94.90625 43.59375 
L 57.09375 43.59375 
Q 57 43.296875 56.5 42.796875 
Q 60.09375 31.796875 65.203125 25.203125 
Q 69 30.203125 73.703125 41.296875 
Q 79.296875 38.90625 83.140625 36.703125 
Q 87 34.5 87.703125 33.84375 
Q 88.40625 33.203125 88.40625 32.59375 
Q 88.40625 32 85.84375 31.640625 
Q 83.296875 31.296875 79.640625 29.640625 
Q 76 28 67.296875 22.796875 
Q 71.296875 18.40625 77.796875 14.953125 
Q 84.296875 11.5 97.09375 8.09375 
Q 98.09375 7.796875 98.09375 7.4375 
Q 98.09375 7.09375 97 6.796875 
Q 90.40625 4.90625 85.40625 -3.796875 
Q 84.90625 -4.5 84.296875 -4.5 
Q 82.703125 -4.5 75.140625 1 
Q 67.59375 6.5 62.75 15.796875 
Q 57.90625 25.09375 55.703125 40.90625 
L 55.703125 0.796875 
Q 55.703125 -3.5 54.140625 -5.75 
Q 52.59375 -8 48.6875 -9.203125 
Q 44.796875 -10.40625 41.59375 -10.40625 
Q 40.09375 -10.40625 39.59375 -8.703125 
Q 38.796875 -5.59375 37.84375 -4.140625 
Q 36.90625 -2.703125 34.84375 -1.84375 
Q 32.796875 -1 28.203125 0 
Q 27.09375 0.203125 27.09375 0.5 
Q 27.09375 0.796875 29.703125 0.796875 
Q 38 0.796875 40.703125 2 
Q 43.40625 3.203125 43.40625 6.5 
L 43.40625 22.40625 
Q 32.796875 15.296875 24.84375 9.1875 
Q 16.90625 3.09375 14.09375 0.09375 
Q 13.40625 -0.703125 13 -0.703125 
Q 12.59375 -0.703125 12.25 -0.296875 
Q 11.90625 0.09375 9.703125 3.84375 
Q 7.5 7.59375 5.09375 12.40625 
Q 28 18.40625 43.40625 23.796875 
L 43.40625 43.59375 
L 10.703125 43.59375 
Q 8.703125 43.59375 7.09375 42.5 
L 4.5 47.203125 
Q 6.90625 46.90625 9.5 46.90625 
L 63.40625 46.90625 
L 63.40625 58.5 
L 24.703125 58.5 
Q 22.59375 58.5 20.796875 57.296875 
L 18.203125 62.09375 
Q 20.59375 61.796875 23.203125 61.796875 
z
M 16.796875 39.90625 
Q 24.90625 39.90625 30.25 36.953125 
Q 35.59375 34 35.59375 28.90625 
Q 35.59375 26.09375 33.5 24.046875 
Q 31.40625 22 28.90625 22 
Q 26.40625 22 24.65625 23.640625 
Q 22.90625 25.296875 22.90625 28.5 
Q 22.90625 32.90625 21.59375 34.953125 
Q 20.296875 37 16 38.796875 
Q 15.09375 39.203125 15.09375 39.546875 
Q 15.09375 39.90625 16.796875 39.90625 
z
" id="STSongti-SC-Black-24405"/>
     <path d="M 31 78.09375 
L 67.796875 78.09375 
Q 69.5 80.796875 70.640625 82.140625 
Q 71.796875 83.5 72.59375 83.5 
Q 73.90625 83.5 79.203125 79.796875 
Q 84.5 76.09375 84.5 74.796875 
Q 84.5 73.5 80.796875 71.90625 
L 80.796875 65.09375 
L 81 55.90625 
Q 81 54.40625 80.140625 53.5 
Q 79.296875 52.59375 76.75 51.75 
Q 74.203125 50.90625 70.703125 50.90625 
Q 68.796875 50.90625 68.703125 53.09375 
L 30.796875 53.09375 
Q 30.796875 52.296875 28.140625 51.1875 
Q 25.5 50.09375 20.796875 50.09375 
Q 19.40625 50.09375 19.40625 51.203125 
L 19.59375 55.703125 
Q 19.796875 58.703125 19.796875 61.203125 
L 19.796875 73.203125 
Q 19.796875 77.59375 19.5 81.90625 
Q 26.203125 80.09375 31 78.09375 
z
M 68.703125 67.703125 
L 68.703125 74.796875 
L 32.796875 74.796875 
Q 32.40625 73.703125 30.90625 73 
L 30.90625 67.703125 
z
M 68.703125 56.40625 
L 68.703125 64.40625 
L 30.90625 64.40625 
L 30.90625 56.40625 
z
M 74 45.40625 
L 9.90625 45.40625 
Q 7.90625 45.40625 6.296875 44.296875 
L 3.703125 49 
Q 6.09375 48.703125 8.703125 48.703125 
L 79.703125 48.703125 
Q 81.09375 51.296875 82.546875 53.59375 
Q 84 55.90625 84.5 56.5 
Q 85 57.09375 85.796875 57.09375 
Q 86.59375 57.09375 89.703125 54.5 
L 95.40625 49.90625 
Q 97.796875 47.796875 97.796875 46.59375 
Q 97.796875 45.40625 94.90625 45.40625 
L 77.796875 45.40625 
Q 86.90625 39.59375 86.90625 38 
Q 86.90625 36.40625 83.703125 35.296875 
L 83.703125 25.296875 
Q 83.703125 22.40625 83.84375 20.203125 
Q 84 18 84 17.5 
Q 84 17 83.5 16.453125 
Q 83 15.90625 79.796875 14.59375 
Q 88.296875 7.796875 88.296875 5.90625 
Q 88.296875 4.90625 86.09375 4.90625 
L 55.5 4.90625 
L 55.5 -2.90625 
L 79.59375 -2.90625 
Q 82.09375 1.296875 83.296875 2.640625 
Q 84.5 4 85.203125 4 
Q 85.90625 4 89.203125 1.796875 
Q 92.5 -0.40625 94.703125 -2.25 
Q 96.90625 -4.09375 96.90625 -5.140625 
Q 96.90625 -6.203125 94.5 -6.203125 
L 13.40625 -6.203125 
Q 11.40625 -6.203125 9.796875 -7.296875 
L 7.203125 -2.59375 
Q 9.59375 -2.90625 12.203125 -2.90625 
L 44.296875 -2.90625 
L 44.296875 4.90625 
L 20.90625 4.90625 
Q 18.90625 4.90625 17.296875 3.796875 
L 14.703125 8.5 
Q 17.09375 8.203125 19.703125 8.203125 
L 44.296875 8.203125 
L 44.296875 15 
L 28 15 
Q 28 13.796875 27.453125 13.1875 
Q 26.90625 12.59375 24.296875 11.9375 
Q 21.703125 11.296875 18.203125 11.296875 
Q 16.703125 11.296875 16.84375 13.25 
Q 17 15.203125 17 21.296875 
L 17 35.796875 
Q 17 40 16.703125 44.296875 
Q 22.203125 43 27.296875 41.09375 
L 71.40625 41.09375 
Q 72.796875 43.796875 74 45.40625 
z
M 44.296875 37.796875 
L 30.296875 37.796875 
Q 29.796875 36.09375 28 35.40625 
L 28 29.59375 
L 44.296875 29.59375 
z
M 71.796875 29.59375 
L 71.796875 37.796875 
L 57.40625 37.796875 
Q 56.90625 36.40625 55.5 35.703125 
L 55.5 29.59375 
z
M 44.296875 26.296875 
L 28 26.296875 
L 28 18.296875 
L 44.296875 18.296875 
z
M 71.796875 18.296875 
L 71.796875 26.296875 
L 55.5 26.296875 
L 55.5 18.296875 
z
M 77 13.90625 
Q 74.90625 13.703125 73.453125 13.703125 
Q 72 13.703125 71.796875 15 
L 55.5 15 
L 55.5 8.203125 
L 73.5 8.203125 
Q 74.796875 10.703125 77 13.90625 
z
" id="STSongti-SC-Black-37327"/>
    </defs>
    <g transform="translate(132.591719 14.332146)scale(0.14 -0.14)">
     <use xlink:href="#STSongti-SC-Black-77"/>
     <use x="95.199982" xlink:href="#STSongti-SC-Black-111"/>
     <use x="143.599976" xlink:href="#STSongti-SC-Black-110"/>
     <use x="196.59996" xlink:href="#STSongti-SC-Black-116"/>
     <use x="230.799957" xlink:href="#STSongti-SC-Black-104"/>
     <use x="283.899948" xlink:href="#STSongti-SC-Black-108"/>
     <use x="310.899933" xlink:href="#STSongti-SC-Black-121"/>
     <use x="356.799927" xlink:href="#STSongti-SC-Black-32"/>
     <use x="381.799911" xlink:href="#STSongti-SC-Black-111"/>
     <use x="430.199905" xlink:href="#STSongti-SC-Black-98"/>
     <use x="481.899902" xlink:href="#STSongti-SC-Black-115"/>
     <use x="517.799896" xlink:href="#STSongti-SC-Black-101"/>
     <use x="560.19989" xlink:href="#STSongti-SC-Black-114"/>
     <use x="597.799881" xlink:href="#STSongti-SC-Black-118"/>
     <use x="645.199875" xlink:href="#STSongti-SC-Black-101"/>
     <use x="687.599869" xlink:href="#STSongti-SC-Black-100"/>
     <use x="739.499863" xlink:href="#STSongti-SC-Black-32"/>
     <use x="764.499847" xlink:href="#STSongti-SC-Black-114"/>
     <use x="802.099838" xlink:href="#STSongti-SC-Black-101"/>
     <use x="844.499832" xlink:href="#STSongti-SC-Black-99"/>
     <use x="884.999817" xlink:href="#STSongti-SC-Black-111"/>
     <use x="933.399811" xlink:href="#STSongti-SC-Black-114"/>
     <use x="970.999802" xlink:href="#STSongti-SC-Black-100"/>
     <use x="1022.899796" xlink:href="#STSongti-SC-Black-115"/>
     <use x="1058.799789" xlink:href="#STSongti-SC-Black-32"/>
     <use x="1083.799774" xlink:href="#STSongti-SC-Black-26376"/>
     <use x="1183.799759" xlink:href="#STSongti-SC-Black-35760"/>
     <use x="1283.799744" xlink:href="#STSongti-SC-Black-24405"/>
     <use x="1383.799728" xlink:href="#STSongti-SC-Black-37327"/>
    </g>
   </g>
  </g>
 </g>
 <defs>
  <clipPath id="p4856444b41">
   <rect height="177.790709" width="385.406959" x="43.758396" y="20.332146"/>
  </clipPath>
 </defs>
</svg>
