<?xml version="1.0" encoding="utf-8" standalone="no"?>
<!DOCTYPE svg PUBLIC "-//W3C//DTD SVG 1.1//EN"
  "http://www.w3.org/Graphics/SVG/1.1/DTD/svg11.dtd">
<!-- Created with matplotlib (https://matplotlib.org/) -->
<svg height="216pt" version="1.1" viewBox="0 0 432 216" width="432pt" xmlns="http://www.w3.org/2000/svg" xmlns:xlink="http://www.w3.org/1999/xlink">
 <defs>
  <style type="text/css">
*{stroke-linecap:butt;stroke-linejoin:round;}
  </style>
 </defs>
 <g id="figure_1">
  <g id="patch_1">
   <path d="M 0 216 
L 432 216 
L 432 0 
L 0 0 
z
" style="fill:#ffffff;"/>
  </g>
  <g id="axes_1">
   <g id="patch_2">
    <path d="M 43.758396 198.122854 
L 429.165354 198.122854 
L 429.165354 20.365896 
L 43.758396 20.365896 
z
" style="fill:#ffffff;"/>
   </g>
   <g id="matplotlib.axis_1">
    <g id="xtick_1">
     <g id="line2d_1">
      <path clip-path="url(#pc292a6ab60)" d="M 54.66614 198.122854 
L 54.66614 20.365896 
" style="fill:none;stroke:#000000;stroke-linecap:square;stroke-opacity:0.1;stroke-width:0.5;"/>
     </g>
     <g id="line2d_2">
      <defs>
       <path d="M 0 0 
L 0 -3.5 
" id="medfd0e8db0" style="stroke:#000000;stroke-width:0.8;"/>
      </defs>
      <g>
       <use style="stroke:#000000;stroke-width:0.8;" x="54.66614" xlink:href="#medfd0e8db0" y="198.122854"/>
      </g>
     </g>
     <g id="text_1">
      <!-- 2013 -->
      <defs>
       <path d="M 42.59375 5.703125 
Q 39 5.796875 34.796875 5.890625 
Q 30.59375 6 24.09375 6 
Q 17.5 6 12.140625 5.953125 
Q 6.796875 5.90625 3.296875 5.703125 
Q 3.59375 8.09375 4.09375 10.296875 
Q 4.59375 12.5 5.890625 14.953125 
Q 7.203125 17.40625 9.453125 20.296875 
Q 11.703125 23.203125 15.5 27.09375 
L 19.203125 30.90625 
Q 23.09375 34.796875 25.390625 37.6875 
Q 27.703125 40.59375 28.890625 42.9375 
Q 30.09375 45.296875 30.390625 47.390625 
Q 30.703125 49.5 30.703125 51.90625 
Q 30.703125 56.59375 27.796875 59.390625 
Q 24.90625 62.203125 20 62.203125 
Q 14.90625 62.203125 11.65625 58.890625 
Q 8.40625 55.59375 7.203125 49.40625 
L 4.09375 50.59375 
Q 5.5 59.796875 10.84375 64.640625 
Q 16.203125 69.5 24.203125 69.5 
Q 27.796875 69.5 31 68.5 
Q 34.203125 67.5 36.59375 65.546875 
Q 39 63.59375 40.453125 60.75 
Q 41.90625 57.90625 41.90625 54.203125 
Q 41.90625 50.296875 40.5 47 
Q 39.09375 43.703125 36.6875 40.75 
Q 34.296875 37.796875 31.140625 35.09375 
Q 28 32.40625 24.59375 29.796875 
L 21.59375 27.40625 
Q 19 25.296875 16.09375 22.296875 
Q 13.203125 19.296875 10.703125 15.296875 
L 32.40625 15.296875 
Q 34.90625 15.296875 36.203125 15.796875 
Q 37.5 16.296875 38.25 17.4375 
Q 39 18.59375 39.546875 20.34375 
Q 40.09375 22.09375 41 24.5 
L 44.09375 24.5 
z
" id="STSongti-SC-Black-50"/>
       <path d="M 23.703125 69.5 
Q 28 69.5 31.953125 66.953125 
Q 35.90625 64.40625 38.84375 60 
Q 41.796875 55.59375 43.546875 49.640625 
Q 45.296875 43.703125 45.296875 36.90625 
Q 45.296875 30.203125 43.59375 24.296875 
Q 41.90625 18.40625 38.953125 13.953125 
Q 36 9.5 32.09375 6.953125 
Q 28.203125 4.40625 23.796875 4.40625 
Q 19.5 4.40625 15.546875 6.90625 
Q 11.59375 9.40625 8.59375 13.75 
Q 5.59375 18.09375 3.84375 24.046875 
Q 2.09375 30 2.09375 36.796875 
Q 2.09375 43.703125 3.84375 49.703125 
Q 5.59375 55.703125 8.546875 60.09375 
Q 11.5 64.5 15.390625 67 
Q 19.296875 69.5 23.703125 69.5 
z
M 23.703125 8.09375 
Q 29.203125 8.09375 31.203125 15.09375 
Q 33.203125 22.09375 33.203125 36.90625 
Q 33.203125 51.703125 31.140625 58.75 
Q 29.09375 65.796875 23.703125 65.796875 
Q 18.296875 65.796875 16.25 58.796875 
Q 14.203125 51.796875 14.203125 36.90625 
Q 14.203125 8.09375 23.703125 8.09375 
z
" id="STSongti-SC-Black-48"/>
       <path d="M 38.5 5.703125 
Q 35.90625 5.796875 31.953125 5.890625 
Q 28 6 23.796875 6 
Q 19.59375 6 15.640625 5.890625 
Q 11.703125 5.796875 9.09375 5.703125 
L 9.09375 8.59375 
L 15.296875 9.5 
Q 18.796875 10.296875 18.796875 13.40625 
L 18.796875 60 
L 6.90625 52.296875 
L 5.203125 55.40625 
Q 6.90625 56.5 9.5 58.09375 
Q 12.09375 59.703125 15 61.59375 
Q 17.90625 63.5 20.796875 65.5 
Q 23.703125 67.5 26.09375 69.5 
L 29.40625 69.5 
L 29.40625 13.40625 
Q 29.40625 9.90625 32.90625 9.40625 
L 38.5 8.59375 
z
" id="STSongti-SC-Black-49"/>
       <path d="M 9 53.59375 
L 7.40625 55.09375 
Q 8.59375 58.296875 10.09375 60.9375 
Q 11.59375 63.59375 13.6875 65.5 
Q 15.796875 67.40625 18.640625 68.453125 
Q 21.5 69.5 25.296875 69.5 
Q 27.796875 69.5 30.296875 68.890625 
Q 32.796875 68.296875 34.75 67 
Q 36.703125 65.703125 37.890625 63.796875 
Q 39.09375 61.90625 39.09375 59.203125 
Q 39.09375 55.296875 35.640625 51.390625 
Q 32.203125 47.5 26.296875 44.09375 
Q 30.296875 44.40625 33.640625 43.296875 
Q 37 42.203125 39.34375 40 
Q 41.703125 37.796875 43 34.59375 
Q 44.296875 31.40625 44.296875 27.5 
Q 44.296875 22.59375 42.296875 18.34375 
Q 40.296875 14.09375 36.796875 11 
Q 33.296875 7.90625 28.640625 6.15625 
Q 24 4.40625 18.796875 4.40625 
Q 11.90625 4.40625 8.09375 6.296875 
Q 4.296875 8.203125 4.296875 11.203125 
Q 4.296875 12.296875 5.046875 13.34375 
Q 5.796875 14.40625 7.140625 14.84375 
Q 8.5 15.296875 10.203125 14.84375 
Q 11.90625 14.40625 13.90625 12.5 
Q 15.40625 11 16.453125 10 
Q 17.5 9 18.34375 8.453125 
Q 19.203125 7.90625 19.953125 7.65625 
Q 20.703125 7.40625 21.703125 7.40625 
Q 24.703125 7.40625 26.953125 8.90625 
Q 29.203125 10.40625 30.703125 12.90625 
Q 32.203125 15.40625 32.890625 18.5 
Q 33.59375 21.59375 33.59375 24.796875 
Q 33.59375 31.203125 30.546875 34.34375 
Q 27.5 37.5 23.40625 37.5 
Q 20.796875 37.5 18.84375 36.640625 
Q 16.90625 35.796875 14.90625 34.09375 
L 13.203125 36.40625 
Q 14.203125 37.296875 15.296875 38.1875 
Q 16.40625 39.09375 17.59375 40 
Q 23.09375 44.09375 26.1875 47.34375 
Q 29.296875 50.59375 29.296875 53.703125 
Q 29.296875 57.59375 27.046875 59.75 
Q 24.796875 61.90625 20.40625 61.90625 
Q 17.203125 61.90625 14.09375 60.046875 
Q 11 58.203125 9 53.59375 
z
" id="STSongti-SC-Black-51"/>
      </defs>
      <g transform="translate(41.53239 211.702854)scale(0.14 -0.14)">
       <use xlink:href="#STSongti-SC-Black-50"/>
       <use x="46.899994" xlink:href="#STSongti-SC-Black-48"/>
       <use x="93.799988" xlink:href="#STSongti-SC-Black-49"/>
       <use x="140.699982" xlink:href="#STSongti-SC-Black-51"/>
      </g>
     </g>
    </g>
    <g id="xtick_2">
     <g id="line2d_3">
      <path clip-path="url(#pc292a6ab60)" d="M 104.816687 198.122854 
L 104.816687 20.365896 
" style="fill:none;stroke:#000000;stroke-linecap:square;stroke-opacity:0.1;stroke-width:0.5;"/>
     </g>
     <g id="line2d_4">
      <g>
       <use style="stroke:#000000;stroke-width:0.8;" x="104.816687" xlink:href="#medfd0e8db0" y="198.122854"/>
      </g>
     </g>
     <g id="text_2">
      <!-- 2014 -->
      <defs>
       <path d="M 32.59375 69.5 
L 37.296875 69.5 
L 37.296875 28.796875 
L 45.59375 28.796875 
L 45.59375 22.40625 
L 37.296875 22.40625 
L 37.296875 4.40625 
L 26.09375 4.40625 
L 26.09375 22.40625 
L 1.90625 22.40625 
L 1.90625 27.5 
L 15.09375 45.5 
Q 19.59375 51.5 23.890625 57.5 
Q 28.203125 63.5 32.59375 69.5 
z
M 26.09375 28.796875 
L 26.09375 54.203125 
Q 22.703125 49.5 20.140625 46 
Q 17.59375 42.5 15.5 39.640625 
Q 13.40625 36.796875 11.546875 34.1875 
Q 9.703125 31.59375 7.703125 28.796875 
z
" id="STSongti-SC-Black-52"/>
      </defs>
      <g transform="translate(91.682937 211.702854)scale(0.14 -0.14)">
       <use xlink:href="#STSongti-SC-Black-50"/>
       <use x="46.899994" xlink:href="#STSongti-SC-Black-48"/>
       <use x="93.799988" xlink:href="#STSongti-SC-Black-49"/>
       <use x="140.699982" xlink:href="#STSongti-SC-Black-52"/>
      </g>
     </g>
    </g>
    <g id="xtick_3">
     <g id="line2d_5">
      <path clip-path="url(#pc292a6ab60)" d="M 154.967235 198.122854 
L 154.967235 20.365896 
" style="fill:none;stroke:#000000;stroke-linecap:square;stroke-opacity:0.1;stroke-width:0.5;"/>
     </g>
     <g id="line2d_6">
      <g>
       <use style="stroke:#000000;stroke-width:0.8;" x="154.967235" xlink:href="#medfd0e8db0" y="198.122854"/>
      </g>
     </g>
     <g id="text_3">
      <!-- 2015 -->
      <defs>
       <path d="M 38.90625 58.796875 
L 24 58.796875 
Q 20.09375 58.796875 17.09375 58.75 
Q 14.09375 58.703125 13.703125 58.5 
L 12.796875 45 
Q 15 46.09375 17.890625 46.59375 
Q 20.796875 47.09375 23.09375 47.09375 
Q 28.203125 47.09375 32.046875 45.4375 
Q 35.90625 43.796875 38.5 41.046875 
Q 41.09375 38.296875 42.390625 34.6875 
Q 43.703125 31.09375 43.703125 27.203125 
Q 43.703125 22.09375 41.59375 17.890625 
Q 39.5 13.703125 36.09375 10.703125 
Q 32.703125 7.703125 28.390625 6.046875 
Q 24.09375 4.40625 19.59375 4.40625 
Q 17.296875 4.40625 14.59375 4.84375 
Q 11.90625 5.296875 9.546875 6.140625 
Q 7.203125 7 5.640625 8.25 
Q 4.09375 9.5 4.09375 11.203125 
Q 4.09375 12.40625 4.890625 13.34375 
Q 5.703125 14.296875 6.796875 14.84375 
Q 7.90625 15.40625 9.09375 15.40625 
Q 10.296875 15.40625 11.09375 14.703125 
Q 13.5 12.703125 15.046875 11.296875 
Q 16.59375 9.90625 17.796875 9 
Q 19 8.09375 20.09375 7.6875 
Q 21.203125 7.296875 22.703125 7.296875 
Q 25.5 7.296875 27.59375 8.59375 
Q 29.703125 9.90625 31.140625 12.15625 
Q 32.59375 14.40625 33.34375 17.40625 
Q 34.09375 20.40625 34.09375 23.796875 
Q 34.09375 27 33.09375 29.640625 
Q 32.09375 32.296875 30.296875 34.25 
Q 28.5 36.203125 26.046875 37.296875 
Q 23.59375 38.40625 20.59375 38.40625 
Q 17.203125 38.40625 14.953125 37.65625 
Q 12.703125 36.90625 11.296875 35.5 
L 9.59375 35.5 
L 11.5 68.5 
L 24.09375 68.5 
Q 28 68.5 30.5 68.5 
Q 33 68.5 34.453125 68.75 
Q 35.90625 69 36.5 69.546875 
Q 37.09375 70.09375 37.296875 71.203125 
L 39.796875 71.203125 
z
" id="STSongti-SC-Black-53"/>
      </defs>
      <g transform="translate(141.833485 211.702854)scale(0.14 -0.14)">
       <use xlink:href="#STSongti-SC-Black-50"/>
       <use x="46.899994" xlink:href="#STSongti-SC-Black-48"/>
       <use x="93.799988" xlink:href="#STSongti-SC-Black-49"/>
       <use x="140.699982" xlink:href="#STSongti-SC-Black-53"/>
      </g>
     </g>
    </g>
    <g id="xtick_4">
     <g id="line2d_7">
      <path clip-path="url(#pc292a6ab60)" d="M 205.117783 198.122854 
L 205.117783 20.365896 
" style="fill:none;stroke:#000000;stroke-linecap:square;stroke-opacity:0.1;stroke-width:0.5;"/>
     </g>
     <g id="line2d_8">
      <g>
       <use style="stroke:#000000;stroke-width:0.8;" x="205.117783" xlink:href="#medfd0e8db0" y="198.122854"/>
      </g>
     </g>
     <g id="text_4">
      <!-- 2016 -->
      <defs>
       <path d="M 38.40625 69.796875 
L 39.203125 67.90625 
Q 33.40625 64.703125 28.84375 61.34375 
Q 24.296875 58 21.1875 53.59375 
Q 18.09375 49.203125 16.5 43.140625 
Q 14.90625 37.09375 14.90625 28.5 
Q 14.90625 25.703125 15.203125 22.09375 
Q 15.5 18.5 16.453125 15.25 
Q 17.40625 12 19.296875 9.796875 
Q 21.203125 7.59375 24.40625 7.59375 
Q 28.5 7.59375 31.046875 11.546875 
Q 33.59375 15.5 33.59375 24.40625 
Q 33.59375 31.90625 31.1875 35.65625 
Q 28.796875 39.40625 24.296875 39.40625 
Q 22.40625 39.40625 20.59375 38.59375 
L 19.796875 41.203125 
Q 21.40625 41.90625 23.15625 42.25 
Q 24.90625 42.59375 27.296875 42.59375 
Q 35.59375 42.59375 40 37.890625 
Q 44.40625 33.203125 44.40625 25.40625 
Q 44.40625 20.59375 42.75 16.75 
Q 41.09375 12.90625 38.296875 10.15625 
Q 35.5 7.40625 31.796875 5.90625 
Q 28.09375 4.40625 23.90625 4.40625 
Q 18.59375 4.40625 14.75 6.296875 
Q 10.90625 8.203125 8.34375 11.546875 
Q 5.796875 14.90625 4.59375 19.40625 
Q 3.40625 23.90625 3.40625 29.09375 
Q 3.40625 37.90625 6.15625 44.75 
Q 8.90625 51.59375 13.65625 56.59375 
Q 18.40625 61.59375 24.796875 64.84375 
Q 31.203125 68.09375 38.40625 69.796875 
z
" id="STSongti-SC-Black-54"/>
      </defs>
      <g transform="translate(191.984033 211.702854)scale(0.14 -0.14)">
       <use xlink:href="#STSongti-SC-Black-50"/>
       <use x="46.899994" xlink:href="#STSongti-SC-Black-48"/>
       <use x="93.799988" xlink:href="#STSongti-SC-Black-49"/>
       <use x="140.699982" xlink:href="#STSongti-SC-Black-54"/>
      </g>
     </g>
    </g>
    <g id="xtick_5">
     <g id="line2d_9">
      <path clip-path="url(#pc292a6ab60)" d="M 255.26833 198.122854 
L 255.26833 20.365896 
" style="fill:none;stroke:#000000;stroke-linecap:square;stroke-opacity:0.1;stroke-width:0.5;"/>
     </g>
     <g id="line2d_10">
      <g>
       <use style="stroke:#000000;stroke-width:0.8;" x="255.26833" xlink:href="#medfd0e8db0" y="198.122854"/>
      </g>
     </g>
     <g id="text_5">
      <!-- 2017 -->
      <defs>
       <path d="M 5.59375 68.5 
L 44.09375 68.5 
L 44.09375 66.796875 
Q 42.40625 63.796875 39.40625 56.1875 
Q 36.40625 48.59375 31.90625 36.09375 
Q 23.203125 11.5 22.296875 6 
L 16.296875 6 
Q 17.5 11.203125 19.09375 16.640625 
Q 20.703125 22.09375 22.84375 28.390625 
Q 25 34.703125 27.796875 42.046875 
Q 30.59375 49.40625 34.203125 58.296875 
L 9.90625 58.296875 
Q 7.296875 58.296875 7.203125 57 
L 6.40625 52.796875 
L 4.203125 52.796875 
z
" id="STSongti-SC-Black-55"/>
      </defs>
      <g transform="translate(242.13458 211.702854)scale(0.14 -0.14)">
       <use xlink:href="#STSongti-SC-Black-50"/>
       <use x="46.899994" xlink:href="#STSongti-SC-Black-48"/>
       <use x="93.799988" xlink:href="#STSongti-SC-Black-49"/>
       <use x="140.699982" xlink:href="#STSongti-SC-Black-55"/>
      </g>
     </g>
    </g>
    <g id="xtick_6">
     <g id="line2d_11">
      <path clip-path="url(#pc292a6ab60)" d="M 305.418878 198.122854 
L 305.418878 20.365896 
" style="fill:none;stroke:#000000;stroke-linecap:square;stroke-opacity:0.1;stroke-width:0.5;"/>
     </g>
     <g id="line2d_12">
      <g>
       <use style="stroke:#000000;stroke-width:0.8;" x="305.418878" xlink:href="#medfd0e8db0" y="198.122854"/>
      </g>
     </g>
     <g id="text_6">
      <!-- 2018 -->
      <defs>
       <path d="M 16.703125 37 
Q 4.40625 43.09375 4.40625 53.5 
Q 4.40625 56.59375 5.75 59.4375 
Q 7.09375 62.296875 9.640625 64.546875 
Q 12.203125 66.796875 15.703125 68.140625 
Q 19.203125 69.5 23.59375 69.5 
Q 27.5 69.5 30.75 68.390625 
Q 34 67.296875 36.34375 65.390625 
Q 38.703125 63.5 40 60.953125 
Q 41.296875 58.40625 41.296875 55.5 
Q 41.296875 52.59375 40.4375 50.5 
Q 39.59375 48.40625 38.09375 46.75 
Q 36.59375 45.09375 34.390625 43.640625 
Q 32.203125 42.203125 29.5 40.59375 
Q 34.40625 38.203125 37.203125 35.890625 
Q 40 33.59375 41.34375 31.34375 
Q 42.703125 29.09375 43 26.84375 
Q 43.296875 24.59375 43.296875 22.40625 
Q 43.296875 18.59375 41.640625 15.296875 
Q 40 12 37.25 9.59375 
Q 34.5 7.203125 30.796875 5.796875 
Q 27.09375 4.40625 22.90625 4.40625 
Q 18.5 4.40625 14.84375 5.65625 
Q 11.203125 6.90625 8.59375 9 
Q 6 11.09375 4.59375 13.9375 
Q 3.203125 16.796875 3.203125 20 
Q 3.203125 22.40625 3.84375 24.75 
Q 4.5 27.09375 6.09375 29.296875 
Q 7.703125 31.5 10.296875 33.390625 
Q 12.90625 35.296875 16.703125 37 
z
M 26.296875 42.296875 
Q 30 44.59375 31.59375 47.59375 
Q 33.203125 50.59375 33.203125 55.09375 
Q 33.203125 59.796875 30.75 62.796875 
Q 28.296875 65.796875 23 65.796875 
Q 18.09375 65.796875 15.796875 63.046875 
Q 13.5 60.296875 13.5 56.203125 
Q 13.5 52.09375 16.34375 48.84375 
Q 19.203125 45.59375 26.296875 42.296875 
z
M 19.59375 35.40625 
Q 17.296875 34 15.796875 32.453125 
Q 14.296875 30.90625 13.4375 29.15625 
Q 12.59375 27.40625 12.25 25.34375 
Q 11.90625 23.296875 11.90625 20.796875 
Q 11.90625 14.703125 15.25 11.09375 
Q 18.59375 7.5 23.703125 7.5 
Q 33.796875 7.5 33.796875 19.296875 
Q 33.796875 22.09375 32.9375 24.296875 
Q 32.09375 26.5 30.34375 28.390625 
Q 28.59375 30.296875 25.890625 32 
Q 23.203125 33.703125 19.59375 35.40625 
z
" id="STSongti-SC-Black-56"/>
      </defs>
      <g transform="translate(292.285128 211.702854)scale(0.14 -0.14)">
       <use xlink:href="#STSongti-SC-Black-50"/>
       <use x="46.899994" xlink:href="#STSongti-SC-Black-48"/>
       <use x="93.799988" xlink:href="#STSongti-SC-Black-49"/>
       <use x="140.699982" xlink:href="#STSongti-SC-Black-56"/>
      </g>
     </g>
    </g>
    <g id="xtick_7">
     <g id="line2d_13">
      <path clip-path="url(#pc292a6ab60)" d="M 355.569426 198.122854 
L 355.569426 20.365896 
" style="fill:none;stroke:#000000;stroke-linecap:square;stroke-opacity:0.1;stroke-width:0.5;"/>
     </g>
     <g id="line2d_14">
      <g>
       <use style="stroke:#000000;stroke-width:0.8;" x="355.569426" xlink:href="#medfd0e8db0" y="198.122854"/>
      </g>
     </g>
     <g id="text_7">
      <!-- 2019 -->
      <defs>
       <path d="M 25.90625 31.59375 
Q 23.203125 30.296875 20.296875 30.296875 
Q 16.703125 30.296875 13.5 31.390625 
Q 10.296875 32.5 7.890625 34.703125 
Q 5.5 36.90625 4.140625 40.296875 
Q 2.796875 43.703125 2.796875 48.296875 
Q 2.796875 52.90625 4.390625 56.796875 
Q 6 60.703125 8.75 63.546875 
Q 11.5 66.40625 15.140625 67.953125 
Q 18.796875 69.5 22.90625 69.5 
Q 27.296875 69.5 31 67.796875 
Q 34.703125 66.09375 37.34375 62.84375 
Q 40 59.59375 41.5 55 
Q 43 50.40625 43 44.703125 
Q 43 37.09375 40.34375 30.1875 
Q 37.703125 23.296875 33.09375 17.84375 
Q 28.5 12.40625 22.140625 8.75 
Q 15.796875 5.09375 8.5 4.09375 
L 8.09375 6.296875 
Q 14.296875 7.90625 18.546875 11.59375 
Q 22.796875 15.296875 25.4375 20.4375 
Q 28.09375 25.59375 29.25 32.046875 
Q 30.40625 38.5 30.40625 45.59375 
Q 30.40625 49.90625 30.15625 53.84375 
Q 29.90625 57.796875 29.15625 60.796875 
Q 28.40625 63.796875 26.90625 65.546875 
Q 25.40625 67.296875 22.90625 67.296875 
Q 20.59375 67.296875 19.046875 65.6875 
Q 17.5 64.09375 16.546875 61.546875 
Q 15.59375 59 15.1875 55.796875 
Q 14.796875 52.59375 14.796875 49.40625 
Q 14.796875 46.703125 15.34375 43.84375 
Q 15.90625 41 17 38.703125 
Q 18.09375 36.40625 19.6875 34.90625 
Q 21.296875 33.40625 23.40625 33.40625 
Q 24.796875 33.40625 25.59375 33.703125 
z
" id="STSongti-SC-Black-57"/>
      </defs>
      <g transform="translate(342.435676 211.702854)scale(0.14 -0.14)">
       <use xlink:href="#STSongti-SC-Black-50"/>
       <use x="46.899994" xlink:href="#STSongti-SC-Black-48"/>
       <use x="93.799988" xlink:href="#STSongti-SC-Black-49"/>
       <use x="140.699982" xlink:href="#STSongti-SC-Black-57"/>
      </g>
     </g>
    </g>
    <g id="xtick_8">
     <g id="line2d_15">
      <path clip-path="url(#pc292a6ab60)" d="M 405.719973 198.122854 
L 405.719973 20.365896 
" style="fill:none;stroke:#000000;stroke-linecap:square;stroke-opacity:0.1;stroke-width:0.5;"/>
     </g>
     <g id="line2d_16">
      <g>
       <use style="stroke:#000000;stroke-width:0.8;" x="405.719973" xlink:href="#medfd0e8db0" y="198.122854"/>
      </g>
     </g>
     <g id="text_8">
      <!-- 2020 -->
      <g transform="translate(392.586223 211.702854)scale(0.14 -0.14)">
       <use xlink:href="#STSongti-SC-Black-50"/>
       <use x="46.899994" xlink:href="#STSongti-SC-Black-48"/>
       <use x="93.799988" xlink:href="#STSongti-SC-Black-50"/>
       <use x="140.699982" xlink:href="#STSongti-SC-Black-48"/>
      </g>
     </g>
    </g>
   </g>
   <g id="matplotlib.axis_2">
    <g id="ytick_1">
     <g id="line2d_17">
      <path clip-path="url(#pc292a6ab60)" d="M 43.758396 198.122854 
L 429.165354 198.122854 
" style="fill:none;stroke:#000000;stroke-linecap:square;stroke-opacity:0.1;stroke-width:0.5;"/>
     </g>
     <g id="line2d_18">
      <defs>
       <path d="M 0 0 
L 3.5 0 
" id="mfb628ff72c" style="stroke:#000000;stroke-width:0.8;"/>
      </defs>
      <g>
       <use style="stroke:#000000;stroke-width:0.8;" x="43.758396" xlink:href="#mfb628ff72c" y="198.122854"/>
      </g>
     </g>
     <g id="text_9">
      <!-- 0 -->
      <g transform="translate(33.691521 203.162854)scale(0.14 -0.14)">
       <use xlink:href="#STSongti-SC-Black-48"/>
      </g>
     </g>
    </g>
    <g id="ytick_2">
     <g id="line2d_19">
      <path clip-path="url(#pc292a6ab60)" d="M 43.758396 156.87994 
L 429.165354 156.87994 
" style="fill:none;stroke:#000000;stroke-linecap:square;stroke-opacity:0.1;stroke-width:0.5;"/>
     </g>
     <g id="line2d_20">
      <g>
       <use style="stroke:#000000;stroke-width:0.8;" x="43.758396" xlink:href="#mfb628ff72c" y="156.87994"/>
      </g>
     </g>
     <g id="text_10">
      <!-- 100 -->
      <g transform="translate(20.557771 161.91994)scale(0.14 -0.14)">
       <use xlink:href="#STSongti-SC-Black-49"/>
       <use x="46.899994" xlink:href="#STSongti-SC-Black-48"/>
       <use x="93.799988" xlink:href="#STSongti-SC-Black-48"/>
      </g>
     </g>
    </g>
    <g id="ytick_3">
     <g id="line2d_21">
      <path clip-path="url(#pc292a6ab60)" d="M 43.758396 115.637027 
L 429.165354 115.637027 
" style="fill:none;stroke:#000000;stroke-linecap:square;stroke-opacity:0.1;stroke-width:0.5;"/>
     </g>
     <g id="line2d_22">
      <g>
       <use style="stroke:#000000;stroke-width:0.8;" x="43.758396" xlink:href="#mfb628ff72c" y="115.637027"/>
      </g>
     </g>
     <g id="text_11">
      <!-- 200 -->
      <g transform="translate(20.557771 120.677027)scale(0.14 -0.14)">
       <use xlink:href="#STSongti-SC-Black-50"/>
       <use x="46.899994" xlink:href="#STSongti-SC-Black-48"/>
       <use x="93.799988" xlink:href="#STSongti-SC-Black-48"/>
      </g>
     </g>
    </g>
    <g id="ytick_4">
     <g id="line2d_23">
      <path clip-path="url(#pc292a6ab60)" d="M 43.758396 74.394113 
L 429.165354 74.394113 
" style="fill:none;stroke:#000000;stroke-linecap:square;stroke-opacity:0.1;stroke-width:0.5;"/>
     </g>
     <g id="line2d_24">
      <g>
       <use style="stroke:#000000;stroke-width:0.8;" x="43.758396" xlink:href="#mfb628ff72c" y="74.394113"/>
      </g>
     </g>
     <g id="text_12">
      <!-- 300 -->
      <g transform="translate(20.557771 79.434113)scale(0.14 -0.14)">
       <use xlink:href="#STSongti-SC-Black-51"/>
       <use x="46.899994" xlink:href="#STSongti-SC-Black-48"/>
       <use x="93.799988" xlink:href="#STSongti-SC-Black-48"/>
      </g>
     </g>
    </g>
    <g id="ytick_5">
     <g id="line2d_25">
      <path clip-path="url(#pc292a6ab60)" d="M 43.758396 33.151199 
L 429.165354 33.151199 
" style="fill:none;stroke:#000000;stroke-linecap:square;stroke-opacity:0.1;stroke-width:0.5;"/>
     </g>
     <g id="line2d_26">
      <g>
       <use style="stroke:#000000;stroke-width:0.8;" x="43.758396" xlink:href="#mfb628ff72c" y="33.151199"/>
      </g>
     </g>
     <g id="text_13">
      <!-- 400 -->
      <g transform="translate(20.557771 38.191199)scale(0.14 -0.14)">
       <use xlink:href="#STSongti-SC-Black-52"/>
       <use x="46.899994" xlink:href="#STSongti-SC-Black-48"/>
       <use x="93.799988" xlink:href="#STSongti-SC-Black-48"/>
      </g>
     </g>
    </g>
    <g id="text_14">
     <!-- Counts (个) -->
     <defs>
      <path d="M 61.09375 22.796875 
Q 60.796875 21.296875 60.5 19.25 
Q 60.203125 17.203125 59.796875 15 
Q 59.40625 12.796875 58.953125 10.6875 
Q 58.5 8.59375 58 6.90625 
Q 54.796875 5.59375 50 5 
Q 45.203125 4.40625 38.203125 4.40625 
Q 31.203125 4.40625 24.84375 6.5 
Q 18.5 8.59375 13.640625 12.59375 
Q 8.796875 16.59375 5.890625 22.4375 
Q 3 28.296875 3 35.90625 
Q 3 43.5 5.59375 49.703125 
Q 8.203125 55.90625 12.75 60.296875 
Q 17.296875 64.703125 23.4375 67.09375 
Q 29.59375 69.5 36.703125 69.5 
Q 42.5 69.5 46.703125 68.84375 
Q 50.90625 68.203125 53.59375 67.40625 
Q 56.796875 66.5 58.90625 65.40625 
Q 59 64.203125 59.09375 62.046875 
Q 59.203125 59.90625 59.25 57.5 
Q 59.296875 55.09375 59.25 52.890625 
Q 59.203125 50.703125 59.203125 49.40625 
L 56.296875 49.40625 
Q 56 52.296875 54.953125 55.140625 
Q 53.90625 58 51.84375 60.296875 
Q 49.796875 62.59375 46.640625 64 
Q 43.5 65.40625 39 65.40625 
Q 34 65.40625 29.953125 63.796875 
Q 25.90625 62.203125 23.046875 58.890625 
Q 20.203125 55.59375 18.59375 50.4375 
Q 17 45.296875 17 38.203125 
Q 17 30.203125 18.84375 24.59375 
Q 20.703125 19 23.84375 15.453125 
Q 27 11.90625 31.296875 10.25 
Q 35.59375 8.59375 40.59375 8.59375 
Q 44 8.59375 46.703125 9.59375 
Q 49.40625 10.59375 51.546875 12.390625 
Q 53.703125 14.203125 55.453125 16.84375 
Q 57.203125 19.5 58.796875 22.796875 
z
" id="STSongti-SC-Black-67"/>
      <path d="M 23.5 4.40625 
Q 18.203125 4.40625 14.296875 5.953125 
Q 10.40625 7.5 7.75 10.296875 
Q 5.09375 13.09375 3.796875 16.84375 
Q 2.5 20.59375 2.5 25.09375 
Q 2.5 29.703125 3.796875 33.546875 
Q 5.09375 37.40625 7.75 40.15625 
Q 10.40625 42.90625 14.5 44.453125 
Q 18.59375 46 24.296875 46 
Q 30 46 34.046875 44.390625 
Q 38.09375 42.796875 40.75 39.9375 
Q 43.40625 37.09375 44.65625 33.25 
Q 45.90625 29.40625 45.90625 24.90625 
Q 45.90625 20.296875 44.34375 16.546875 
Q 42.796875 12.796875 39.9375 10.09375 
Q 37.09375 7.40625 32.890625 5.90625 
Q 28.703125 4.40625 23.5 4.40625 
z
M 15.09375 24.40625 
Q 15.09375 16.90625 17.34375 12.546875 
Q 19.59375 8.203125 24 8.203125 
Q 28.296875 8.203125 30.6875 12.796875 
Q 33.09375 17.40625 33.09375 25 
Q 33.09375 32.59375 30.84375 37.34375 
Q 28.59375 42.09375 24 42.09375 
Q 19.5 42.09375 17.296875 37.640625 
Q 15.09375 33.203125 15.09375 24.40625 
z
" id="STSongti-SC-Black-111"/>
      <path d="M 1.5 44.09375 
L 19.5 44.09375 
L 19.5 20.203125 
Q 19.5 15.40625 21.140625 13.40625 
Q 22.796875 11.40625 25.703125 11.40625 
Q 28.09375 11.40625 29.84375 12.15625 
Q 31.59375 12.90625 33.59375 14.59375 
L 33.59375 37.703125 
Q 33.59375 38.5 33.5 39.09375 
Q 33.40625 39.703125 32.75 40.140625 
Q 32.09375 40.59375 30.59375 40.890625 
Q 29.09375 41.203125 26.40625 41.5 
L 26.40625 44.09375 
L 45.09375 44.09375 
L 45.09375 15.703125 
Q 45.09375 14.203125 45.1875 13.203125 
Q 45.296875 12.203125 45.84375 11.640625 
Q 46.40625 11.09375 47.65625 10.890625 
Q 48.90625 10.703125 51.203125 10.59375 
Q 51.203125 10 51.25 9.34375 
Q 51.296875 8.703125 51.296875 8.09375 
L 33.59375 4.5 
L 33.59375 12.09375 
Q 31.90625 10.296875 30.40625 8.84375 
Q 28.90625 7.40625 27.296875 6.40625 
Q 25.703125 5.40625 23.75 4.90625 
Q 21.796875 4.40625 19.203125 4.40625 
Q 13 4.40625 10.5 8.09375 
Q 8 11.796875 8 17.90625 
L 8 37.796875 
Q 8 38.703125 7.796875 39.25 
Q 7.59375 39.796875 6.890625 40.25 
Q 6.203125 40.703125 4.953125 41 
Q 3.703125 41.296875 1.5 41.703125 
z
" id="STSongti-SC-Black-117"/>
      <path d="M 51.5 5.703125 
Q 46.296875 6 39.9375 6 
Q 33.59375 6 28.40625 5.703125 
L 28.40625 8.203125 
L 31.90625 9 
Q 34.09375 9.296875 34.09375 12.90625 
L 34.09375 29.703125 
Q 34.09375 31.90625 33.9375 33.546875 
Q 33.796875 35.203125 33.25 36.34375 
Q 32.703125 37.5 31.546875 38.046875 
Q 30.40625 38.59375 28.40625 38.59375 
Q 26.09375 38.59375 23.546875 37.140625 
Q 21 35.703125 19.296875 33.703125 
L 19.296875 11.796875 
Q 19.296875 10.203125 21.703125 9.59375 
L 24.59375 8.203125 
L 24.59375 5.703125 
Q 23.703125 5.796875 22.84375 5.84375 
Q 22 5.90625 21 5.953125 
Q 20 6 18.796875 6 
Q 17.59375 6 15.796875 6 
L 12.703125 6 
Q 9.5 6 6.25 5.953125 
Q 3 5.90625 1.5 5.703125 
L 1.5 8.203125 
L 5.796875 9.203125 
Q 6.796875 9.40625 7.296875 10.09375 
Q 7.796875 10.796875 7.796875 12.203125 
L 7.796875 31.90625 
Q 7.796875 35 6.546875 36.09375 
Q 5.296875 37.203125 2.09375 37.703125 
L 2.09375 39.59375 
Q 3.703125 40 5.84375 40.59375 
Q 8 41.203125 10.09375 42.140625 
Q 12.203125 43.09375 14 44.4375 
Q 15.796875 45.796875 16.703125 47.703125 
L 19.296875 47.703125 
L 19.296875 38 
Q 22.296875 41.703125 25.796875 43.796875 
Q 29.296875 45.90625 32.796875 45.90625 
Q 38.59375 45.90625 42.09375 42.5 
Q 45.59375 39.09375 45.59375 32.203125 
L 45.59375 13.203125 
Q 45.59375 11.203125 46.09375 10.296875 
Q 46.59375 9.40625 48.09375 9 
L 51.5 8.203125 
z
" id="STSongti-SC-Black-110"/>
      <path d="M 17.40625 54.203125 
L 19.59375 54.203125 
Q 19.59375 51.5 19.640625 48.84375 
Q 19.703125 46.203125 19.703125 43.5 
L 32.203125 43.796875 
L 32.203125 39.09375 
L 19.703125 38.703125 
L 19.703125 20.703125 
Q 19.703125 16.296875 20.796875 14.1875 
Q 21.90625 12.09375 25.40625 12.09375 
Q 26.90625 12.09375 28.703125 12.4375 
Q 30.5 12.796875 32.59375 14.59375 
L 33.5 13.203125 
Q 32.796875 11.796875 31.59375 10.25 
Q 30.40625 8.703125 28.65625 7.390625 
Q 26.90625 6.09375 24.703125 5.25 
Q 22.5 4.40625 19.703125 4.40625 
Q 14.09375 4.40625 11.25 7.25 
Q 8.40625 10.09375 8.40625 17 
L 8.40625 38.5 
Q 7 38.5 5.703125 38.453125 
Q 4.40625 38.40625 3 38.40625 
Q 1.59375 38.40625 1.546875 39.703125 
Q 1.5 41 2.90625 41.59375 
Q 5.09375 42.5 6.9375 43.5 
Q 8.796875 44.5 10 45.5 
Q 10.59375 46 11.640625 46.84375 
Q 12.703125 47.703125 13.796875 48.796875 
Q 14.90625 49.90625 15.84375 51.296875 
Q 16.796875 52.703125 17.40625 54.203125 
z
" id="STSongti-SC-Black-116"/>
      <path d="M 28 32.703125 
Q 27.703125 34.09375 27.140625 35.75 
Q 26.59375 37.40625 25.546875 38.796875 
Q 24.5 40.203125 22.796875 41.140625 
Q 21.09375 42.09375 18.5 42.09375 
Q 17.296875 42.09375 16.140625 41.890625 
Q 15 41.703125 14 41.203125 
Q 13 40.703125 12.390625 39.796875 
Q 11.796875 38.90625 11.796875 37.5 
Q 11.796875 36 12.59375 34.953125 
Q 13.40625 33.90625 14.84375 33.15625 
Q 16.296875 32.40625 18.34375 31.796875 
Q 20.40625 31.203125 22.90625 30.5 
Q 26.203125 29.59375 28.296875 28.390625 
Q 30.40625 27.203125 31.59375 25.703125 
Q 32.796875 24.203125 33.25 22.453125 
Q 33.703125 20.703125 33.703125 18.703125 
Q 33.703125 14.703125 32.203125 11.953125 
Q 30.703125 9.203125 28.203125 7.546875 
Q 25.703125 5.90625 22.453125 5.15625 
Q 19.203125 4.40625 15.796875 4.40625 
Q 12.203125 4.40625 8.953125 5.046875 
Q 5.703125 5.703125 3.40625 7 
L 2.40625 19.296875 
L 4.90625 19.296875 
Q 6.296875 13.90625 9.140625 11.09375 
Q 12 8.296875 16.90625 8.296875 
Q 19.796875 8.296875 22.140625 9.6875 
Q 24.5 11.09375 24.5 14.296875 
Q 24.5 17.203125 22.453125 18.546875 
Q 20.40625 19.90625 15.40625 21.09375 
Q 8.09375 22.796875 5.1875 25.75 
Q 2.296875 28.703125 2.296875 33.90625 
Q 2.296875 36.90625 3.75 39.15625 
Q 5.203125 41.40625 7.546875 42.90625 
Q 9.90625 44.40625 12.84375 45.15625 
Q 15.796875 45.90625 18.90625 45.90625 
Q 22 45.90625 25 45.296875 
Q 28 44.703125 30 43.5 
L 30.59375 32.703125 
z
" id="STSongti-SC-Black-115"/>
      <path id="STSongti-SC-Black-32"/>
      <path d="M 28.796875 74.703125 
L 30.09375 72.09375 
Q 25.09375 67.59375 22.046875 62.140625 
Q 19 56.703125 17.296875 51.09375 
Q 15.59375 45.5 15 40.09375 
Q 14.40625 34.703125 14.40625 30.40625 
Q 14.40625 26 15.15625 20.453125 
Q 15.90625 14.90625 17.65625 9.09375 
Q 19.40625 3.296875 22.34375 -2.09375 
Q 25.296875 -7.5 29.796875 -11.40625 
L 28.59375 -13.703125 
Q 23.5 -10 19 -5.453125 
Q 14.5 -0.90625 11.046875 4.59375 
Q 7.59375 10.09375 5.59375 16.59375 
Q 3.59375 23.09375 3.59375 30.796875 
Q 3.59375 38.5 5.59375 45.046875 
Q 7.59375 51.59375 11.046875 57.046875 
Q 14.5 62.5 19.09375 66.890625 
Q 23.703125 71.296875 28.796875 74.703125 
z
" id="STSongti-SC-Black-40"/>
      <path d="M 53.90625 70.5 
Q 45.59375 57.796875 34.390625 48.34375 
Q 23.203125 38.90625 13.953125 34.25 
Q 4.703125 29.59375 3.296875 29.59375 
Q 3.09375 29.59375 3.09375 29.703125 
Q 3.09375 30.09375 4.296875 30.90625 
Q 20.09375 41.703125 29.4375 54.453125 
Q 38.796875 67.203125 43.203125 82.90625 
Q 49.203125 81.5 53.796875 80.203125 
Q 58.40625 78.90625 59.75 78.25 
Q 61.09375 77.59375 61.09375 76.84375 
Q 61.09375 76.09375 59.59375 75.59375 
Q 58.09375 75.09375 55.703125 72.5 
Q 60.703125 63.296875 72.140625 56.5 
Q 83.59375 49.703125 99.59375 46.5 
Q 100.703125 46.296875 100.703125 45.796875 
Q 100.703125 45.296875 99.5 45 
Q 96.296875 44.203125 93.296875 41.046875 
Q 90.296875 37.90625 88.5 33.90625 
Q 88.203125 33.203125 87.59375 33.203125 
Q 86.203125 33.203125 76.453125 39.546875 
Q 66.703125 45.90625 61.5 53.34375 
Q 56.296875 60.796875 53.90625 70.5 
z
M 43.796875 52.203125 
Q 59.5 50.703125 59.5 48.703125 
Q 59.5 47.796875 57.09375 46.40625 
L 57.09375 2.296875 
Q 57.09375 -1 57.203125 -4.703125 
L 57.40625 -8.09375 
Q 57.40625 -8.796875 56.75 -9.5 
Q 56.09375 -10.203125 53.046875 -10.890625 
Q 50 -11.59375 46.84375 -11.59375 
Q 43.703125 -11.59375 43.703125 -9.703125 
L 43.90625 -5.796875 
Q 44 -1.796875 44 3.203125 
L 44 43.296875 
Q 44 48.296875 43.796875 52.203125 
z
" id="STSongti-SC-Black-20010"/>
      <path d="M 2.90625 74.703125 
Q 8 71.296875 12.59375 66.890625 
Q 17.203125 62.5 20.640625 57.046875 
Q 24.09375 51.59375 26.09375 45.046875 
Q 28.09375 38.5 28.09375 30.796875 
Q 28.09375 23.09375 26.09375 16.59375 
Q 24.09375 10.09375 20.640625 4.59375 
Q 17.203125 -0.90625 12.703125 -5.453125 
Q 8.203125 -10 3.09375 -13.703125 
L 1.90625 -11.40625 
Q 6.40625 -7.5 9.34375 -2.09375 
Q 12.296875 3.296875 14.046875 9.09375 
Q 15.796875 14.90625 16.546875 20.453125 
Q 17.296875 26 17.296875 30.40625 
Q 17.296875 34.703125 16.6875 40.09375 
Q 16.09375 45.5 14.390625 51.09375 
Q 12.703125 56.703125 9.59375 62.140625 
Q 6.5 67.59375 1.59375 72.09375 
z
" id="STSongti-SC-Black-41"/>
     </defs>
     <g transform="translate(14.610896 142.23625)rotate(-90)scale(0.14 -0.14)">
      <use xlink:href="#STSongti-SC-Black-67"/>
      <use x="63.599991" xlink:href="#STSongti-SC-Black-111"/>
      <use x="111.999985" xlink:href="#STSongti-SC-Black-117"/>
      <use x="164.799973" xlink:href="#STSongti-SC-Black-110"/>
      <use x="217.799957" xlink:href="#STSongti-SC-Black-116"/>
      <use x="251.999954" xlink:href="#STSongti-SC-Black-115"/>
      <use x="287.899948" xlink:href="#STSongti-SC-Black-32"/>
      <use x="312.899933" xlink:href="#STSongti-SC-Black-40"/>
      <use x="342.09993" xlink:href="#STSongti-SC-Black-20010"/>
      <use x="442.099915" xlink:href="#STSongti-SC-Black-41"/>
     </g>
    </g>
   </g>
   <g id="line2d_27">
    <path clip-path="url(#pc292a6ab60)" d="M 54.66614 198.122854 
L 54.66614 198.122854 
" style="fill:none;stroke:#009afa;stroke-linecap:round;"/>
   </g>
   <g id="line2d_28">
    <path clip-path="url(#pc292a6ab60)" d="M 58.845352 198.122854 
L 58.845352 198.122854 
" style="fill:none;stroke:#009afa;stroke-linecap:round;"/>
   </g>
   <g id="line2d_29">
    <path clip-path="url(#pc292a6ab60)" d="M 63.024564 198.122854 
L 63.024564 198.122854 
" style="fill:none;stroke:#009afa;stroke-linecap:round;"/>
   </g>
   <g id="line2d_30">
    <path clip-path="url(#pc292a6ab60)" d="M 67.203777 198.122854 
L 67.203777 197.297996 
" style="fill:none;stroke:#009afa;stroke-linecap:round;"/>
   </g>
   <g id="line2d_31">
    <path clip-path="url(#pc292a6ab60)" d="M 71.382989 198.122854 
L 71.382989 198.122854 
" style="fill:none;stroke:#009afa;stroke-linecap:round;"/>
   </g>
   <g id="line2d_32">
    <path clip-path="url(#pc292a6ab60)" d="M 75.562201 198.122854 
L 75.562201 198.122854 
" style="fill:none;stroke:#009afa;stroke-linecap:round;"/>
   </g>
   <g id="line2d_33">
    <path clip-path="url(#pc292a6ab60)" d="M 79.741414 198.122854 
L 79.741414 198.122854 
" style="fill:none;stroke:#009afa;stroke-linecap:round;"/>
   </g>
   <g id="line2d_34">
    <path clip-path="url(#pc292a6ab60)" d="M 83.920626 198.122854 
L 83.920626 198.122854 
" style="fill:none;stroke:#009afa;stroke-linecap:round;"/>
   </g>
   <g id="line2d_35">
    <path clip-path="url(#pc292a6ab60)" d="M 88.099838 198.122854 
L 88.099838 198.122854 
" style="fill:none;stroke:#009afa;stroke-linecap:round;"/>
   </g>
   <g id="line2d_36">
    <path clip-path="url(#pc292a6ab60)" d="M 92.279051 198.122854 
L 92.279051 197.710425 
" style="fill:none;stroke:#009afa;stroke-linecap:round;"/>
   </g>
   <g id="line2d_37">
    <path clip-path="url(#pc292a6ab60)" d="M 96.458263 198.122854 
L 96.458263 196.885567 
" style="fill:none;stroke:#009afa;stroke-linecap:round;"/>
   </g>
   <g id="line2d_38">
    <path clip-path="url(#pc292a6ab60)" d="M 100.637475 198.122854 
L 100.637475 198.122854 
" style="fill:none;stroke:#009afa;stroke-linecap:round;"/>
   </g>
   <g id="line2d_39">
    <path clip-path="url(#pc292a6ab60)" d="M 104.816687 198.122854 
L 104.816687 197.710425 
" style="fill:none;stroke:#009afa;stroke-linecap:round;"/>
   </g>
   <g id="line2d_40">
    <path clip-path="url(#pc292a6ab60)" d="M 108.9959 198.122854 
L 108.9959 198.122854 
" style="fill:none;stroke:#009afa;stroke-linecap:round;"/>
   </g>
   <g id="line2d_41">
    <path clip-path="url(#pc292a6ab60)" d="M 113.175112 198.122854 
L 113.175112 196.885567 
" style="fill:none;stroke:#009afa;stroke-linecap:round;"/>
   </g>
   <g id="line2d_42">
    <path clip-path="url(#pc292a6ab60)" d="M 117.354324 198.122854 
L 117.354324 198.122854 
" style="fill:none;stroke:#009afa;stroke-linecap:round;"/>
   </g>
   <g id="line2d_43">
    <path clip-path="url(#pc292a6ab60)" d="M 121.533537 198.122854 
L 121.533537 198.122854 
" style="fill:none;stroke:#009afa;stroke-linecap:round;"/>
   </g>
   <g id="line2d_44">
    <path clip-path="url(#pc292a6ab60)" d="M 125.712749 198.122854 
L 125.712749 198.122854 
" style="fill:none;stroke:#009afa;stroke-linecap:round;"/>
   </g>
   <g id="line2d_45">
    <path clip-path="url(#pc292a6ab60)" d="M 129.891961 198.122854 
L 129.891961 198.122854 
" style="fill:none;stroke:#009afa;stroke-linecap:round;"/>
   </g>
   <g id="line2d_46">
    <path clip-path="url(#pc292a6ab60)" d="M 134.071174 198.122854 
L 134.071174 197.710425 
" style="fill:none;stroke:#009afa;stroke-linecap:round;"/>
   </g>
   <g id="line2d_47">
    <path clip-path="url(#pc292a6ab60)" d="M 138.250386 198.122854 
L 138.250386 195.64828 
" style="fill:none;stroke:#009afa;stroke-linecap:round;"/>
   </g>
   <g id="line2d_48">
    <path clip-path="url(#pc292a6ab60)" d="M 142.429598 198.122854 
L 142.429598 193.586134 
" style="fill:none;stroke:#009afa;stroke-linecap:round;"/>
   </g>
   <g id="line2d_49">
    <path clip-path="url(#pc292a6ab60)" d="M 146.60881 198.122854 
L 146.60881 197.710425 
" style="fill:none;stroke:#009afa;stroke-linecap:round;"/>
   </g>
   <g id="line2d_50">
    <path clip-path="url(#pc292a6ab60)" d="M 150.788023 198.122854 
L 150.788023 198.122854 
" style="fill:none;stroke:#009afa;stroke-linecap:round;"/>
   </g>
   <g id="line2d_51">
    <path clip-path="url(#pc292a6ab60)" d="M 154.967235 198.122854 
L 154.967235 196.060709 
" style="fill:none;stroke:#009afa;stroke-linecap:round;"/>
   </g>
   <g id="line2d_52">
    <path clip-path="url(#pc292a6ab60)" d="M 159.146447 198.122854 
L 159.146447 197.710425 
" style="fill:none;stroke:#009afa;stroke-linecap:round;"/>
   </g>
   <g id="line2d_53">
    <path clip-path="url(#pc292a6ab60)" d="M 163.32566 198.122854 
L 163.32566 198.122854 
" style="fill:none;stroke:#009afa;stroke-linecap:round;"/>
   </g>
   <g id="line2d_54">
    <path clip-path="url(#pc292a6ab60)" d="M 167.504872 198.122854 
L 167.504872 197.710425 
" style="fill:none;stroke:#009afa;stroke-linecap:round;"/>
   </g>
   <g id="line2d_55">
    <path clip-path="url(#pc292a6ab60)" d="M 171.684084 198.122854 
L 171.684084 197.710425 
" style="fill:none;stroke:#009afa;stroke-linecap:round;"/>
   </g>
   <g id="line2d_56">
    <path clip-path="url(#pc292a6ab60)" d="M 175.863297 198.122854 
L 175.863297 198.122854 
" style="fill:none;stroke:#009afa;stroke-linecap:round;"/>
   </g>
   <g id="line2d_57">
    <path clip-path="url(#pc292a6ab60)" d="M 180.042509 198.122854 
L 180.042509 197.297996 
" style="fill:none;stroke:#009afa;stroke-linecap:round;"/>
   </g>
   <g id="line2d_58">
    <path clip-path="url(#pc292a6ab60)" d="M 184.221721 198.122854 
L 184.221721 197.710425 
" style="fill:none;stroke:#009afa;stroke-linecap:round;"/>
   </g>
   <g id="line2d_59">
    <path clip-path="url(#pc292a6ab60)" d="M 188.400934 198.122854 
L 188.400934 198.122854 
" style="fill:none;stroke:#009afa;stroke-linecap:round;"/>
   </g>
   <g id="line2d_60">
    <path clip-path="url(#pc292a6ab60)" d="M 192.580146 198.122854 
L 192.580146 197.710425 
" style="fill:none;stroke:#009afa;stroke-linecap:round;"/>
   </g>
   <g id="line2d_61">
    <path clip-path="url(#pc292a6ab60)" d="M 196.759358 198.122854 
L 196.759358 190.69913 
" style="fill:none;stroke:#009afa;stroke-linecap:round;"/>
   </g>
   <g id="line2d_62">
    <path clip-path="url(#pc292a6ab60)" d="M 200.93857 198.122854 
L 200.93857 198.122854 
" style="fill:none;stroke:#009afa;stroke-linecap:round;"/>
   </g>
   <g id="line2d_63">
    <path clip-path="url(#pc292a6ab60)" d="M 205.117783 198.122854 
L 205.117783 198.122854 
" style="fill:none;stroke:#009afa;stroke-linecap:round;"/>
   </g>
   <g id="line2d_64">
    <path clip-path="url(#pc292a6ab60)" d="M 209.296995 198.122854 
L 209.296995 197.710425 
" style="fill:none;stroke:#009afa;stroke-linecap:round;"/>
   </g>
   <g id="line2d_65">
    <path clip-path="url(#pc292a6ab60)" d="M 213.476207 198.122854 
L 213.476207 198.122854 
" style="fill:none;stroke:#009afa;stroke-linecap:round;"/>
   </g>
   <g id="line2d_66">
    <path clip-path="url(#pc292a6ab60)" d="M 217.65542 198.122854 
L 217.65542 197.710425 
" style="fill:none;stroke:#009afa;stroke-linecap:round;"/>
   </g>
   <g id="line2d_67">
    <path clip-path="url(#pc292a6ab60)" d="M 221.834632 198.122854 
L 221.834632 197.710425 
" style="fill:none;stroke:#009afa;stroke-linecap:round;"/>
   </g>
   <g id="line2d_68">
    <path clip-path="url(#pc292a6ab60)" d="M 226.013844 198.122854 
L 226.013844 198.122854 
" style="fill:none;stroke:#009afa;stroke-linecap:round;"/>
   </g>
   <g id="line2d_69">
    <path clip-path="url(#pc292a6ab60)" d="M 230.193057 198.122854 
L 230.193057 193.173705 
" style="fill:none;stroke:#009afa;stroke-linecap:round;"/>
   </g>
   <g id="line2d_70">
    <path clip-path="url(#pc292a6ab60)" d="M 234.372269 198.122854 
L 234.372269 150.693503 
" style="fill:none;stroke:#009afa;stroke-linecap:round;"/>
   </g>
   <g id="line2d_71">
    <path clip-path="url(#pc292a6ab60)" d="M 238.551481 198.122854 
L 238.551481 192.348846 
" style="fill:none;stroke:#009afa;stroke-linecap:round;"/>
   </g>
   <g id="line2d_72">
    <path clip-path="url(#pc292a6ab60)" d="M 242.730693 198.122854 
L 242.730693 192.761276 
" style="fill:none;stroke:#009afa;stroke-linecap:round;"/>
   </g>
   <g id="line2d_73">
    <path clip-path="url(#pc292a6ab60)" d="M 246.909906 198.122854 
L 246.909906 181.21326 
" style="fill:none;stroke:#009afa;stroke-linecap:round;"/>
   </g>
   <g id="line2d_74">
    <path clip-path="url(#pc292a6ab60)" d="M 251.089118 198.122854 
L 251.089118 180.800831 
" style="fill:none;stroke:#009afa;stroke-linecap:round;"/>
   </g>
   <g id="line2d_75">
    <path clip-path="url(#pc292a6ab60)" d="M 255.26833 198.122854 
L 255.26833 193.998563 
" style="fill:none;stroke:#009afa;stroke-linecap:round;"/>
   </g>
   <g id="line2d_76">
    <path clip-path="url(#pc292a6ab60)" d="M 259.447543 198.122854 
L 259.447543 194.823421 
" style="fill:none;stroke:#009afa;stroke-linecap:round;"/>
   </g>
   <g id="line2d_77">
    <path clip-path="url(#pc292a6ab60)" d="M 263.626755 198.122854 
L 263.626755 186.574838 
" style="fill:none;stroke:#009afa;stroke-linecap:round;"/>
   </g>
   <g id="line2d_78">
    <path clip-path="url(#pc292a6ab60)" d="M 267.805967 198.122854 
L 267.805967 193.586134 
" style="fill:none;stroke:#009afa;stroke-linecap:round;"/>
   </g>
   <g id="line2d_79">
    <path clip-path="url(#pc292a6ab60)" d="M 271.98518 198.122854 
L 271.98518 176.676539 
" style="fill:none;stroke:#009afa;stroke-linecap:round;"/>
   </g>
   <g id="line2d_80">
    <path clip-path="url(#pc292a6ab60)" d="M 276.164392 198.122854 
L 276.164392 166.365811 
" style="fill:none;stroke:#009afa;stroke-linecap:round;"/>
   </g>
   <g id="line2d_81">
    <path clip-path="url(#pc292a6ab60)" d="M 280.343604 198.122854 
L 280.343604 182.862976 
" style="fill:none;stroke:#009afa;stroke-linecap:round;"/>
   </g>
   <g id="line2d_82">
    <path clip-path="url(#pc292a6ab60)" d="M 284.522816 198.122854 
L 284.522816 179.563543 
" style="fill:none;stroke:#009afa;stroke-linecap:round;"/>
   </g>
   <g id="line2d_83">
    <path clip-path="url(#pc292a6ab60)" d="M 288.702029 198.122854 
L 288.702029 164.716094 
" style="fill:none;stroke:#009afa;stroke-linecap:round;"/>
   </g>
   <g id="line2d_84">
    <path clip-path="url(#pc292a6ab60)" d="M 292.881241 198.122854 
L 292.881241 173.377106 
" style="fill:none;stroke:#009afa;stroke-linecap:round;"/>
   </g>
   <g id="line2d_85">
    <path clip-path="url(#pc292a6ab60)" d="M 297.060453 198.122854 
L 297.060453 174.201964 
" style="fill:none;stroke:#009afa;stroke-linecap:round;"/>
   </g>
   <g id="line2d_86">
    <path clip-path="url(#pc292a6ab60)" d="M 301.239666 198.122854 
L 301.239666 158.942086 
" style="fill:none;stroke:#009afa;stroke-linecap:round;"/>
   </g>
   <g id="line2d_87">
    <path clip-path="url(#pc292a6ab60)" d="M 305.418878 198.122854 
L 305.418878 182.450547 
" style="fill:none;stroke:#009afa;stroke-linecap:round;"/>
   </g>
   <g id="line2d_88">
    <path clip-path="url(#pc292a6ab60)" d="M 309.59809 198.122854 
L 309.59809 180.800831 
" style="fill:none;stroke:#009afa;stroke-linecap:round;"/>
   </g>
   <g id="line2d_89">
    <path clip-path="url(#pc292a6ab60)" d="M 313.777303 198.122854 
L 313.777303 175.851681 
" style="fill:none;stroke:#009afa;stroke-linecap:round;"/>
   </g>
   <g id="line2d_90">
    <path clip-path="url(#pc292a6ab60)" d="M 317.956515 198.122854 
L 317.956515 185.74998 
" style="fill:none;stroke:#009afa;stroke-linecap:round;"/>
   </g>
   <g id="line2d_91">
    <path clip-path="url(#pc292a6ab60)" d="M 322.135727 198.122854 
L 322.135727 142.032492 
" style="fill:none;stroke:#009afa;stroke-linecap:round;"/>
   </g>
   <g id="line2d_92">
    <path clip-path="url(#pc292a6ab60)" d="M 326.31494 198.122854 
L 326.31494 173.377106 
" style="fill:none;stroke:#009afa;stroke-linecap:round;"/>
   </g>
   <g id="line2d_93">
    <path clip-path="url(#pc292a6ab60)" d="M 330.494152 198.122854 
L 330.494152 148.218929 
" style="fill:none;stroke:#009afa;stroke-linecap:round;"/>
   </g>
   <g id="line2d_94">
    <path clip-path="url(#pc292a6ab60)" d="M 334.673364 198.122854 
L 334.673364 146.981641 
" style="fill:none;stroke:#009afa;stroke-linecap:round;"/>
   </g>
   <g id="line2d_95">
    <path clip-path="url(#pc292a6ab60)" d="M 338.852576 198.122854 
L 338.852576 110.275448 
" style="fill:none;stroke:#009afa;stroke-linecap:round;"/>
   </g>
   <g id="line2d_96">
    <path clip-path="url(#pc292a6ab60)" d="M 343.031789 198.122854 
L 343.031789 72.331967 
" style="fill:none;stroke:#009afa;stroke-linecap:round;"/>
   </g>
   <g id="line2d_97">
    <path clip-path="url(#pc292a6ab60)" d="M 347.211001 198.122854 
L 347.211001 116.874314 
" style="fill:none;stroke:#009afa;stroke-linecap:round;"/>
   </g>
   <g id="line2d_98">
    <path clip-path="url(#pc292a6ab60)" d="M 351.390213 198.122854 
L 351.390213 85.942129 
" style="fill:none;stroke:#009afa;stroke-linecap:round;"/>
   </g>
   <g id="line2d_99">
    <path clip-path="url(#pc292a6ab60)" d="M 355.569426 198.122854 
L 355.569426 167.603098 
" style="fill:none;stroke:#009afa;stroke-linecap:round;"/>
   </g>
   <g id="line2d_100">
    <path clip-path="url(#pc292a6ab60)" d="M 359.748638 198.122854 
L 359.748638 149.456216 
" style="fill:none;stroke:#009afa;stroke-linecap:round;"/>
   </g>
   <g id="line2d_101">
    <path clip-path="url(#pc292a6ab60)" d="M 363.92785 198.122854 
L 363.92785 140.795204 
" style="fill:none;stroke:#009afa;stroke-linecap:round;"/>
   </g>
   <g id="line2d_102">
    <path clip-path="url(#pc292a6ab60)" d="M 368.107063 198.122854 
L 368.107063 148.218929 
" style="fill:none;stroke:#009afa;stroke-linecap:round;"/>
   </g>
   <g id="line2d_103">
    <path clip-path="url(#pc292a6ab60)" d="M 372.286275 198.122854 
L 372.286275 95.427999 
" style="fill:none;stroke:#009afa;stroke-linecap:round;"/>
   </g>
   <g id="line2d_104">
    <path clip-path="url(#pc292a6ab60)" d="M 376.465487 198.122854 
L 376.465487 66.557959 
" style="fill:none;stroke:#009afa;stroke-linecap:round;"/>
   </g>
   <g id="line2d_105">
    <path clip-path="url(#pc292a6ab60)" d="M 380.644699 198.122854 
L 380.644699 72.331967 
" style="fill:none;stroke:#009afa;stroke-linecap:round;"/>
   </g>
   <g id="line2d_106">
    <path clip-path="url(#pc292a6ab60)" d="M 384.823912 198.122854 
L 384.823912 20.365896 
" style="fill:none;stroke:#009afa;stroke-linecap:round;"/>
   </g>
   <g id="line2d_107">
    <path clip-path="url(#pc292a6ab60)" d="M 389.003124 198.122854 
L 389.003124 44.699215 
" style="fill:none;stroke:#009afa;stroke-linecap:round;"/>
   </g>
   <g id="line2d_108">
    <path clip-path="url(#pc292a6ab60)" d="M 393.182336 198.122854 
L 393.182336 23.665329 
" style="fill:none;stroke:#009afa;stroke-linecap:round;"/>
   </g>
   <g id="line2d_109">
    <path clip-path="url(#pc292a6ab60)" d="M 397.361549 198.122854 
L 397.361549 36.863061 
" style="fill:none;stroke:#009afa;stroke-linecap:round;"/>
   </g>
   <g id="line2d_110">
    <path clip-path="url(#pc292a6ab60)" d="M 401.540761 198.122854 
L 401.540761 138.320629 
" style="fill:none;stroke:#009afa;stroke-linecap:round;"/>
   </g>
   <g id="line2d_111">
    <path clip-path="url(#pc292a6ab60)" d="M 405.719973 198.122854 
L 405.719973 114.399739 
" style="fill:none;stroke:#009afa;stroke-linecap:round;"/>
   </g>
   <g id="line2d_112">
    <path clip-path="url(#pc292a6ab60)" d="M 409.899186 198.122854 
L 409.899186 116.461885 
" style="fill:none;stroke:#009afa;stroke-linecap:round;"/>
   </g>
   <g id="line2d_113">
    <path clip-path="url(#pc292a6ab60)" d="M 414.078398 198.122854 
L 414.078398 125.122897 
" style="fill:none;stroke:#009afa;stroke-linecap:round;"/>
   </g>
   <g id="line2d_114">
    <path clip-path="url(#pc292a6ab60)" d="M 418.25761 198.122854 
L 418.25761 194.410992 
" style="fill:none;stroke:#009afa;stroke-linecap:round;"/>
   </g>
   <g id="patch_3">
    <path d="M 43.758396 198.122854 
L 43.758396 20.365896 
" style="fill:none;stroke:#000000;stroke-linecap:square;stroke-linejoin:miter;"/>
   </g>
   <g id="patch_4">
    <path d="M 43.758396 198.122854 
L 429.165354 198.122854 
" style="fill:none;stroke:#000000;stroke-linecap:square;stroke-linejoin:miter;"/>
   </g>
   <g id="text_15">
    <!-- Monthly uploads 月上传量 -->
    <defs>
     <path d="M 92.703125 5.703125 
Q 89.09375 5.796875 84.640625 5.890625 
Q 80.203125 6 76.703125 6 
L 73 6 
Q 70.296875 6 66.25 5.953125 
Q 62.203125 5.90625 58.09375 5.703125 
L 58.09375 8.703125 
L 64.09375 9.90625 
Q 66.40625 10.40625 67 11.40625 
Q 67.59375 12.40625 67.59375 15.296875 
L 67.59375 56.5 
L 43.09375 5.203125 
L 17.203125 55.796875 
L 17.203125 14.703125 
Q 17.203125 10 20.203125 9.703125 
L 29.40625 8.703125 
L 29.40625 5.703125 
Q 23.40625 6 16.90625 6 
Q 10.40625 6 2.5 5.703125 
L 2.5 8.703125 
L 8 9.703125 
Q 9.90625 10 10.953125 10.390625 
Q 12 10.796875 12.546875 11.34375 
Q 13.09375 11.90625 13.1875 12.703125 
Q 13.296875 13.5 13.296875 14.703125 
L 13.296875 64.5 
L 4.203125 65.59375 
L 4.203125 68.796875 
Q 5.796875 68.5 13.203125 68.5 
Q 16.90625 68.5 20.296875 68.546875 
Q 23.703125 68.59375 25 68.796875 
L 47.796875 25.59375 
L 68.40625 68.796875 
Q 70.796875 68.59375 74.09375 68.546875 
Q 77.40625 68.5 80.796875 68.5 
Q 84.203125 68.5 87.34375 68.546875 
Q 90.5 68.59375 92.59375 68.796875 
L 92.59375 65.59375 
L 86.40625 64.296875 
Q 83.5 63.703125 82.390625 62.5 
Q 81.296875 61.296875 81.296875 58.40625 
L 81.296875 16 
Q 81.296875 12.90625 81.84375 11.84375 
Q 82.40625 10.796875 84.203125 10.40625 
L 92.703125 8.703125 
z
" id="STSongti-SC-Black-77"/>
     <path d="M 7.703125 60.296875 
Q 7.703125 63.203125 5.84375 64.453125 
Q 4 65.703125 1.5 66.203125 
L 1.5 68.40625 
Q 2.5 68.40625 4.453125 68.703125 
Q 6.40625 69 8.65625 69.453125 
Q 10.90625 69.90625 13.09375 70.546875 
Q 15.296875 71.203125 16.796875 72 
L 19.203125 72 
L 19.203125 37.40625 
Q 21.796875 41.09375 24.640625 43.140625 
Q 27.5 45.203125 31.296875 45.703125 
Q 32.09375 45.796875 32.84375 45.84375 
Q 33.59375 45.90625 34.5 45.90625 
Q 40.09375 45.90625 43.1875 42.453125 
Q 46.296875 39 46.296875 32.296875 
L 46.296875 12.703125 
Q 46.296875 11.703125 46.6875 10.75 
Q 47.09375 9.796875 48.796875 9.203125 
L 51.59375 8.203125 
L 51.59375 5.59375 
Q 48.40625 5.796875 45.453125 5.890625 
Q 42.5 6 40.703125 6 
Q 39 6 35.703125 5.890625 
Q 32.40625 5.796875 29.296875 5.59375 
L 29.296875 8.203125 
L 32.40625 9.296875 
Q 33.796875 9.796875 34.296875 10.75 
Q 34.796875 11.703125 34.796875 13.40625 
L 34.796875 31.09375 
Q 34.796875 34.40625 33.546875 36.296875 
Q 32.296875 38.203125 28.59375 38.203125 
Q 26.796875 38.203125 25.25 37.453125 
Q 23.703125 36.703125 22.5 35.640625 
Q 21.296875 34.59375 20.4375 33.34375 
Q 19.59375 32.09375 19.203125 31.203125 
L 19.203125 13.40625 
Q 19.203125 12.296875 19.59375 11.34375 
Q 20 10.40625 21.09375 9.90625 
L 25.40625 8.203125 
L 25.40625 5.59375 
Q 23.796875 5.796875 20.390625 5.890625 
Q 17 6 13.5 6 
Q 10 6 7.046875 5.890625 
Q 4.09375 5.796875 2.5 5.59375 
L 2.5 8.203125 
L 5.59375 9.296875 
Q 6.796875 9.796875 7.25 10.890625 
Q 7.703125 12 7.703125 13.203125 
z
" id="STSongti-SC-Black-104"/>
     <path d="M 25.5 5.703125 
Q 23.09375 5.796875 19.9375 5.890625 
Q 16.796875 6 13.5 6 
Q 10.203125 6 7.046875 5.890625 
Q 3.90625 5.796875 1.5 5.703125 
L 1.5 8.296875 
L 6.09375 9.5 
Q 7.40625 9.796875 7.90625 10.296875 
Q 8.40625 10.796875 8.40625 12.296875 
L 8.40625 61.09375 
Q 8.40625 63.203125 7.203125 64.203125 
Q 6 65.203125 1.90625 66.40625 
L 1.90625 68.703125 
Q 2.90625 68.90625 4.796875 69.203125 
Q 6.703125 69.5 9 69.890625 
Q 11.296875 70.296875 13.59375 70.84375 
Q 15.90625 71.40625 17.59375 72 
L 19.90625 72 
L 19.90625 12.5 
Q 19.90625 10.5 20.296875 10.046875 
Q 20.703125 9.59375 22.203125 9.203125 
L 25.5 8.296875 
z
" id="STSongti-SC-Black-108"/>
     <path d="M 21.5 -5.5 
Q 19.703125 -9.90625 16.25 -11.953125 
Q 12.796875 -14 8.90625 -14 
Q 7.796875 -14 6.6875 -13.75 
Q 5.59375 -13.5 4.796875 -12.90625 
Q 4.09375 -12.40625 3.640625 -11.65625 
Q 3.203125 -10.90625 3.203125 -9.90625 
Q 3.203125 -7.09375 4.703125 -6.25 
Q 6.203125 -5.40625 8.296875 -5.40625 
Q 10.40625 -5.40625 12.59375 -5.953125 
Q 14.796875 -6.5 15.90625 -6.5 
Q 16.40625 -6.5 17.09375 -6 
Q 17.796875 -5.5 18.5 -4.640625 
Q 19.203125 -3.796875 19.640625 -2.59375 
Q 20.09375 -1.40625 20.09375 0 
Q 20.09375 1.40625 19.59375 3.203125 
Q 19.09375 4.90625 18.4375 6.59375 
Q 17.796875 8.296875 17.203125 9.703125 
L 4.09375 38.5 
Q 3.09375 40.796875 1.5 41.40625 
L -0.5 42.09375 
L -0.5 44.59375 
Q 12.203125 43.5 20.59375 44.59375 
L 20.59375 42.09375 
Q 17.90625 42.09375 17.703125 41.59375 
Q 17.5 41.09375 17.90625 40.09375 
L 27 17 
L 34.90625 36.5 
Q 35.40625 37.90625 35.34375 39.40625 
Q 35.296875 40.90625 33.59375 41.296875 
L 28 42.59375 
L 28 44.59375 
Q 36.796875 43.59375 46.40625 44.59375 
L 46.40625 42.59375 
L 43.203125 41.796875 
Q 42.40625 41.59375 41.84375 41.25 
Q 41.296875 40.90625 40.796875 40.25 
Q 40.296875 39.59375 39.6875 38.4375 
Q 39.09375 37.296875 38.40625 35.5 
z
" id="STSongti-SC-Black-121"/>
     <path d="M 19.59375 40.59375 
Q 21.203125 41.90625 22.546875 42.90625 
Q 23.90625 43.90625 25.34375 44.59375 
Q 26.796875 45.296875 28.546875 45.640625 
Q 30.296875 46 32.59375 46 
Q 40.40625 46 44.90625 40.953125 
Q 49.40625 35.90625 49.40625 26.796875 
Q 49.40625 21.703125 47.75 17.703125 
Q 46.09375 13.703125 43.390625 10.953125 
Q 40.703125 8.203125 37.140625 6.75 
Q 33.59375 5.296875 29.796875 5.296875 
Q 26.90625 5.296875 24.25 5.890625 
Q 21.59375 6.5 19.59375 8.203125 
L 19.59375 -7 
Q 19.59375 -8.40625 20.4375 -9.09375 
Q 21.296875 -9.796875 23.796875 -10.203125 
L 29.796875 -11.203125 
L 29.796875 -13.90625 
Q 27.796875 -13.703125 25 -13.59375 
Q 22.203125 -13.5 17.796875 -13.5 
L 15.09375 -13.5 
Q 13.5 -13.5 11.546875 -13.546875 
Q 9.59375 -13.59375 7.6875 -13.640625 
Q 5.796875 -13.703125 4.140625 -13.75 
Q 2.5 -13.796875 1.5 -13.90625 
L 1.5 -11.296875 
L 5.703125 -10.5 
Q 7.203125 -10.203125 7.640625 -9.546875 
Q 8.09375 -8.90625 8.09375 -7 
L 8.09375 37.203125 
Q 8.09375 40.90625 6.796875 41 
L 1.90625 41.796875 
L 2.203125 43.203125 
Q 5 43.90625 7.34375 44.703125 
Q 9.703125 45.5 10.796875 46 
Q 11.5 46.296875 12.59375 46.84375 
Q 13.703125 47.40625 14.796875 48.046875 
Q 15.90625 48.703125 16.796875 49.296875 
Q 17.703125 49.90625 18.09375 50.40625 
L 19.59375 50.40625 
z
M 19.59375 36.59375 
L 19.59375 18.09375 
Q 19.59375 14.5 21.5 12.140625 
Q 23.40625 9.796875 27.796875 9.796875 
Q 32.40625 9.796875 34.84375 13.75 
Q 37.296875 17.703125 37.296875 24.59375 
Q 37.296875 27.90625 36.5 30.75 
Q 35.703125 33.59375 34.25 35.6875 
Q 32.796875 37.796875 30.9375 39 
Q 29.09375 40.203125 27 40.203125 
Q 24.59375 40.203125 22.890625 39.203125 
Q 21.203125 38.203125 19.59375 36.59375 
z
" id="STSongti-SC-Black-112"/>
     <path d="M 18 4.5 
Q 13.90625 4.5 10.953125 5.953125 
Q 8 7.40625 6.140625 9.90625 
Q 4.296875 12.40625 3.390625 15.796875 
Q 2.5 19.203125 2.5 23.09375 
Q 2.5 28.40625 4.09375 32.5 
Q 5.703125 36.59375 8.390625 39.390625 
Q 11.09375 42.203125 14.6875 43.640625 
Q 18.296875 45.09375 22.296875 45.09375 
Q 25.09375 45.09375 27.1875 44.6875 
Q 29.296875 44.296875 30.703125 43.796875 
Q 32.40625 43.296875 33.5 42.59375 
L 40.09375 46.296875 
L 41 46 
L 41 15.203125 
Q 41 11.203125 44.40625 11.40625 
Q 45.203125 11.40625 45.640625 11.65625 
Q 46.09375 11.90625 46.5 12.09375 
Q 46.90625 12.40625 47.203125 12.703125 
L 47.796875 11.296875 
Q 47 9.40625 45.703125 7.90625 
Q 44.59375 6.59375 42.75 5.546875 
Q 40.90625 4.5 38.203125 4.5 
Q 33.796875 4.5 31.9375 7.140625 
Q 30.09375 9.796875 30.09375 13.59375 
L 30.09375 16 
Q 29.59375 13.796875 28.640625 11.75 
Q 27.703125 9.703125 26.296875 8.09375 
Q 24.90625 6.5 22.84375 5.5 
Q 20.796875 4.5 18 4.5 
z
M 30.09375 27.5 
Q 30.09375 29.59375 29.890625 31.890625 
Q 29.703125 34.203125 29 36.140625 
Q 28.296875 38.09375 26.84375 39.390625 
Q 25.40625 40.703125 22.90625 40.703125 
Q 21.5 40.703125 19.953125 39.953125 
Q 18.40625 39.203125 17.09375 37.5 
Q 15.796875 35.796875 14.9375 32.84375 
Q 14.09375 29.90625 14.09375 25.59375 
Q 14.09375 22.59375 14.546875 19.890625 
Q 15 17.203125 16 15.203125 
Q 17 13.203125 18.453125 12.046875 
Q 19.90625 10.90625 21.90625 10.90625 
Q 23.90625 10.90625 25.40625 12.203125 
Q 26.90625 13.5 27.953125 15.640625 
Q 29 17.796875 29.546875 20.59375 
Q 30.09375 23.40625 30.09375 26.40625 
z
" id="STSongti-SC-Black-97"/>
     <path d="M 32.09375 60.5 
Q 32.09375 62.40625 31.890625 63.546875 
Q 31.703125 64.703125 30.890625 65.453125 
Q 30.09375 66.203125 28.546875 66.796875 
Q 27 67.40625 24.296875 68.09375 
L 24.296875 69.703125 
Q 25.90625 69.796875 28.25 70 
Q 30.59375 70.203125 33 70.5 
Q 35.40625 70.796875 37.59375 71.140625 
Q 39.796875 71.5 41.09375 72 
L 43.59375 72 
L 43.59375 13.796875 
Q 43.59375 12 43.75 11 
Q 43.90625 10 44.59375 9.546875 
Q 45.296875 9.09375 46.640625 9 
Q 48 8.90625 50.40625 8.796875 
L 50.40625 6.203125 
Q 48.5 5.796875 45.953125 5.4375 
Q 43.40625 5.09375 40.75 4.796875 
Q 38.09375 4.5 35.796875 4.25 
Q 33.5 4 32.09375 3.90625 
L 32.09375 10.5 
Q 29 8 26.046875 6.203125 
Q 23.09375 4.40625 19 4.40625 
Q 15.59375 4.40625 12.59375 5.296875 
Q 9.59375 6.203125 7.203125 9.09375 
Q 4.796875 12 3.640625 15.59375 
Q 2.5 19.203125 2.5 23.40625 
Q 2.5 29.09375 4.390625 33.34375 
Q 6.296875 37.59375 9.296875 40.390625 
Q 12.296875 43.203125 16 44.546875 
Q 19.703125 45.90625 23.296875 45.90625 
Q 26.5 45.90625 28.59375 45.15625 
Q 30.703125 44.40625 32.09375 43.203125 
z
M 32.09375 13.703125 
L 32.09375 30.5 
Q 32.09375 32.59375 31.796875 34.546875 
Q 31.5 36.5 30.703125 38.046875 
Q 29.90625 39.59375 28.34375 40.5 
Q 26.796875 41.40625 24.296875 41.40625 
Q 22.09375 41.40625 20.390625 40.15625 
Q 18.703125 38.90625 17.5 36.703125 
Q 16.296875 34.5 15.640625 31.59375 
Q 15 28.703125 15 25.296875 
Q 15 19.09375 17.296875 15.09375 
Q 19.59375 11.09375 24.296875 11.09375 
Q 27.40625 11.09375 29 11.796875 
Q 30.59375 12.5 32.09375 13.703125 
z
" id="STSongti-SC-Black-100"/>
     <path d="M 40.59375 30.703125 
Q 39.203125 17.703125 34 9.390625 
Q 28.796875 1.09375 18.9375 -5.09375 
Q 9.09375 -11.296875 7.203125 -11.296875 
Q 6.59375 -11.296875 6.59375 -10.796875 
Q 6.59375 -10.296875 7.796875 -9.5 
Q 14.59375 -4.59375 19.390625 2.15625 
Q 24.203125 8.90625 26.25 18.09375 
Q 28.296875 27.296875 28.296875 53.59375 
Q 28.296875 67.90625 27.703125 78.90625 
Q 41.5 75 42.59375 74.5 
L 68.296875 74.5 
Q 68.90625 75.703125 70.046875 77.5 
Q 71.203125 79.296875 71.703125 79.6875 
Q 72.203125 80.09375 72.90625 80.09375 
Q 74.40625 80.09375 77.703125 77.90625 
L 84 73.796875 
Q 87.203125 71.796875 87.203125 70.390625 
Q 87.203125 69 83.203125 67.796875 
L 83.203125 5.5 
Q 83.203125 0.703125 81.953125 -2.296875 
Q 80.703125 -5.296875 76.84375 -7.140625 
Q 73 -9 67.703125 -9 
Q 66.09375 -9 65.34375 -8.390625 
Q 64.59375 -7.796875 64.34375 -5.59375 
Q 64.09375 -3.40625 63.25 -2 
Q 62.40625 -0.59375 59.953125 0.546875 
Q 57.5 1.703125 52.5 3 
Q 50.796875 3.40625 50.796875 3.75 
Q 50.796875 4.09375 52.203125 4.09375 
L 57.59375 4 
Q 62.90625 4 65.453125 4.5 
Q 68 5 68.75 5.796875 
Q 69.5 6.59375 69.5 8 
L 69.5 30.703125 
z
M 42.09375 54.203125 
L 69.5 54.203125 
L 69.5 71.203125 
L 43.5 71.203125 
Q 42.90625 70.703125 42.703125 70.046875 
Q 42.5 69.40625 42.390625 64 
Q 42.296875 58.59375 42.09375 54.203125 
z
M 69.5 50.90625 
L 42 50.90625 
Q 41.796875 44.90625 40.90625 34 
L 69.5 34 
z
" id="STSongti-SC-Black-26376"/>
     <path d="M 52.09375 48.09375 
L 69.703125 48.09375 
Q 71.40625 51.203125 72.953125 53.546875 
Q 74.5 55.90625 74.890625 56.296875 
Q 75.296875 56.703125 75.796875 56.703125 
Q 76.90625 56.703125 83.15625 52.203125 
Q 89.40625 47.703125 89.40625 46.25 
Q 89.40625 44.796875 86.90625 44.796875 
L 52.09375 44.796875 
L 52.09375 -1.296875 
L 76.40625 -1.296875 
Q 78.296875 1.796875 80.34375 4.640625 
Q 82.40625 7.5 82.84375 7.890625 
Q 83.296875 8.296875 83.796875 8.296875 
Q 85.203125 8.296875 91.09375 3.046875 
Q 97 -2.203125 97 -3.390625 
Q 97 -4.59375 94.40625 -4.59375 
L 8.90625 -4.59375 
Q 6.90625 -4.59375 5.296875 -5.703125 
L 2.703125 -1 
Q 5.09375 -1.296875 7.703125 -1.296875 
L 38.796875 -1.296875 
L 38.796875 71.40625 
Q 38.796875 76.40625 38.59375 80.296875 
Q 44.203125 79.90625 48.546875 79.203125 
Q 52.90625 78.5 53.953125 77.953125 
Q 55 77.40625 55 76.59375 
Q 55 75.296875 52.09375 74.203125 
z
" id="STSongti-SC-Black-19978"/>
     <path d="M 51.90625 59.203125 
L 38 59.203125 
Q 36 59.203125 34.40625 58.09375 
L 31.796875 62.796875 
Q 34.203125 62.5 36.796875 62.5 
L 52.796875 62.5 
Q 54.703125 69.90625 56.703125 83.203125 
Q 62.703125 81.90625 66.640625 80.796875 
Q 70.59375 79.703125 71.25 79.140625 
Q 71.90625 78.59375 71.90625 77.90625 
Q 71.90625 76.703125 70.40625 76.25 
Q 68.90625 75.796875 68.40625 73.90625 
L 64.703125 62.5 
L 74.796875 62.5 
Q 76.40625 65.59375 77.796875 67.890625 
Q 79.203125 70.203125 79.703125 70.703125 
Q 80.203125 71.203125 80.703125 71.203125 
Q 81.703125 71.203125 87.640625 66.34375 
Q 93.59375 61.5 93.59375 60.34375 
Q 93.59375 59.203125 91.59375 59.203125 
L 63.703125 59.203125 
Q 62.09375 53.90625 59.59375 45.09375 
L 80 45.09375 
Q 81.203125 47.296875 83.046875 50.1875 
Q 84.90625 53.09375 85.40625 53.796875 
Q 85.90625 54.5 86.40625 54.5 
Q 87.59375 54.5 93.390625 49.296875 
Q 99.203125 44.09375 99.203125 42.9375 
Q 99.203125 41.796875 97.296875 41.796875 
L 58.796875 41.796875 
Q 56.90625 35.40625 55.40625 29.796875 
L 72.90625 29.796875 
Q 75.796875 34.5 76.390625 35.296875 
Q 77 36.09375 78.046875 36.09375 
Q 79.09375 36.09375 83.9375 32.59375 
Q 88.796875 29.09375 90.59375 27.6875 
Q 92.40625 26.296875 92.40625 25.140625 
Q 92.40625 24 91.703125 23.390625 
Q 91 22.796875 88.953125 22.796875 
Q 86.90625 22.796875 84.796875 22.046875 
Q 82.703125 21.296875 79.09375 18.75 
Q 75.5 16.203125 67.90625 10 
Q 74.796875 7.703125 78.34375 4.203125 
Q 81.90625 0.703125 81.90625 -2.84375 
Q 81.90625 -6.40625 79.84375 -8.703125 
Q 77.796875 -11 75.296875 -11 
Q 72.796875 -11 71.296875 -10.09375 
Q 69.796875 -9.203125 68.40625 -6.703125 
Q 63.90625 1.40625 58.5 5.09375 
Q 53.09375 8.796875 41.90625 11.90625 
Q 40.296875 12.40625 40.296875 12.796875 
Q 40.296875 13.203125 42 13.203125 
Q 56.296875 13.203125 65.5 10.703125 
Q 69.09375 16.5 73.90625 26.5 
L 54.09375 26.5 
L 52.40625 24.703125 
Q 51.5 23.703125 50.75 23.703125 
Q 50 23.703125 45 26.34375 
Q 40 29 40 29.703125 
Q 40 30.40625 41.203125 31.203125 
Q 44.09375 33 44.703125 35.203125 
L 46.703125 41.796875 
L 34.796875 41.796875 
Q 32.796875 41.796875 31.203125 40.703125 
L 28.59375 45.40625 
Q 31 45.09375 33.59375 45.09375 
L 47.703125 45.09375 
Q 50.203125 53 51.90625 59.203125 
z
M 17 42.5 
Q 13.703125 38.203125 8.25 33 
Q 2.796875 27.796875 2.09375 27.796875 
Q 2 27.796875 2 28 
Q 2 28.296875 2.796875 29.5 
Q 10.40625 40.5 14.703125 53.25 
Q 19 66 20.703125 82.09375 
Q 28.40625 79.796875 32.25 78.140625 
Q 36.09375 76.5 37.09375 75.796875 
Q 38.09375 75.09375 38.09375 74.34375 
Q 38.09375 73.59375 36.5 73.09375 
Q 34.90625 72.59375 34.25 72 
Q 33.59375 71.40625 32.703125 69.59375 
Q 28.5 60.796875 24.5 53.90625 
Q 30.90625 52.5 30.90625 50.90625 
Q 30.90625 49.703125 28.40625 48.796875 
L 28.40625 -5.59375 
Q 28.40625 -6.40625 28.09375 -6.796875 
Q 27.796875 -7.203125 25.890625 -7.890625 
Q 24 -8.59375 21.296875 -9.140625 
Q 18.59375 -9.703125 17.296875 -9.703125 
Q 16.59375 -9.703125 16.59375 -8.703125 
L 16.90625 0.703125 
Q 17 5.09375 17 9 
z
" id="STSongti-SC-Black-20256"/>
     <path d="M 31 78.09375 
L 67.796875 78.09375 
Q 69.5 80.796875 70.640625 82.140625 
Q 71.796875 83.5 72.59375 83.5 
Q 73.90625 83.5 79.203125 79.796875 
Q 84.5 76.09375 84.5 74.796875 
Q 84.5 73.5 80.796875 71.90625 
L 80.796875 65.09375 
L 81 55.90625 
Q 81 54.40625 80.140625 53.5 
Q 79.296875 52.59375 76.75 51.75 
Q 74.203125 50.90625 70.703125 50.90625 
Q 68.796875 50.90625 68.703125 53.09375 
L 30.796875 53.09375 
Q 30.796875 52.296875 28.140625 51.1875 
Q 25.5 50.09375 20.796875 50.09375 
Q 19.40625 50.09375 19.40625 51.203125 
L 19.59375 55.703125 
Q 19.796875 58.703125 19.796875 61.203125 
L 19.796875 73.203125 
Q 19.796875 77.59375 19.5 81.90625 
Q 26.203125 80.09375 31 78.09375 
z
M 68.703125 67.703125 
L 68.703125 74.796875 
L 32.796875 74.796875 
Q 32.40625 73.703125 30.90625 73 
L 30.90625 67.703125 
z
M 68.703125 56.40625 
L 68.703125 64.40625 
L 30.90625 64.40625 
L 30.90625 56.40625 
z
M 74 45.40625 
L 9.90625 45.40625 
Q 7.90625 45.40625 6.296875 44.296875 
L 3.703125 49 
Q 6.09375 48.703125 8.703125 48.703125 
L 79.703125 48.703125 
Q 81.09375 51.296875 82.546875 53.59375 
Q 84 55.90625 84.5 56.5 
Q 85 57.09375 85.796875 57.09375 
Q 86.59375 57.09375 89.703125 54.5 
L 95.40625 49.90625 
Q 97.796875 47.796875 97.796875 46.59375 
Q 97.796875 45.40625 94.90625 45.40625 
L 77.796875 45.40625 
Q 86.90625 39.59375 86.90625 38 
Q 86.90625 36.40625 83.703125 35.296875 
L 83.703125 25.296875 
Q 83.703125 22.40625 83.84375 20.203125 
Q 84 18 84 17.5 
Q 84 17 83.5 16.453125 
Q 83 15.90625 79.796875 14.59375 
Q 88.296875 7.796875 88.296875 5.90625 
Q 88.296875 4.90625 86.09375 4.90625 
L 55.5 4.90625 
L 55.5 -2.90625 
L 79.59375 -2.90625 
Q 82.09375 1.296875 83.296875 2.640625 
Q 84.5 4 85.203125 4 
Q 85.90625 4 89.203125 1.796875 
Q 92.5 -0.40625 94.703125 -2.25 
Q 96.90625 -4.09375 96.90625 -5.140625 
Q 96.90625 -6.203125 94.5 -6.203125 
L 13.40625 -6.203125 
Q 11.40625 -6.203125 9.796875 -7.296875 
L 7.203125 -2.59375 
Q 9.59375 -2.90625 12.203125 -2.90625 
L 44.296875 -2.90625 
L 44.296875 4.90625 
L 20.90625 4.90625 
Q 18.90625 4.90625 17.296875 3.796875 
L 14.703125 8.5 
Q 17.09375 8.203125 19.703125 8.203125 
L 44.296875 8.203125 
L 44.296875 15 
L 28 15 
Q 28 13.796875 27.453125 13.1875 
Q 26.90625 12.59375 24.296875 11.9375 
Q 21.703125 11.296875 18.203125 11.296875 
Q 16.703125 11.296875 16.84375 13.25 
Q 17 15.203125 17 21.296875 
L 17 35.796875 
Q 17 40 16.703125 44.296875 
Q 22.203125 43 27.296875 41.09375 
L 71.40625 41.09375 
Q 72.796875 43.796875 74 45.40625 
z
M 44.296875 37.796875 
L 30.296875 37.796875 
Q 29.796875 36.09375 28 35.40625 
L 28 29.59375 
L 44.296875 29.59375 
z
M 71.796875 29.59375 
L 71.796875 37.796875 
L 57.40625 37.796875 
Q 56.90625 36.40625 55.5 35.703125 
L 55.5 29.59375 
z
M 44.296875 26.296875 
L 28 26.296875 
L 28 18.296875 
L 44.296875 18.296875 
z
M 71.796875 18.296875 
L 71.796875 26.296875 
L 55.5 26.296875 
L 55.5 18.296875 
z
M 77 13.90625 
Q 74.90625 13.703125 73.453125 13.703125 
Q 72 13.703125 71.796875 15 
L 55.5 15 
L 55.5 8.203125 
L 73.5 8.203125 
Q 74.796875 10.703125 77 13.90625 
z
" id="STSongti-SC-Black-37327"/>
    </defs>
    <g transform="translate(157.779687 14.365896)scale(0.14 -0.14)">
     <use xlink:href="#STSongti-SC-Black-77"/>
     <use x="95.199982" xlink:href="#STSongti-SC-Black-111"/>
     <use x="143.599976" xlink:href="#STSongti-SC-Black-110"/>
     <use x="196.59996" xlink:href="#STSongti-SC-Black-116"/>
     <use x="230.799957" xlink:href="#STSongti-SC-Black-104"/>
     <use x="283.899948" xlink:href="#STSongti-SC-Black-108"/>
     <use x="310.899933" xlink:href="#STSongti-SC-Black-121"/>
     <use x="356.799927" xlink:href="#STSongti-SC-Black-32"/>
     <use x="381.799911" xlink:href="#STSongti-SC-Black-117"/>
     <use x="434.599899" xlink:href="#STSongti-SC-Black-112"/>
     <use x="486.499893" xlink:href="#STSongti-SC-Black-108"/>
     <use x="513.499878" xlink:href="#STSongti-SC-Black-111"/>
     <use x="561.899872" xlink:href="#STSongti-SC-Black-97"/>
     <use x="611.19986" xlink:href="#STSongti-SC-Black-100"/>
     <use x="663.099854" xlink:href="#STSongti-SC-Black-115"/>
     <use x="698.999847" xlink:href="#STSongti-SC-Black-32"/>
     <use x="723.999832" xlink:href="#STSongti-SC-Black-26376"/>
     <use x="823.999817" xlink:href="#STSongti-SC-Black-19978"/>
     <use x="923.999802" xlink:href="#STSongti-SC-Black-20256"/>
     <use x="1023.999786" xlink:href="#STSongti-SC-Black-37327"/>
    </g>
   </g>
  </g>
 </g>
 <defs>
  <clipPath id="pc292a6ab60">
   <rect height="177.756959" width="385.406959" x="43.758396" y="20.365896"/>
  </clipPath>
 </defs>
</svg>
